<?xml version="1.0" encoding="UTF-8"?>
<svg width="12px" height="11px" viewBox="0 0 12 11" version="1.1" xmlns="http://www.w3.org/2000/svg" xmlns:xlink="http://www.w3.org/1999/xlink">
    <!-- Generator: Sketch 59 (86127) - https://sketch.com -->
    <title>Path</title>
    <desc>Created with Sketch.</desc>
    <g id="Page-1" stroke="none" stroke-width="1" fill="none" fill-rule="evenodd">
        <g id="Login-page-/-Reset-Password-/-Fail" transform="translate(-213.000000, -586.000000)" fill="#0C64CE" fill-rule="nonzero">
            <g id="Group-2" transform="translate(213.000000, 579.000000)">
                <path d="M10.6454539,13.9113408 L12,9.69322369 L10.3182836,10.2623966 C9.37909841,8.11153995 7.20178896,6.80904589 4.90290755,7.02285015 C2.60402614,7.2366544 0.69357789,8.91932465 0.151265242,11.2079659 C-0.391047405,13.4966072 0.555087204,15.8834862 2.50447907,17.1445806 C4.45387094,18.405675 6.97404893,18.261212 8.77263336,16.7852741 C8.9870964,16.6111745 9.09375535,16.3332812 9.05217594,16.0569432 C9.01059652,15.7806052 8.8271439,15.5481255 8.5713647,15.4476367 C8.3155855,15.3471479 8.02663541,15.3940334 7.81405502,15.5705188 C7.12893682,16.1355877 6.273454,16.4418702 5.39238341,16.4375329 C3.48861455,16.434465 1.87128726,15.0162102 1.5827677,13.0968324 C1.29424814,11.1774545 2.42069315,9.33011258 4.23610981,8.7454169 C6.05152647,8.16072122 8.01380057,9.01327187 8.85824801,10.7536006 L7.08174397,11.3555205 L10.6454539,13.9113408 Z" id="Path"></path>
            </g>
        </g>
    </g>
</svg>