<?xml version="1.0" encoding="UTF-8"?>
<svg width="12px" height="16px" viewBox="0 0 12 16" version="1.1" xmlns="http://www.w3.org/2000/svg" xmlns:xlink="http://www.w3.org/1999/xlink">
    <!-- Generator: Sketch 59 (86127) - https://sketch.com -->
    <title>Path</title>
    <desc>Created with Sketch.</desc>
    <g id="REZILIO-PLANS-v3" stroke="none" stroke-width="1" fill="none" fill-rule="evenodd">
        <g id="Onboarding-03-/-Address-/-Dropdown-/-Open" transform="translate(-538.000000, -90.000000)" fill="#202124" fill-rule="nonzero">
            <path d="M544,106 C544,106 538,99.4411699 538,96.0926212 C538,92.7277594 540.686292,90 544,90 C547.313708,90 550,92.7277594 550,96.0926212 C550,99.4411699 544,106 544,106 Z M546.553971,95.9649899 C546.56246,94.914166 545.945616,93.9620104 544.991965,93.5538909 C544.038315,93.1457714 542.936388,93.36237 542.201608,94.1023734 C541.466827,94.8423769 541.244453,95.9594922 541.6385,96.9311923 C542.032548,97.9028924 542.965116,98.5370796 544,98.537137 C544.674579,98.5399416 545.322634,98.2705372 545.801598,97.788169 C546.280562,97.3058007 546.551199,96.6499825 546.553971,95.9649899 Z" id="Shape"></path>
        </g>
    </g>
</svg>