<?xml version="1.0" encoding="UTF-8"?>
<svg width="324px" height="188px" viewBox="0 0 324 188" version="1.1" xmlns="http://www.w3.org/2000/svg" xmlns:xlink="http://www.w3.org/1999/xlink">
    <title>undraw_safe_bnk7</title>
    <defs>
        <linearGradient x1="0%" y1="50.0010198%" x2="100%" y2="50.0010198%" id="linearGradient-1">
            <stop stop-color="#808080" stop-opacity="0.25" offset="0%"></stop>
            <stop stop-color="#808080" stop-opacity="0.12" offset="54%"></stop>
            <stop stop-color="#808080" stop-opacity="0.1" offset="100%"></stop>
        </linearGradient>
        <linearGradient x1="1.83026383e-13%" y1="50%" x2="100%" y2="50%" id="linearGradient-2">
            <stop stop-color="#808080" stop-opacity="0.25" offset="0%"></stop>
            <stop stop-color="#808080" stop-opacity="0.12" offset="54%"></stop>
            <stop stop-color="#808080" stop-opacity="0.1" offset="100%"></stop>
        </linearGradient>
        <linearGradient x1="-4.7330074e-13%" y1="50%" x2="100%" y2="50%" id="linearGradient-3">
            <stop stop-color="#808080" stop-opacity="0.25" offset="0%"></stop>
            <stop stop-color="#808080" stop-opacity="0.12" offset="54%"></stop>
            <stop stop-color="#808080" stop-opacity="0.1" offset="100%"></stop>
        </linearGradient>
        <linearGradient x1="50.0019157%" y1="100%" x2="50.0019157%" y2="-7.68154309e-15%" id="linearGradient-4">
            <stop stop-color="#808080" stop-opacity="0.25" offset="0%"></stop>
            <stop stop-color="#808080" stop-opacity="0.12" offset="54%"></stop>
            <stop stop-color="#808080" stop-opacity="0.1" offset="100%"></stop>
        </linearGradient>
        <linearGradient x1="50%" y1="100%" x2="50%" y2="0%" id="linearGradient-5">
            <stop stop-color="#808080" stop-opacity="0.25" offset="0%"></stop>
            <stop stop-color="#808080" stop-opacity="0.12" offset="54%"></stop>
            <stop stop-color="#808080" stop-opacity="0.1" offset="100%"></stop>
        </linearGradient>
        <linearGradient x1="50%" y1="100.042319%" x2="50%" y2="0.0423190859%" id="linearGradient-6">
            <stop stop-color="#808080" stop-opacity="0.25" offset="0%"></stop>
            <stop stop-color="#808080" stop-opacity="0.12" offset="54%"></stop>
            <stop stop-color="#808080" stop-opacity="0.1" offset="100%"></stop>
        </linearGradient>
        <linearGradient x1="50%" y1="100%" x2="50%" y2="0%" id="linearGradient-7">
            <stop stop-color="#808080" stop-opacity="0.25" offset="0%"></stop>
            <stop stop-color="#808080" stop-opacity="0.12" offset="54%"></stop>
            <stop stop-color="#808080" stop-opacity="0.1" offset="100%"></stop>
        </linearGradient>
        <linearGradient x1="50%" y1="100%" x2="50%" y2="0%" id="linearGradient-8">
            <stop stop-color="#808080" stop-opacity="0.25" offset="0%"></stop>
            <stop stop-color="#808080" stop-opacity="0.12" offset="54%"></stop>
            <stop stop-color="#808080" stop-opacity="0.1" offset="100%"></stop>
        </linearGradient>
        <linearGradient x1="50%" y1="100%" x2="50%" y2="0%" id="linearGradient-9">
            <stop stop-color="#808080" stop-opacity="0.25" offset="0%"></stop>
            <stop stop-color="#808080" stop-opacity="0.12" offset="54%"></stop>
            <stop stop-color="#808080" stop-opacity="0.1" offset="100%"></stop>
        </linearGradient>
        <linearGradient x1="50%" y1="100%" x2="50%" y2="0%" id="linearGradient-10">
            <stop stop-color="#808080" stop-opacity="0.25" offset="0%"></stop>
            <stop stop-color="#808080" stop-opacity="0.12" offset="54%"></stop>
            <stop stop-color="#808080" stop-opacity="0.1" offset="100%"></stop>
        </linearGradient>
        <linearGradient x1="49.9962502%" y1="100%" x2="49.9962502%" y2="0.809888927%" id="linearGradient-11">
            <stop stop-color="#808080" stop-opacity="0.25" offset="0%"></stop>
            <stop stop-color="#808080" stop-opacity="0.12" offset="54%"></stop>
            <stop stop-color="#808080" stop-opacity="0.1" offset="100%"></stop>
        </linearGradient>
        <linearGradient x1="49.9606758%" y1="100%" x2="49.9606758%" y2="0.10502694%" id="linearGradient-12">
            <stop stop-color="#808080" stop-opacity="0.25" offset="0%"></stop>
            <stop stop-color="#808080" stop-opacity="0.12" offset="54%"></stop>
            <stop stop-color="#808080" stop-opacity="0.1" offset="100%"></stop>
        </linearGradient>
    </defs>
    <g id="REZILIO-PLANS-v3" stroke="none" stroke-width="1" fill="none" fill-rule="evenodd">
        <g id="Login-page-/-Reset-Password-/-New-Password-/-User-focus-placeholder-Copy-4" transform="translate(-134.000000, -324.000000)" fill-rule="nonzero">
            <g id="undraw_safe_bnk7" transform="translate(134.591522, 324.000000)">
                <polygon id="Rectangle" fill="#F5F5F5" transform="translate(234.198868, 34.177511) rotate(-81.360000) translate(-234.198868, -34.177511) " points="230.617404 -50.5687991 237.780333 -50.5687991 237.780333 118.923821 230.617404 118.923821"></polygon>
                <polygon id="Rectangle" fill="url(#linearGradient-1)" transform="translate(225.212274, 95.291827) rotate(-81.360000) translate(-225.212274, -95.291827) " points="157.474316 6.96405212 292.950231 6.96405212 292.950231 183.619601 157.474316 183.619601"></polygon>
                <polygon id="Rectangle" fill="#F5F5F5" transform="translate(224.377133, 98.785346) rotate(-81.360000) translate(-224.377133, -98.785346) " points="162.607682 14.0390357 286.146584 14.0390357 286.146584 183.531656 162.607682 183.531656"></polygon>
                <circle id="Oval" fill="#FF5252" transform="translate(154.505729, 22.067607) rotate(-81.360000) translate(-154.505729, -22.067607) " cx="154.505729" cy="22.0676072" r="1.75109827"></circle>
                <circle id="Oval" fill="#FFFF00" transform="translate(159.266003, 22.788895) rotate(-81.360000) translate(-159.266003, -22.788895) " cx="159.266003" cy="22.7888954" r="1.75109827"></circle>
                <circle id="Oval" fill="#69F0AE" transform="translate(164.026277, 23.513787) rotate(-81.360000) translate(-164.026277, -23.513787) " cx="164.026277" cy="23.5137866" r="1.75109827"></circle>
                <polygon id="Rectangle" fill="url(#linearGradient-2)" transform="translate(227.164479, 70.536919) rotate(-81.360000) translate(-227.164479, -70.536919) " points="204.78393 -5.55658811 249.545029 -5.55658811 249.545029 146.630425 204.78393 146.630425"></polygon>
                <polygon id="Rectangle" fill="#6C63FF" transform="translate(227.298925, 70.706779) rotate(8.640000) translate(-227.298925, -70.706779) " points="152.846623 49.9674344 301.751228 49.9674344 301.751228 91.4461242 152.846623 91.4461242"></polygon>
                <polygon id="Rectangle" fill="url(#linearGradient-3)" transform="translate(176.005319, 107.279437) rotate(-81.360000) translate(-176.005319, -107.279437) " points="171.678016 102.206297 180.332621 102.206297 180.332621 112.352578 171.678016 112.352578"></polygon>
                <polygon id="Rectangle" fill="#6C63FF" transform="translate(176.184907, 107.155658) rotate(8.640000) translate(-176.184907, -107.155658) " points="171.410822 103.574194 180.958992 103.574194 180.958992 110.737123 171.410822 110.737123"></polygon>
                <polygon id="Rectangle" fill="#FF5252" transform="translate(174.341900, 119.251707) rotate(8.640000) translate(-174.341900, -119.251707) " points="169.567816 115.670242 179.115985 115.670242 179.115985 122.833171 169.567816 122.833171"></polygon>
                <polygon id="Rectangle" fill="#FF9800" transform="translate(172.506059, 131.348297) rotate(8.640000) translate(-172.506059, -131.348297) " points="167.731974 127.766832 177.280143 127.766832 177.280143 134.929761 167.731974 134.929761"></polygon>
                <polygon id="Rectangle" fill="#6C63FF" opacity="0.4" transform="translate(234.596094, 116.029784) rotate(8.640000) translate(-234.596094, -116.029784) " points="196.102558 113.941797 273.08963 113.941797 273.08963 118.11777 196.102558 118.11777"></polygon>
                <polygon id="Rectangle" fill="#6C63FF" opacity="0.4" transform="translate(232.756649, 128.126373) rotate(8.640000) translate(-232.756649, -128.126373) " points="194.263114 126.038387 271.250185 126.038387 271.250185 130.21436 194.263114 130.21436"></polygon>
                <polygon id="Rectangle" fill="#6C63FF" opacity="0.4" transform="translate(230.920808, 140.222963) rotate(8.640000) translate(-230.920808, -140.222963) " points="192.427272 138.134977 269.414343 138.134977 269.414343 142.31095 192.427272 142.31095"></polygon>
                <polygon id="Rectangle" fill="#F5F5F5" transform="translate(92.746705, 26.673663) rotate(-12.600000) translate(-92.746705, -26.673663) " points="2.51830466 23.1498483 182.975106 23.1498483 182.975106 30.1974783 2.51830466 30.1974783"></polygon>
                <polygon id="Rectangle" fill="url(#linearGradient-4)" transform="translate(106.314720, 85.924284) rotate(-12.600000) translate(-106.314720, -85.924284) " points="12.2742573 19.2672516 200.355182 19.2672516 200.355182 152.581317 12.2742573 152.581317"></polygon>
                <polygon id="Rectangle" fill="#F5F5F5" transform="translate(106.773799, 89.436709) rotate(-12.600000) translate(-106.773799, -89.436709) " points="16.5453983 28.6527014 197.0022 28.6527014 197.0022 150.220717 16.5453983 150.220717"></polygon>
                <ellipse id="Oval" fill="#FF5252" transform="translate(8.990563, 45.394638) rotate(-12.600000) translate(-8.990563, -45.394638) " cx="8.99056287" cy="45.3946379" rx="1.86279383" ry="1.7222736"></ellipse>
                <ellipse id="Oval" fill="#FFFF00" transform="translate(13.994971, 44.279357) rotate(-12.600000) translate(-13.994971, -44.279357) " cx="13.994971" cy="44.279357" rx="1.86279383" ry="1.7222736"></ellipse>
                <ellipse id="Oval" fill="#69F0AE" transform="translate(18.995863, 43.161259) rotate(-12.600000) translate(-18.995863, -43.161259) " cx="18.9958629" cy="43.1612591" rx="1.86279383" ry="1.7222736"></ellipse>
                <polygon id="Rectangle" fill="url(#linearGradient-5)" transform="translate(99.138120, 62.559132) rotate(-12.600000) translate(-99.138120, -62.559132) " points="18.1228023 40.5352883 180.153438 40.5352883 180.153438 84.5829761 18.1228023 84.5829761"></polygon>
                <polygon id="Rectangle" fill="#6C63FF" transform="translate(99.326140, 62.665229) rotate(-12.600000) translate(-99.326140, -62.665229) " points="20.0583168 42.2573677 178.593962 42.2573677 178.593962 83.0730902 20.0583168 83.0730902"></polygon>
                <polygon id="Rectangle" fill="url(#linearGradient-6)" transform="translate(61.771606, 115.289909) rotate(-12.600000) translate(-61.771606, -115.289909) " points="56.3705847 111.032866 67.172627 111.032866 67.172627 119.546951 56.3705847 119.546951"></polygon>
                <polygon id="Rectangle" fill="#6C63FF" transform="translate(62.709495, 115.643971) rotate(-12.652557) translate(-62.709495, -115.643971) " points="57.6032249 112.104685 67.8157655 112.104685 67.8157655 119.183257 57.6032249 119.183257"></polygon>
                <polygon id="Rectangle" fill="#FF5252" transform="translate(64.521448, 126.861978) rotate(-12.600000) translate(-64.521448, -126.861978) " points="59.4374982 123.338163 69.605398 123.338163 69.605398 130.385793 59.4374982 130.385793"></polygon>
                <polygon id="Rectangle" fill="#FF9800" transform="translate(68.030096, 139.229030) rotate(-12.652557) translate(-68.030096, -139.229030) " points="62.9238253 135.689745 73.1363659 135.689745 73.1363659 142.768316 62.9238253 142.768316"></polygon>
                <polygon id="Rectangle" fill="#6C63FF" opacity="0.4" transform="translate(123.282595, 101.388786) rotate(-12.600000) translate(-123.282595, -101.388786) " points="82.2993286 99.3332268 164.26586 99.3332268 164.26586 103.444344 82.2993286 103.444344"></polygon>
                <polygon id="Rectangle" fill="#6C63FF" opacity="0.4" transform="translate(125.908552, 113.140017) rotate(-12.600000) translate(-125.908552, -113.140017) " points="84.9252858 111.084459 166.891818 111.084459 166.891818 115.195576 84.9252858 115.195576"></polygon>
                <polygon id="Rectangle" fill="#6C63FF" opacity="0.4" transform="translate(128.534509, 124.887646) rotate(-12.600000) translate(-128.534509, -124.887646) " points="87.5512429 122.832087 169.517775 122.832087 169.517775 126.943205 87.5512429 126.943205"></polygon>
                <rect id="Rectangle" fill="#F5F5F5" x="61.4084778" y="7" width="205" height="9"></rect>
                <rect id="Rectangle" fill="url(#linearGradient-7)" x="57.4084778" y="4" width="213" height="164"></rect>
                <rect id="Rectangle" fill="#FFFFFF" x="61.4084778" y="15" width="205" height="149"></rect>
                <circle id="Oval" fill="#FF5252" cx="66.4084778" cy="11" r="2"></circle>
                <circle id="Oval" fill="#FFFF00" cx="72.4084778" cy="11" r="2"></circle>
                <circle id="Oval" fill="#69F0AE" cx="77.4084778" cy="11" r="2"></circle>
                <rect id="Rectangle" fill="url(#linearGradient-8)" x="70.4084778" y="29" width="183" height="54"></rect>
                <rect id="Rectangle" fill="#6C63FF" x="71.4084778" y="31" width="180" height="50"></rect>
                <rect id="Rectangle" fill="url(#linearGradient-9)" x="101.408478" y="104" width="13" height="11"></rect>
                <rect id="Rectangle" fill="#6C63FF" x="101.408478" y="105" width="12" height="9"></rect>
                <rect id="Rectangle" fill="#FF5252" x="101.408478" y="119" width="12" height="9"></rect>
                <rect id="Rectangle" fill="#FF9800" x="101.408478" y="134" width="12" height="9"></rect>
                <rect id="Rectangle" fill="#6C63FF" opacity="0.4" x="132.408478" y="107" width="93" height="5"></rect>
                <rect id="Rectangle" fill="#6C63FF" opacity="0.4" x="132.408478" y="121" width="93" height="5"></rect>
                <rect id="Rectangle" fill="#6C63FF" opacity="0.4" x="132.408478" y="136" width="93" height="5"></rect>
                <rect id="Rectangle" fill="url(#linearGradient-10)" x="131.408478" y="132" width="67" height="55"></rect>
                <path d="M146.658821,122.767776 C146.658821,112.210648 155.053329,103.652404 165.408478,103.652404 C175.763627,103.652404 184.158134,112.210648 184.158134,122.767776 L184.158134,135 L189.40667,135 L189.40667,122.767776 C189.512538,113.955408 184.961803,105.765863 177.493225,101.328227 C170.024647,96.890591 160.792309,96.890591 153.323731,101.328227 C145.855153,105.765863 141.304418,113.955408 141.410286,122.767776 L141.410286,135 L146.658821,135 L146.658821,122.767776 Z" id="Path" fill="url(#linearGradient-11)"></path>
                <path d="M146.549103,122.333333 C146.549103,112.265643 154.768875,104.104167 164.908478,104.104167 C175.048081,104.104167 183.267853,112.265643 183.267853,122.333333 L183.267853,134 L188.408478,134 L188.408478,122.333333 C188.408478,109.446689 177.887169,99 164.908478,99 C151.929786,99 141.408478,109.446689 141.408478,122.333333 L141.408478,134 L146.549103,134 L146.549103,122.333333 Z" id="Path" fill="#FFFFFF"></path>
                <rect id="Rectangle" fill="#6C63FF" x="133.408478" y="133" width="63" height="51"></rect>
                <rect id="Rectangle" fill="#FFFFFF" x="133.408478" y="133" width="63" height="51"></rect>
                <rect id="Rectangle" fill="#6C63FF" x="133.408478" y="143" width="63" height="31"></rect>
                <path d="M169.408478,152.637203 C169.41793,150.55965 168.072734,148.731678 166.122063,148.171398 C164.171392,147.611118 162.096151,148.456658 161.05217,150.237084 C160.008189,152.01751 160.252844,154.293888 161.649872,155.798363 L161.649872,165.643529 C161.649872,167.497257 163.115109,169 164.922572,169 C166.730034,169 168.195272,167.497257 168.195272,165.643529 L168.195272,155.798363 C168.978686,154.942361 169.412789,153.811205 169.408478,152.637203 L169.408478,152.637203 Z" id="Path" fill="url(#linearGradient-12)"></path>
                <path d="M169.408478,153.965832 C169.411708,152.187564 168.21622,150.625421 166.485632,150.146563 C164.755044,149.667705 162.914176,150.38968 161.98491,151.911713 C161.055644,153.433747 161.266092,155.382215 162.499434,156.675506 L162.499434,165.121196 C162.499434,166.711116 163.801868,168 165.408502,168 C167.015136,168 168.317571,166.711116 168.317571,165.121196 L168.317571,156.675506 C169.016487,155.942624 169.406633,154.973544 169.408478,153.965832 L169.408478,153.965832 Z" id="Path" fill="#000000" opacity="0.2"></path>
            </g>
        </g>
    </g>
</svg>