<?xml version="1.0" encoding="UTF-8"?>
<svg width="16px" height="21px" viewBox="0 0 16 21" version="1.1" xmlns="http://www.w3.org/2000/svg" xmlns:xlink="http://www.w3.org/1999/xlink">
    <!-- Generator: Sketch 59 (86127) - https://sketch.com -->
    <title>Path</title>
    <desc>Created with Sketch.</desc>
    <g id="Symbols" stroke="none" stroke-width="1" fill="none" fill-rule="evenodd">
        <g id="Header" transform="translate(-804.000000, -25.000000)" fill="#3D5056" fill-rule="nonzero">
            <path d="M818.854054,25 L805.145946,25 C804.518919,25 804,25.5305263 804,26.1715789 L804,44.8284211 C804,45.4694737 804.518919,46 805.145946,46 L810.745946,46 L810.745946,41.3357895 C810.745946,41.1368421 810.897297,40.9821053 811.091892,40.9821053 L812.908108,40.9821053 C813.102703,40.9821053 813.254054,41.1368421 813.254054,41.3357895 L813.254054,46 L818.854054,46 C819.481081,46 820,45.4694737 820,44.8284211 L820,26.1715789 C819.978378,25.5305263 819.481081,25 818.854054,25 Z M808.92973,43.1926316 C808.92973,43.3915789 808.778378,43.5463158 808.583784,43.5463158 L806.767568,43.5463158 C806.572973,43.5463158 806.421622,43.3915789 806.421622,43.1926316 L806.421622,41.3357895 C806.421622,41.1368421 806.572973,40.9821053 806.767568,40.9821053 L808.583784,40.9821053 C808.778378,40.9821053 808.92973,41.1368421 808.92973,41.3357895 L808.92973,43.1926316 Z M808.92973,38.7715789 C808.92973,38.9705263 808.778378,39.1252632 808.583784,39.1252632 L806.767568,39.1252632 C806.572973,39.1252632 806.421622,38.9705263 806.421622,38.7715789 L806.421622,36.9147368 C806.421622,36.7157895 806.572973,36.5610526 806.767568,36.5610526 L808.583784,36.5610526 C808.778378,36.5610526 808.92973,36.7157895 808.92973,36.9147368 L808.92973,38.7715789 Z M808.92973,34.3284211 C808.92973,34.5273684 808.778378,34.6821053 808.583784,34.6821053 L806.767568,34.6821053 C806.572973,34.6821053 806.421622,34.5273684 806.421622,34.3284211 L806.421622,32.4715789 C806.421622,32.2726316 806.572973,32.1178947 806.767568,32.1178947 L808.583784,32.1178947 C808.778378,32.1178947 808.92973,32.2726316 808.92973,32.4715789 L808.92973,34.3284211 Z M808.92973,29.9073684 C808.92973,30.1063158 808.778378,30.2610526 808.583784,30.2610526 L806.767568,30.2610526 C806.572973,30.2610526 806.421622,30.1063158 806.421622,29.9073684 L806.421622,28.0505263 C806.421622,27.8515789 806.572973,27.6968421 806.767568,27.6968421 L808.583784,27.6968421 C808.778378,27.6968421 808.92973,27.8515789 808.92973,28.0505263 L808.92973,29.9073684 Z M813.254054,38.7715789 C813.254054,38.9705263 813.102703,39.1252632 812.908108,39.1252632 L811.091892,39.1252632 C810.897297,39.1252632 810.745946,38.9705263 810.745946,38.7715789 L810.745946,36.9147368 C810.745946,36.7157895 810.897297,36.5610526 811.091892,36.5610526 L812.908108,36.5610526 C813.102703,36.5610526 813.254054,36.7157895 813.254054,36.9147368 L813.254054,38.7715789 Z M813.254054,34.3284211 C813.254054,34.5273684 813.102703,34.6821053 812.908108,34.6821053 L811.091892,34.6821053 C810.897297,34.6821053 810.745946,34.5273684 810.745946,34.3284211 L810.745946,32.4715789 C810.745946,32.2726316 810.897297,32.1178947 811.091892,32.1178947 L812.908108,32.1178947 C813.102703,32.1178947 813.254054,32.2726316 813.254054,32.4715789 L813.254054,34.3284211 Z M813.254054,29.9073684 C813.254054,30.1063158 813.102703,30.2610526 812.908108,30.2610526 L811.091892,30.2610526 C810.897297,30.2610526 810.745946,30.1063158 810.745946,29.9073684 L810.745946,28.0505263 C810.745946,27.8515789 810.897297,27.6968421 811.091892,27.6968421 L812.908108,27.6968421 C813.102703,27.6968421 813.254054,27.8515789 813.254054,28.0505263 L813.254054,29.9073684 Z M817.6,43.1926316 C817.6,43.3915789 817.448649,43.5463158 817.254054,43.5463158 L815.437838,43.5463158 C815.243243,43.5463158 815.091892,43.3915789 815.091892,43.1926316 L815.091892,41.3357895 C815.091892,41.1368421 815.243243,40.9821053 815.437838,40.9821053 L817.254054,40.9821053 C817.448649,40.9821053 817.6,41.1368421 817.6,41.3357895 L817.6,43.1926316 Z M817.6,38.7715789 C817.6,38.9705263 817.448649,39.1252632 817.254054,39.1252632 L815.437838,39.1252632 C815.243243,39.1252632 815.091892,38.9705263 815.091892,38.7715789 L815.091892,36.9147368 C815.091892,36.7157895 815.243243,36.5610526 815.437838,36.5610526 L817.254054,36.5610526 C817.448649,36.5610526 817.6,36.7157895 817.6,36.9147368 L817.6,38.7715789 Z M817.6,34.3284211 C817.6,34.5273684 817.448649,34.6821053 817.254054,34.6821053 L815.437838,34.6821053 C815.243243,34.6821053 815.091892,34.5273684 815.091892,34.3284211 L815.091892,32.4715789 C815.091892,32.2726316 815.243243,32.1178947 815.437838,32.1178947 L817.254054,32.1178947 C817.448649,32.1178947 817.6,32.2726316 817.6,32.4715789 L817.6,34.3284211 Z M817.6,29.9073684 C817.6,30.1063158 817.448649,30.2610526 817.254054,30.2610526 L815.437838,30.2610526 C815.243243,30.2610526 815.091892,30.1063158 815.091892,29.9073684 L815.091892,28.0505263 C815.091892,27.8515789 815.243243,27.6968421 815.437838,27.6968421 L817.254054,27.6968421 C817.448649,27.6968421 817.6,27.8515789 817.6,28.0505263 L817.6,29.9073684 Z" id="Shape"></path>
        </g>
    </g>
</svg>