<?xml version="1.0" encoding="UTF-8"?>
<svg width="14px" height="14px" viewBox="0 0 14 14" version="1.1" xmlns="http://www.w3.org/2000/svg" xmlns:xlink="http://www.w3.org/1999/xlink">
    <!-- Generator: Sketch 59 (86127) - https://sketch.com -->
    <title>Shape</title>
    <desc>Created with Sketch.</desc>
    <g id="Page-1" stroke="none" stroke-width="1" fill="none" fill-rule="evenodd">
        <g id="Onboarding-02-/-Hover-01" transform="translate(-357.000000, -342.000000)" fill="#AEC7CE" fill-rule="nonzero">
            <path d="M364,342 C360.139358,342 357,345.13935 357,349 C357,352.789724 360.025493,355.880458 363.788306,355.993 C363.856902,356 363.929641,356 364,356 C364.070359,356 364.143098,356 364.211694,355.993 C367.97451,355.880458 371,352.789724 371,349 C371,345.13935 367.860645,342 364,342 Z M363.44,342.84 L363.44,345.08 L361.76,345.08 C361.840806,344.862126 361.9234,344.649288 362.015652,344.457789 C362.43548,343.586245 362.939859,343.048973 363.44,342.84 Z M364.56,342.84 C365.060141,343.048973 365.56452,343.586245 365.984348,344.457789 C366.0766,344.649288 366.159194,344.862126 366.24,345.08 L364.56,345.08 L364.56,342.84 Z M361.76,343.12 C361.573797,343.400189 361.402459,343.709261 361.251935,344.048421 C361.111002,344.365959 360.98446,344.714621 360.872581,345.08 L359.24,345.08 C359.895768,344.202109 360.765381,343.518508 361.76,343.12 Z M366.24,343.12 C367.234619,343.518508 368.104234,344.202109 368.76,345.08 L367.127419,345.08 C367.01554,344.714621 366.888998,344.365959 366.748065,344.048421 C366.597541,343.709261 366.426203,343.400189 366.24,343.12 Z M358.575354,345.92 L360.64,345.92 C360.460929,346.696209 360.349965,347.544033 360.321818,348.44 L357.84,348.44 C357.905917,347.53212 358.165182,346.676072 358.575354,345.92 Z M361.544075,345.92 L363.44,345.92 L363.44,348.44 L361.2,348.44 C361.231166,347.53157 361.355314,346.677057 361.544075,345.92 Z M364.56,345.92 L366.455925,345.92 C366.644686,346.677057 366.768834,347.53157 366.8,348.44 L364.56,348.44 L364.56,345.92 Z M367.36,345.92 L369.424646,345.92 C369.834818,346.676072 370.094083,347.53212 370.16,348.44 L367.678182,348.44 C367.650035,347.544033 367.539071,346.696209 367.36,345.92 Z M357.84,349.56 L360.321818,349.56 C360.349925,350.454692 360.461388,351.304711 360.64,352.08 L358.575354,352.08 C358.165818,351.323313 357.904924,350.468368 357.84,349.56 Z M361.2,349.56 L363.44,349.56 L363.44,352.08 L361.544075,352.08 C361.355089,351.323542 361.230879,350.469376 361.2,349.56 Z M364.56,349.56 L366.8,349.56 C366.769121,350.469376 366.644911,351.323542 366.455925,352.08 L364.56,352.08 L364.56,349.56 Z M367.678182,349.56 L370.16,349.56 C370.095076,350.468368 369.834182,351.323313 369.424646,352.08 L367.36,352.08 C367.538612,351.304711 367.650075,350.454692 367.678182,349.56 Z M359.24,352.92 L360.870588,352.92 C360.982326,353.286311 361.106941,353.629577 361.247914,353.947709 C361.398368,354.287241 361.573713,354.599829 361.76,354.88 C360.765204,354.482094 359.894253,353.800212 359.24,352.92 L359.24,352.92 Z M361.76,352.92 L363.44,352.92 L363.44,355.16 C362.939859,354.949678 362.43548,354.401597 362.015652,353.532896 C361.9234,353.342023 361.840806,353.136837 361.76,352.92 L361.76,352.92 Z M364.56,352.92 L366.24,352.92 C366.159194,353.136837 366.0766,353.342023 365.984348,353.532896 C365.56452,354.401597 365.060141,354.949678 364.56,355.16 L364.56,352.92 L364.56,352.92 Z M367.129412,352.92 L368.76,352.92 C368.105747,353.800212 367.234796,354.482094 366.24,354.88 C366.426287,354.599829 366.601632,354.287241 366.752086,353.947709 C366.893059,353.629577 367.017674,353.286311 367.129412,352.92 L367.129412,352.92 Z" id="Shape"></path>
        </g>
    </g>
</svg>