<?xml version="1.0" encoding="UTF-8"?>
<svg width="40px" height="28px" viewBox="0 0 40 28" version="1.1" xmlns="http://www.w3.org/2000/svg" xmlns:xlink="http://www.w3.org/1999/xlink">
    <title>Group 2</title>
    <defs>
        <circle id="path-1" cx="434" cy="367" r="45"></circle>
        <filter x="-2.2%" y="-2.2%" width="104.4%" height="104.4%" filterUnits="objectBoundingBox" id="filter-2">
            <feGaussianBlur stdDeviation="1.5" in="SourceAlpha" result="shadowBlurInner1"></feGaussianBlur>
            <feOffset dx="0" dy="1" in="shadowBlurInner1" result="shadowOffsetInner1"></feOffset>
            <feComposite in="shadowOffsetInner1" in2="SourceAlpha" operator="arithmetic" k2="-1" k3="1" result="shadowInnerInner1"></feComposite>
            <feColorMatrix values="0 0 0 0 0   0 0 0 0 0   0 0 0 0 0  0 0 0 0.5 0" type="matrix" in="shadowInnerInner1"></feColorMatrix>
        </filter>
    </defs>
    <g id="Page-1" stroke="none" stroke-width="1" fill="none" fill-rule="evenodd">
        <g id="Support-Page-/-Email-Hover" transform="translate(-414.000000, -353.000000)">
            <g id="Oval">
                <use fill="#2C5DE5" fill-rule="evenodd" xlink:href="#path-1"></use>
                <use fill="black" fill-opacity="1" filter="url(#filter-2)" xlink:href="#path-1"></use>
            </g>
            <g id="Group-2" transform="translate(414.000000, 353.000000)" fill="#FFFFFF" fill-rule="nonzero">
                <path d="M39.5482774,3.38275862 L29.2275877,13.8827586 C29.1909125,13.917882 29.1701729,13.9664602 29.1701729,14.0172414 C29.1701729,14.0680225 29.1909125,14.1166008 29.2275877,14.1517241 L36.468967,21.8517241 C36.8231627,22.2086024 36.9286622,22.7431511 36.736612,23.2078374 C36.5445617,23.6725237 36.0924583,23.9766206 35.5896567,23.9793103 C35.2587243,23.9786075 34.9414598,23.8472402 34.7068981,23.6137931 L27.5034498,15.9413793 C27.4269384,15.8660132 27.3040991,15.8660132 27.2275877,15.9413793 L25.4724153,17.7137931 C24.020649,19.198417 22.0316453,20.0350418 19.9551739,20.0344828 C17.8395111,20.0246644 15.8165999,19.1648029 14.3413808,17.6482759 L12.6551739,15.9241379 C12.5786625,15.8487719 12.4558233,15.8487719 12.3793119,15.9241379 L5.19310496,23.5793103 C4.95958909,23.8132558 4.64261567,23.9447211 4.31207048,23.9447211 C3.98152529,23.9447211 3.66455187,23.8132558 3.431036,23.5793103 C3.19623958,23.3462477 3.06418561,23.0291045 3.06418561,22.6982759 C3.06418561,22.3674473 3.19623958,22.0503041 3.431036,21.8172414 L10.6448291,14.1344828 C10.7110541,14.0570571 10.7110541,13.9429429 10.6448291,13.8655172 L0.324139445,3.36551724 C0.269886065,3.31095688 0.188044807,3.29458229 0.11697562,3.32406845 C0.0459064324,3.3535546 -9.59232693e-14,3.42305737 -9.59232693e-14,3.5 L-9.59232693e-14,24.5103448 C0.00567816476,26.2010263 1.37483726,27.5701854 3.06551876,27.5758621 L36.8137946,27.5758621 C38.5044761,27.5701854 39.8736352,26.2010263 39.8794934,24.5103448 L39.8794934,3.51724138 C39.8828087,3.43711429 39.8355246,3.36345004 39.7612189,3.33326334 C39.6869132,3.30307664 39.601652,3.3228944 39.5482774,3.38275862 L39.5482774,3.38275862 Z" id="Path"></path>
                <path d="M19.9448291,17.5413793 C21.3583138,17.5552429 22.7170061,16.9953421 23.7103463,15.9896552 L38.7413808,0.689655172 C38.2078049,0.247657868 37.5376848,0.00397784283 36.8448291,-1.03028697e-13 L3.07241531,-1.03028697e-13 C2.37925288,0.00225961919 1.70857089,0.24614398 1.17586358,0.689655172 L16.2103463,15.9896552 C17.1948169,16.9895875 18.5416236,17.5492024 19.9448291,17.5413793 L19.9448291,17.5413793 Z" id="Path"></path>
            </g>
        </g>
    </g>
</svg>