<?xml version="1.0" encoding="UTF-8"?>
<svg width="16px" height="19px" viewBox="0 0 16 19" version="1.1" xmlns="http://www.w3.org/2000/svg" xmlns:xlink="http://www.w3.org/1999/xlink">
    <!-- Generator: Sketch 59 (86127) - https://sketch.com -->
    <title>Group 7</title>
    <desc>Created with Sketch.</desc>
    <defs>
        <polygon id="path-1" points="3.73034936e-14 0.0117716319 15.9997 0.0117716319 15.9997 8 3.73034936e-14 8"></polygon>
        <polygon id="path-3" points="0.5477 0.474 9.4537 0.474 9.4537 9.9727 0.5477 9.9727"></polygon>
    </defs>
    <g id="Symbols" stroke="none" stroke-width="1" fill="none" fill-rule="evenodd">
        <g id="Header" transform="translate(-1024.000000, -27.000000)">
            <g id="Group-7" transform="translate(1024.000000, 26.000000)">
                <g id="Group-3" transform="translate(0.000000, 11.526300)">
                    <mask id="mask-2" fill="white">
                        <use xlink:href="#path-1"></use>
                    </mask>
                    <g id="Clip-2"></g>
                    <path d="M15.9997,5.089 L15.9997,6.84 C15.9997,7.189 15.7597,7.478 15.4357,7.52 C12.9527,7.839 10.5117,8 8.0007,8 C5.4867,8 3.0487,7.839 0.5647,7.52 C0.2407,7.478 -0.0003,7.189 -0.0003,6.84 L-0.0003,5.089 C-0.0003,2.396 1.8407,0.383 4.2677,0.019 C4.4167,-0.003 4.5507,0.025 4.6807,0.106 C5.7197,0.753 6.7727,1.09 8.0007,1.09 C9.2287,1.09 10.2807,0.753 11.3197,0.107 C11.4497,0.026 11.5837,-0.003 11.7327,0.02 C14.1597,0.383 15.9997,2.396 15.9997,5.089" id="Fill-1" fill="#ffffff" mask="url(#mask-2)"></path>
                </g>
                <g id="Group-6" transform="translate(3.000000, 0.526300)">
                    <mask id="mask-4" fill="white">
                        <use xlink:href="#path-3"></use>
                    </mask>
                    <g id="Clip-5"></g>
                    <path d="M5.0007,0.4737 C7.4567,0.4737 9.4537,2.6037 9.4537,5.2237 C9.4537,7.8437 7.4577,9.9727 5.0007,9.9727 C2.5427,9.9727 0.5477,7.8457 0.5477,5.2237 C0.5477,2.6037 2.5447,0.4737 5.0007,0.4737" id="Fill-4" fill="#ffffff" mask="url(#mask-4)"></path>
                </g>
            </g>
        </g>
    </g>
</svg>