<?xml version="1.0" encoding="UTF-8"?>
<svg width="20px" height="17px" viewBox="0 0 20 17" version="1.1" xmlns="http://www.w3.org/2000/svg" xmlns:xlink="http://www.w3.org/1999/xlink">
    <!-- Generator: Sketch 59 (86127) - https://sketch.com -->
    <title>Icon Color</title>
    <desc>Created with Sketch.</desc>
    <g id="Symbols" stroke="none" stroke-width="1" fill="none" fill-rule="evenodd">
        <g id="02-Icons-/-24x24-/-ic24-visibility-off" transform="translate(-2.000000, -4.000000)" fill="#1A1A1A">
            <path d="M5.63603897,5.63603897 L10.607235,10.6063804 C10.9673432,10.2584344 11.4585444,10.044221 12,10.044221 C13.1045695,10.044221 14,10.9356918 14,12.0353768 C14,12.5778684 13.7820879,13.069689 13.4286552,13.4288114 L18.363961,18.363961 C18.7544853,18.7544853 18.7544853,19.3876503 18.363961,19.7781746 C17.9734367,20.1686989 17.3402718,20.1686989 16.9497475,19.7781746 L16.0497581,18.8791793 C14.7648739,19.6232627 13.4151328,20 12,20 C8.41439253,20 5.24859557,17.5813685 2.4939115,12.8968674 L2.28282345,12.5320546 L2,12.0353768 L2.28282345,11.5386989 C3.12423043,10.0610698 4.0045657,8.79774129 4.92408291,7.75316824 L4.22182541,7.05025253 C3.83130112,6.65972824 3.83130112,6.02656326 4.22182541,5.63603897 C4.6123497,5.24551468 5.24551468,5.24551468 5.63603897,5.63603897 Z M4.54571643,11.6397716 L4.30531955,12.0353768 L4.51335888,12.3786431 C6.87517493,16.2091962 9.3741493,18.0088442 12,18.0088442 C12.8728303,18.0088442 13.7312862,17.8103298 14.574982,17.4050918 L10.7963795,13.6257335 C10.6452582,13.5121917 10.5108327,13.377794 10.397421,13.2268393 L6.33749051,9.16477509 C5.73182607,9.86613731 5.13451503,10.6899437 4.54571643,11.6397716 Z M12,4.07075354 C15.5856075,4.07075354 18.7514044,6.48938502 21.5060885,11.1738861 L21.7171765,11.5386989 L22,12.0353768 L21.5112563,12.8880758 C20.7424542,14.1965038 19.9416188,15.3283831 19.1085608,16.2803913 L17.6965317,14.8682658 C18.3734413,14.0788057 19.039593,13.1361749 19.6947584,12.0355076 C17.2717689,7.96901665 14.7031106,6.06190935 12,6.06190935 C11.1437144,6.06190935 10.3009209,6.25328416 9.47197592,6.64405316 L7.99437852,5.16617356 C9.26602647,4.43891768 10.6010615,4.07075354 12,4.07075354 Z" id="Icon-Color"></path>
        </g>
    </g>
</svg>