<?xml version="1.0" encoding="UTF-8"?>
<svg width="45px" height="58px" viewBox="0 0 45 58" version="1.1" xmlns="http://www.w3.org/2000/svg" xmlns:xlink="http://www.w3.org/1999/xlink">
    <title>MFA Lock icon</title>
    <g id="Page-1" stroke="none" stroke-width="1" fill="none" fill-rule="evenodd">
        <g id="Login-page-/-Reset-Password-/-Enter-MFA-code" transform="translate(-274.000000, -78.000000)" fill-rule="nonzero">
            <g id="MFA-Lock-icon" transform="translate(274.000000, 78.000000)">
                <path d="M39.3771828,20.075886 L35.9970065,20.075886 L35.9970065,13.5655633 C35.9970065,6.21918853 30.0898054,0.11205069 22.6808581,0.000741980833 C19.0724176,-0.03684962 15.5981181,1.35531577 13.029154,3.8682176 C10.4601898,6.38111943 9.0091071,9.80684997 8.99800432,13.3849959 L8.99800432,20.075886 L5.62531182,20.075886 C2.5225177,20.0853922 0.00958716144,22.5770998 0,25.6536891 L0,52.4221969 C0.00958716144,55.4987863 2.5225177,57.9904938 5.62531182,58 L39.3771828,58 C42.4795694,57.990487 44.991782,55.4983861 45,52.4221969 L45,25.6536891 C44.991782,22.5774999 42.4795694,20.0853991 39.3771828,20.075886 L39.3771828,20.075886 Z M24.4723059,37.4350145 L24.4723059,46.9950821 C24.4790873,48.0455288 23.6592972,48.9212732 22.5974904,48.997862 C22.0576764,49.0228036 21.5310379,48.8286594 21.1400468,48.4605783 C20.7490558,48.0924972 20.5277858,47.5825564 20.5276941,47.0493446 L20.5276941,37.4300816 C18.6445714,36.5239444 17.6444877,34.4553045 18.1157449,32.4410447 C18.5870021,30.4267849 20.404877,29 22.5,29 C24.595123,29 26.4129979,30.4267849 26.8842551,32.4410447 C27.3555123,34.4553045 26.3554286,36.5239444 24.4723059,37.4300816 L24.4723059,37.4350145 Z M32,20 L13,20 L13,13.3802386 C13,8.19967587 17.2516311,4 22.4962837,4 C27.7409364,4 31.9925675,8.19967587 31.9925675,13.3802386 L32,20 Z" id="Shape" fill="#3F3D56"></path>
                <path d="M35.6207917,20.075886 L35.6207917,13.5655633 C35.6207917,6.21918853 29.7135906,0.11205069 22.3046433,0.000608552711 C22.2774885,0.000608552711 22.2774885,19.333739 22.3046433,58 L39.0009679,58 C42.1033545,57.990487 44.6155672,55.4983861 44.6237852,52.4221969 L44.6237852,25.6536891 C44.6155672,22.5774999 42.1033545,20.0853991 39.0009679,20.075886 L35.6207917,20.075886 Z M24.0960911,37.4350145 L24.0960911,46.9950821 C24.1028725,48.0455288 23.2855547,48.9212732 22.2237479,48.9980241 C21.6839339,49.0228036 22.3152723,29 22.1262575,29 C24.2213805,29 26.0367831,30.4267849 26.5080403,32.4410447 C26.9792975,34.4553045 25.9792138,36.5239444 24.0960911,37.4300816 L24.0960911,37.4350145 Z M31.6237852,20 L22.2898188,20 C22.254964,9.33333333 22.1983807,4 22.1200689,4 C27.3647216,4 31.6163526,8.19967587 31.6163526,13.3802386 L31.6237852,20 Z" id="Shape-Copy" fill="#6C63FF" opacity="0.201729911"></path>
            </g>
        </g>
    </g>
</svg> 