<?xml version="1.0" encoding="UTF-8"?>
<svg width="246px" height="176px" viewBox="0 0 246 176" version="1.1" xmlns="http://www.w3.org/2000/svg" xmlns:xlink="http://www.w3.org/1999/xlink">
    <!-- Generator: Sketch 59 (86127) - https://sketch.com -->
    <title>undraw_data_processing_yrrv</title>
    <desc>Created with Sketch.</desc>
    <g id="REZILIO-PLANS-v3" stroke="none" stroke-width="1" fill="none" fill-rule="evenodd">
        <g id="Login-process-/-Success-Log" transform="translate(-151.000000, -155.000000)" fill-rule="nonzero">
            <g id="undraw_data_processing_yrrv" transform="translate(151.000000, 155.000000)">
                <circle id="Oval" fill="#E6E6E6" cx="11" cy="32" r="4"></circle>
                <circle id="Oval" fill="#E6E6E6" cx="23" cy="32" r="4"></circle>
                <circle id="Oval" fill="#E6E6E6" cx="35" cy="32" r="4"></circle>
                <circle id="Oval" fill="#E6E6E6" cx="47" cy="32" r="4"></circle>
                <circle id="Oval" fill="#E6E6E6" cx="58" cy="32" r="4"></circle>
                <circle id="Oval" fill="#E6E6E6" cx="70" cy="32" r="4"></circle>
                <circle id="Oval" fill="#E6E6E6" cx="82" cy="32" r="4"></circle>
                <path d="M91.4024581,36 L2.59754187,36 C1.71567348,35.9990245 1.00103633,35.3263242 1,34.4962064 L1,28.5037936 C1.00103475,27.6736751 1.71567282,27.000974 2.59754187,27 L91.4024581,27 C92.2843265,27.0009755 92.9989637,27.6736758 93,28.5037936 L93,34.4962064 C92.9989621,35.3263236 92.2843259,35.999023 91.4024581,36 L91.4024581,36 Z M2.59754187,27.6015169 C2.06840225,27.6020662 1.63901617,28.0057108 1.63901617,28.5037991 L1.63901617,34.4962064 C1.63901617,34.9942935 2.06840337,35.3979365 2.59754187,35.3984804 L91.4024581,35.3984804 C91.9315962,35.3979365 92.3609809,34.9942931 92.3609809,34.4962064 L92.3609809,28.5037936 C92.3609809,28.0057059 91.9315973,27.6020608 91.4024581,27.6015169 L2.59754187,27.6015169 Z" id="Shape" fill="#E6E6E6"></path>
                <path d="M21.176568,0.895996334 C21.6798484,0.896561821 22.0876943,1.29737569 22.0882697,1.79197861 L22.0882697,21.2080073 C22.0876943,21.7026103 21.6798484,22.1034241 21.176568,22.1039896 L1.82343203,22.1039896 C1.32015161,22.1034241 0.912305727,21.7026103 0.911730319,21.2080073 L0.911730319,1.79199267 C0.912305727,1.29738974 1.32015161,0.896575878 1.82343203,0.895996334 L21.176568,0.895996334 M21.176568,0 L1.82343203,0 C0.816378328,0 0,0.802316502 0,1.79200672 L0,21.2080073 C0,22.1976976 0.816378328,23 1.82343203,23 L21.176568,23 C22.183621,23 23,22.1976969 23,21.2080073 L23,1.79199267 C23,0.802303089 22.183621,0 21.176568,0 L21.176568,0 Z" id="Shape" fill="#E6E6E6"></path>
                <path d="M18.5356914,6 L5.46430856,6 C5.29876724,6.00109114 5.14536425,5.90603492 5.06229896,5.75088513 C4.97923368,5.59573535 4.97923368,5.40426465 5.06229896,5.24911487 C5.14536425,5.09396508 5.29876724,4.99890886 5.46430856,5 L18.5356914,5 C18.7012328,4.99890886 18.8546358,5.09396508 18.937701,5.24911487 C19.0207663,5.40426465 19.0207663,5.59573535 18.937701,5.75088513 C18.8546358,5.90603492 18.7012328,6.00109114 18.5356914,6 L18.5356914,6 Z" id="Path" fill="#6C63FF"></path>
                <path d="M18.5356914,9 L5.46430856,9 C5.29876724,9.00109114 5.14536425,8.90603492 5.06229896,8.75088513 C4.97923368,8.59573535 4.97923368,8.40426465 5.06229896,8.24911487 C5.14536425,8.09396508 5.29876724,7.99890886 5.46430856,8 L18.5356914,8 C18.7012328,7.99890886 18.8546358,8.09396508 18.937701,8.24911487 C19.0207663,8.40426465 19.0207663,8.59573535 18.937701,8.75088513 C18.8546358,8.90603492 18.7012328,9.00109114 18.5356914,9 Z" id="Path" fill="#6C63FF"></path>
                <path d="M18.5356914,13 L5.46430856,13 C5.29876724,13.0010911 5.14536425,12.9060349 5.06229896,12.7508851 C4.97923368,12.5957353 4.97923368,12.4042647 5.06229896,12.2491149 C5.14536425,12.0939651 5.29876724,11.9989089 5.46430856,12 L18.5356914,12 C18.7012328,11.9989089 18.8546358,12.0939651 18.937701,12.2491149 C19.0207663,12.4042647 19.0207663,12.5957353 18.937701,12.7508851 C18.8546358,12.9060349 18.7012328,13.0010911 18.5356914,13 Z" id="Path" fill="#6C63FF"></path>
                <path d="M18.5356914,16 L5.46430856,16 C5.29876724,16.0010911 5.14536425,15.9060349 5.06229896,15.7508851 C4.97923368,15.5957353 4.97923368,15.4042647 5.06229896,15.2491149 C5.14536425,15.0939651 5.29876724,14.9989089 5.46430856,15 L18.5356914,15 C18.7012328,14.9989089 18.8546358,15.0939651 18.937701,15.2491149 C19.0207663,15.4042647 19.0207663,15.5957353 18.937701,15.7508851 C18.8546358,15.9060349 18.7012328,16.0010911 18.5356914,16 Z" id="Path" fill="#6C63FF"></path>
                <path d="M18.5383364,19 L5.46166364,19 C5.20669385,19 5,18.7761424 5,18.5 C5,18.2238576 5.20669385,18 5.46166364,18 L18.5383364,18 C18.7933061,18 19,18.2238576 19,18.5 C19,18.7761424 18.7933061,19 18.5383364,19 L18.5383364,19 Z" id="Path" fill="#6C63FF"></path>
                <path d="M87.176568,0.895996334 C87.6798484,0.896561821 88.0876943,1.29737569 88.0882697,1.79197861 L88.0882697,21.2080073 C88.0876943,21.7026103 87.6798484,22.1034241 87.176568,22.1039896 L67.823432,22.1039896 C67.3201516,22.1034241 66.9123057,21.7026103 66.9117303,21.2080073 L66.9117303,1.79199267 C66.9123057,1.29738974 67.3201516,0.896575878 67.823432,0.895996334 L87.176568,0.895996334 M87.176568,0 L67.823432,0 C66.8163783,0 66,0.802316502 66,1.79200672 L66,21.2080073 C66,22.1976976 66.8163783,23 67.823432,23 L87.176568,23 C88.1836217,23 89,22.1976976 89,21.2080073 L89,1.79199267 C89,0.802302446 88.1836217,0 87.176568,0 L87.176568,0 Z" id="Shape" fill="#E6E6E6"></path>
                <path d="M84.5411577,6 L71.4644964,6 C71.2988881,6.00109114 71.145423,5.90603492 71.0623242,5.75088513 C70.9792253,5.59573535 70.9792253,5.40426465 71.0623242,5.24911487 C71.145423,5.09396508 71.2988881,4.99890886 71.4644964,5 L84.5411693,5 C84.7950286,5.00169655 85,5.22505505 85,5.5 C85,5.77494495 84.7950286,5.99830345 84.5411693,6 L84.5411577,6 Z" id="Path" fill="#6C63FF"></path>
                <path d="M84.5411577,9 L71.4644964,9 C71.2988881,9.00109114 71.145423,8.90603492 71.0623242,8.75088513 C70.9792253,8.59573535 70.9792253,8.40426465 71.0623242,8.24911487 C71.145423,8.09396508 71.2988881,7.99890886 71.4644964,8 L84.5411693,8 C84.7950286,8.00169655 85,8.22505505 85,8.5 C85,8.77494495 84.7950286,8.99830345 84.5411693,9 L84.5411577,9 Z" id="Path" fill="#6C63FF"></path>
                <path d="M84.5411577,13 L71.4644964,13 C71.2988881,13.0010911 71.145423,12.9060349 71.0623242,12.7508851 C70.9792253,12.5957353 70.9792253,12.4042647 71.0623242,12.2491149 C71.145423,12.0939651 71.2988881,11.9989089 71.4644964,12 L84.5411693,12 C84.7950286,12.0016965 85,12.225055 85,12.5 C85,12.774945 84.7950286,12.9983035 84.5411693,13 L84.5411577,13 Z" id="Path" fill="#6C63FF"></path>
                <path d="M84.5411577,16 L71.4644964,16 C71.2988881,16.0010911 71.145423,15.9060349 71.0623242,15.7508851 C70.9792253,15.5957353 70.9792253,15.4042647 71.0623242,15.2491149 C71.145423,15.0939651 71.2988881,14.9989089 71.4644964,15 L84.5411693,15 C84.7950286,15.0016965 85,15.225055 85,15.5 C85,15.774945 84.7950286,15.9983035 84.5411693,16 L84.5411577,16 Z" id="Path" fill="#6C63FF"></path>
                <path d="M84.5383249,19 L71.4616635,19 C71.2066938,19 71,18.7761424 71,18.5 C71,18.2238576 71.2066938,18 71.4616635,18 L84.5383365,18 C84.7933062,18 85,18.2238576 85,18.5 C85,18.7761424 84.7933062,19 84.5383365,19 L84.5383249,19 Z" id="Path" fill="#6C63FF"></path>
                <path d="M153.176568,39.8959955 C153.679848,39.8965609 154.087694,40.2973744 154.08827,40.7919769 L154.08827,60.2079669 C154.087693,60.7025687 153.679848,61.1033813 153.176568,61.1039483 L133.823432,61.1039483 C133.320152,61.1033813 132.912307,60.7025687 132.91173,60.2079669 L132.91173,40.7919909 C132.912306,40.2973885 133.320152,39.896575 133.823432,39.8959955 L153.176568,39.8959955 M153.176568,39 L133.823432,39 C132.816378,39 132,39.8023298 132,40.792019 L132,60.2080091 C132,61.1976983 132.816378,62 133.823432,62 L153.176568,62 C154.183621,62 155,61.1976977 155,60.2080091 L155,40.7919909 C155,39.8023017 154.183622,39 153.176568,39 L153.176568,39 Z" id="Shape" fill="#6C63FF"></path>
                <path d="M150.541169,45 L137.464496,45 C137.298888,45.0010911 137.145423,44.9060349 137.062324,44.7508851 C136.979225,44.5957353 136.979225,44.4042647 137.062324,44.2491149 C137.145423,44.0939651 137.298888,43.9989089 137.464496,44 L150.541169,44 C150.795029,44.0016965 151,44.225055 151,44.5 C151,44.774945 150.795029,44.9983035 150.541169,45 Z" id="Path" fill="#6C63FF"></path>
                <path d="M150.538336,48 L137.461664,48 C137.206694,48 137,47.7761424 137,47.5 C137,47.2238576 137.206694,47 137.461664,47 L150.538336,47 C150.793306,47 151,47.2238576 151,47.5 C151,47.7761424 150.793306,48 150.538336,48 Z" id="Path" fill="#6C63FF"></path>
                <path d="M150.541152,51 L137.463991,51 C137.2985,51.0008917 137.145225,50.9057903 137.062239,50.7507228 C136.979254,50.5956553 136.979254,50.4043447 137.062239,50.2492772 C137.145225,50.0942097 137.2985,49.9991083 137.463991,50 L150.541152,50 C150.795021,50.0016934 151,50.2250533 151,50.5 C151,50.7749467 150.795021,50.9983066 150.541152,51 L150.541152,51 Z" id="Path" fill="#6C63FF"></path>
                <path d="M150.541169,54 L137.464496,54 C137.298888,54.0010911 137.145423,53.9060349 137.062324,53.7508851 C136.979225,53.5957353 136.979225,53.4042647 137.062324,53.2491149 C137.145423,53.0939651 137.298888,52.9989089 137.464496,53 L150.541169,53 C150.795029,53.0016965 151,53.225055 151,53.5 C151,53.774945 150.795029,53.9983035 150.541169,54 Z" id="Path" fill="#6C63FF"></path>
                <path d="M150.541169,58 L137.464496,58 C137.298888,58.0010911 137.145423,57.9060349 137.062324,57.7508851 C136.979225,57.5957353 136.979225,57.4042647 137.062324,57.2491149 C137.145423,57.0939651 137.298888,56.9989089 137.464496,57 L150.541169,57 C150.795029,57.0016965 151,57.225055 151,57.5 C151,57.774945 150.795029,57.9983035 150.541169,58 Z" id="Path" fill="#6C63FF"></path>
                <path d="M54.9665237,24 L35.0332523,24 C33.9108656,23.9986339 33.0013195,23.0558478 33,21.8924408 L33,7.10779133 C33.0012214,5.9443046 33.9107887,5.00139257 35.0332523,5 L54.9665237,5 C56.0890669,5.0012843 56.9987594,5.94422223 57,7.10779133 L57,21.8924408 C56.9986549,23.0559274 56.0889875,23.9987356 54.9665237,24 L54.9665237,24 Z M35.0332523,5.94852931 C34.4159364,5.9493216 33.9157277,6.46791402 33.9150854,7.10779133 L33.9150854,21.8924408 C33.9157469,22.5322723 34.4159805,23.0507867 35.0332523,23.0514707 L54.9665237,23.0514707 C55.5838387,23.0508049 56.0841458,22.5323168 56.0849117,21.8924408 L56.0849117,7.10779133 C56.084165,6.46786949 55.5838828,5.94930335 54.9665237,5.94852931 L35.0332523,5.94852931 Z" id="Shape" fill="#E6E6E6"></path>
                <path d="M51.5355039,12 L38.4588304,12 C38.2049712,11.9983035 38,11.774945 38,11.5 C38,11.225055 38.2049712,11.0016965 38.4588304,11 L51.5355039,11 C51.7011121,10.9989089 51.854577,11.0939651 51.9376759,11.2491149 C52.0207747,11.4042647 52.0207747,11.5957353 51.9376759,11.7508851 C51.854577,11.9060349 51.7011121,12.0010911 51.5355039,12 L51.5355039,12 Z" id="Path" fill="#6C63FF"></path>
                <path d="M51.5355039,15 L38.4588304,15 C38.2049712,14.9983035 38,14.774945 38,14.5 C38,14.225055 38.2049712,14.0016965 38.4588304,14 L51.5355039,14 C51.7011121,13.9989089 51.854577,14.0939651 51.9376759,14.2491149 C52.0207747,14.4042647 52.0207747,14.5957353 51.9376759,14.7508851 C51.854577,14.9060349 51.7011121,15.0010911 51.5355039,15 L51.5355039,15 Z" id="Path" fill="#6C63FF"></path>
                <path d="M51.5355039,18 L38.4588304,18 C38.2049712,17.9983035 38,17.774945 38,17.5 C38,17.225055 38.2049712,17.0016965 38.4588304,17 L51.5355039,17 C51.7011121,16.9989089 51.854577,17.0939651 51.9376759,17.2491149 C52.0207747,17.4042647 52.0207747,17.5957353 51.9376759,17.7508851 C51.854577,17.9060349 51.7011121,18.0010911 51.5355039,18 Z" id="Path" fill="#6C63FF"></path>
                <path d="M121.471982,30.9206348 L102.45697,25.4443222 C101.386653,25.1347178 100.770625,24.0231771 101.079867,22.9595213 L105.025698,9.44711955 C105.337382,8.3840886 106.456698,7.77220186 107.527825,8.07930385 L126.542837,13.5556164 C127.613323,13.8651906 128.229449,14.9769078 127.920091,16.0406892 L123.97426,29.5530938 C123.662458,30.6160899 122.543075,31.2278536 121.471982,30.9206348 L121.471982,30.9206348 Z M107.274675,8.9462119 C106.685586,8.77734011 106.070016,9.1138841 105.89863,9.69852214 L101.952805,23.2109268 C101.782672,23.7958816 102.121477,24.4072075 102.710131,24.577417 L121.72514,30.0537267 C122.314196,30.2227136 122.929834,29.8862921 123.101339,29.3016883 L127.047171,15.7892866 C127.217243,15.2042257 126.878407,14.5928402 126.289696,14.4225216 L107.274675,8.9462119 Z" id="Shape" fill="#E6E6E6"></path>
                <path d="M121.386955,18.9838891 L108.345093,15.7928371 C108.091303,15.7302814 107.945453,15.5061766 108.019094,15.2919274 C108.092735,15.0776782 108.358063,14.9541791 108.612143,15.0158873 L121.653999,18.2069419 C121.908289,18.2691615 122.05465,18.4935261 121.980905,18.7080742 C121.90716,18.9226222 121.641235,19.0461088 121.386945,18.9838891 L121.386955,18.9838891 Z" id="Path" fill="#6C63FF"></path>
                <path d="M120.387846,21.9841123 L107.345891,18.7929807 C107.181393,18.7527311 107.054841,18.6414945 107.013905,18.5011726 C106.97297,18.3608508 107.02387,18.2127619 107.147432,18.1126896 C107.270994,18.0126174 107.448446,17.9757651 107.612944,18.0160146 L120.654905,21.2071437 C120.908696,21.2697009 121.054548,21.4938111 120.980906,21.7080655 C120.907264,21.9223199 120.641935,22.045822 120.387852,21.9841123 L120.387846,21.9841123 Z" id="Path" fill="#6C63FF"></path>
                <path d="M119.387056,24.9839854 L106.345095,21.7928563 C106.091304,21.7302991 105.945452,21.5061889 106.019094,21.2919345 C106.092736,21.0776801 106.358065,20.954178 106.612148,21.0158877 L119.654109,24.2070193 C119.818607,24.2472689 119.945159,24.3585055 119.986095,24.4988274 C120.02703,24.6391492 119.97613,24.7872381 119.852568,24.8873104 C119.729006,24.9873826 119.551554,25.0242349 119.387056,24.9839854 Z" id="Path" fill="#6C63FF"></path>
                <rect id="Rectangle" fill="#E6E6E6" x="45" y="175" width="201" height="1"></rect>
                <polygon id="Path" fill="#E6E6E6" points="162 173 129 173 130.118678 159 160.881322 159"></polygon>
                <rect id="Rectangle" fill="#E6E6E6" x="127" y="172" width="36" height="3"></rect>
                <path d="M207.690522,66 L83.3094726,66 C81.4817014,66 80,67.4975837 80,69.3449467 L80,69.3449467 L80,146 L211,146 L211,69.3449467 C211,68.4578124 210.651326,67.6070126 210.030681,66.9797134 C209.410035,66.3524142 208.568259,66 207.690533,66 L207.690522,66 Z" id="Path" fill="#3F3D56"></path>
                <path d="M80,146 L80,158.631582 C80,159.524943 80.3486757,160.381713 80.9693223,161.013414 C81.5899689,161.645115 82.4317462,162 83.3094726,162 L207.690522,162 C209.518293,162 211,160.49191 211,158.631582 L211,158.631582 L211,146 L80,146 Z" id="Path" fill="#E6E6E6"></path>
                <rect id="Rectangle" fill="#E6E6E6" x="87" y="73" width="118" height="67"></rect>
                <circle id="Oval" fill="#3F3D56" cx="145.5" cy="153.5" r="3.5"></circle>
                <circle id="Oval" fill="#FFFFFF" cx="90.5" cy="75.5" r="1"></circle>
                <circle id="Oval" fill="#FFFFFF" cx="92.5" cy="75.5" r="1"></circle>
                <circle id="Oval" fill="#FFFFFF" cx="94.5" cy="75.5" r="1"></circle>
                <rect id="Rectangle" fill="#FFFFFF" x="90" y="77" width="112" height="56"></rect>
                <path d="M96.3975201,86 C96.1780622,86 96,86.1790108 96,86.399638 L96,106.600365 C96,106.820991 96.1780633,107 96.3975201,107 L119.60248,107 C119.821937,107 120,106.820991 120,106.600365 L120,86.399638 C120,86.1790108 119.821938,86 119.60248,86 L96.3975201,86 Z" id="Path" fill="#E6E6E6"></path>
                <path d="M133.39889,86 C133.178706,86 133,86.1795181 133,86.4008783 L133,106.599125 C133,106.820484 133.178707,107 133.39889,107 L156.601394,107 C156.82148,106.999727 157,106.820386 157,106.599125 L157,86.4008783 C157,86.1796153 156.821481,86.0002726 156.601394,86 L133.39889,86 Z" id="Path" fill="#E6E6E6"></path>
                <path d="M170.394644,86 C170.176745,86.0002698 170,86.1778225 170,86.3968769 L170,106.603126 C170,106.82218 170.176745,106.999732 170.394644,107 L193.605356,107 C193.823255,106.999732 194,106.82218 194,106.603126 L194,86.3968769 C194,86.1778225 193.823255,86.0002698 193.605356,86 L170.394644,86 Z" id="Path" fill="#E6E6E6"></path>
                <path d="M96.8043138,117 C96.35986,117.001033 96,117.448446 96,118 C96,118.551554 96.35986,118.998967 96.8043138,119 L118.195686,119 C118.64014,118.998967 119,118.551554 119,118 C119,117.448446 118.64014,117.001033 118.195686,117 L96.8043138,117 Z" id="Path" fill="#E6E6E6"></path>
                <path d="M96.858763,120 C96.3842213,120.001033 96,120.448446 96,121 C96,121.551554 96.3842213,121.998967 96.858763,122 L107.141237,122 C107.615779,121.998967 108,121.551554 108,121 C108,120.448446 107.615779,120.001033 107.141237,120 L96.858763,120 Z" id="Path" fill="#6C63FF"></path>
                <path d="M134.804314,117 C134.35986,117.001033 134,117.448446 134,118 C134,118.551554 134.35986,118.998967 134.804314,119 L156.195686,119 C156.64014,118.998967 157,118.551554 157,118 C157,117.448446 156.64014,117.001033 156.195686,117 L134.804314,117 Z" id="Path" fill="#E6E6E6"></path>
                <path d="M134.858752,120 C134.384216,120.001033 134,120.448446 134,121 C134,121.551554 134.384216,121.998967 134.858752,122 L145.141248,122 C145.615784,121.998967 146,121.551554 146,121 C146,120.448446 145.615784,120.001033 145.141248,120 L134.858752,120 Z" id="Path" fill="#6C63FF"></path>
                <path d="M170.804314,117 C170.35986,117.001033 170,117.448446 170,118 C170,118.551554 170.35986,118.998967 170.804314,119 L192.195686,119 C192.64014,118.998967 193,118.551554 193,118 C193,117.448446 192.64014,117.001033 192.195686,117 L170.804314,117 Z" id="Path" fill="#E6E6E6"></path>
                <path d="M96.8043138,113 C96.35986,113.001033 96,113.448446 96,114 C96,114.551554 96.35986,114.998967 96.8043138,115 L118.195686,115 C118.64014,114.998967 119,114.551554 119,114 C119,113.448446 118.64014,113.001033 118.195686,113 L96.8043138,113 Z" id="Path" fill="#E6E6E6"></path>
                <path d="M134.804314,113 C134.35986,113.001033 134,113.448446 134,114 C134,114.551554 134.35986,114.998967 134.804314,115 L156.195686,115 C156.64014,114.998967 157,114.551554 157,114 C157,113.448446 156.64014,113.001033 156.195686,113 L134.804314,113 Z" id="Path" fill="#E6E6E6"></path>
                <path d="M170.804314,113 C170.35986,113.001033 170,113.448446 170,114 C170,114.551554 170.35986,114.998967 170.804314,115 L192.195686,115 C192.64014,114.998967 193,114.551554 193,114 C193,113.448446 192.64014,113.001033 192.195686,113 L170.804314,113 Z" id="Path" fill="#E6E6E6"></path>
                <path d="M170.858772,120 C170.384226,120.001033 170,120.448446 170,121 C170,121.551554 170.384226,121.998967 170.858772,122 L181.141228,122 C181.615774,121.998967 182,121.551554 182,121 C182,120.448446 181.615774,120.001033 181.141228,120 L170.858772,120 Z" id="Path" fill="#6C63FF"></path>
            </g>
        </g>
    </g>
</svg>