<?xml version="1.0" encoding="UTF-8"?>
<svg width="175px" height="39px" viewBox="0 0 175 39" version="1.1" xmlns="http://www.w3.org/2000/svg" xmlns:xlink="http://www.w3.org/1999/xlink">
    <!-- Generator: Sketch 59 (86127) - https://sketch.com -->
    <title>Group 16</title>
    <desc>Created with Sketch.</desc>
    <defs>
        <polygon id="path-1" points="0 6.11764706e-05 24.9041159 6.11764706e-05 24.9041159 26 0 26"></polygon>
        <polygon id="path-3" points="0.301919444 6.11764706e-05 21.9936139 6.11764706e-05 21.9936139 26 0.301919444 26"></polygon>
        <polygon id="path-5" points="0.297235443 6.11764706e-05 23.9904 6.11764706e-05 23.9904 26 0.297235443 26"></polygon>
        <polygon id="path-7" points="0 38.1091954 175 38.1091954 175 0.109195402 0 0.109195402"></polygon>
    </defs>
    <g id="REZILIO-PLANS-v3" stroke="none" stroke-width="1" fill="none" fill-rule="evenodd">
        <g id="Mobile-/-Login-page-/-Login-page-for-Errors" transform="translate(-119.000000, -119.000000)">
            <g id="Group-16" transform="translate(119.000000, 119.000000)">
                <g id="Group-3" transform="translate(0.000000, 12.109195)">
                    <mask id="mask-2" fill="white">
                        <use xlink:href="#path-1"></use>
                    </mask>
                    <g id="Clip-2"></g>
                    <path d="M11.1455793,19.5765318 L8.84039634,19.5765318 L8.84039634,26.0000612 L-0.000152439024,26.0000612 L-0.000152439024,6.11764706e-05 L12.5178354,6.11764706e-05 C14.9153963,6.11764706e-05 17.0050305,0.40872 18.7852134,1.20248471 C20.5650915,1.99655529 21.9373476,3.14300235 22.9019817,4.63203765 C23.8657012,6.12046118 24.3480183,7.86032 24.3480183,9.84457882 C24.3480183,11.7049553 23.9272866,13.3319435 23.0870427,14.7206494 C22.246189,16.1105788 21.0352134,17.17872 19.4522866,17.9969553 L24.9041159,26.0000612 L15.5583841,26.0000612 L11.1455793,19.5765318 Z M14.6315549,7.56239059 C14.0376524,7.02893176 13.1477134,6.72947294 11.9614329,6.72947294 L8.84039634,6.72947294 L8.84039634,12.84712 L11.9614329,12.84712 C13.1477134,12.84712 14.0376524,12.6066965 14.6315549,12.0729318 C15.2251524,11.5397788 15.5214939,10.7851671 15.5214939,9.81796706 C15.5214939,8.85076706 15.2251524,8.09615529 14.6315549,7.56239059 L14.6315549,7.56239059 Z" id="Fill-1" fill="#093B54" mask="url(#mask-2)"></path>
                </g>
                <g id="Group-6" transform="translate(29.000000, 12.109195)">
                    <mask id="mask-4" fill="white">
                        <use xlink:href="#path-3"></use>
                    </mask>
                    <g id="Clip-5"></g>
                    <polygon id="Fill-4" fill="#093B54" mask="url(#mask-4)" points="0.301919444 6.11764706e-05 0.301919444 26.0000612 21.9936139 26.0000612 21.9936139 19.5765318 8.85655833 19.5765318 8.85655833 15.9059435 19.8550306 15.9059435 19.8550306 9.78829647 8.85655833 9.78829647 8.85655833 6.72947294 21.3828083 6.72947294 21.3828083 6.11764706e-05"></polygon>
                </g>
                <g id="Group-9" transform="translate(55.000000, 12.109195)">
                    <mask id="mask-6" fill="white">
                        <use xlink:href="#path-5"></use>
                    </mask>
                    <g id="Clip-8"></g>
                    <polygon id="Fill-7" fill="#093B54" mask="url(#mask-6)" points="0.601032911 6.11764706e-05 0.601032911 6.72947294 11.9943494 6.72947294 0.297235443 20.6761788 0.297235443 26.0000612 23.9904 26.0000612 23.9904 19.2706494 11.5131342 19.2706494 23.3828051 5.41937882 23.3828051 6.11764706e-05"></polygon>
                </g>
                <mask id="mask-8" fill="white">
                    <use xlink:href="#path-7"></use>
                </mask>
                <g id="Clip-11"></g>
                <polygon id="Fill-10" fill="#093B54" mask="url(#mask-8)" points="84 38.1091954 93 38.1091954 93 12.1091954 84 12.1091954"></polygon>
                <polygon id="Fill-12" fill="#093B54" mask="url(#mask-8)" points="97 12.1091954 97 38.1091954 118 38.1091954 118 31.3797836 105.776045 31.3797836 105.776045 12.1091954"></polygon>
                <polygon id="Fill-13" fill="#093B54" mask="url(#mask-8)" points="122 38.1091954 131 38.1091954 131 12.1091954 122 12.1091954"></polygon>
                <path d="M148.999846,19.4969529 C149.403487,19.4969529 149.964151,19.6278721 150.341929,20.2497382 L155.285376,28.3890575 C155.676393,29.0329474 155.513521,29.6168837 155.308467,29.978135 C155.102798,30.3390805 154.700081,30.7884269 153.943293,30.7884269 L144.056707,30.7884269 C143.299919,30.7884269 142.896894,30.3390805 142.691533,29.978135 C142.486479,29.6168837 142.323607,29.042124 142.714624,28.3991518 L147.658071,20.2543265 C148.035541,19.6321545 148.596205,19.4969529 148.999846,19.4969529 M148.999846,12.1091954 C146.084456,12.1091954 143.169375,13.5190238 141.455671,16.3408217 L136.280693,24.8456747 C132.737212,30.681061 136.966051,38.1091954 143.825483,38.1091954 L154.174517,38.1091954 C161.033949,38.1091954 165.262788,30.681061 161.719307,24.8456747 L156.544329,16.3331745 C154.830625,13.5116825 151.915544,12.1091954 148.999846,12.1091954" id="Fill-14" fill="#093B54" mask="url(#mask-8)"></path>
                <path d="M175,6.1091954 C175,9.42286832 172.313744,12.1091954 169.000158,12.1091954 C165.686256,12.1091954 163,9.42286832 163,6.1091954 C163,2.79520707 165.686256,0.109195402 169.000158,0.109195402 C172.313744,0.109195402 175,2.79520707 175,6.1091954" id="Fill-15" fill="#A2CB0D" mask="url(#mask-8)"></path>
            </g>
        </g>
    </g>
</svg>