<?xml version="1.0" encoding="UTF-8"?>
<svg width="17px" height="17px" viewBox="0 0 17 17" version="1.1" xmlns="http://www.w3.org/2000/svg" xmlns:xlink="http://www.w3.org/1999/xlink">
    <!-- Generator: Sketch 59 (86127) - https://sketch.com -->
    <title>REZILIO LOGO</title>
    <desc>Created with Sketch.</desc>
    <defs>
        <polygon id="path-1" points="0.0211419492 0.018015678 4.24704661 0.018015678 4.24704661 4.24388432 0.0211419492 4.24388432"></polygon>
    </defs>
    <g id="REZILIO-PLANS-v3" stroke="none" stroke-width="1" fill="none" fill-rule="evenodd">
        <g id="Login-process-/-Username" transform="translate(-1006.000000, -687.000000)">
            <g id="REZILIO-LOGO" transform="translate(1006.000000, 687.000000)">
                <g transform="translate(0.234185, 0.000000)">
                    <path d="M5.70045348,13.6160594 L4.48431727,13.6160594 L4.48431727,17 L0,17 L0,3.54166667 L6.40353124,3.54166667 C7.63213806,3.54166667 8.70259489,3.74674239 9.6147128,4.15714875 C10.5266418,4.56730019 11.2297825,5.15665392 11.7240721,5.92559229 C12.2179837,6.6948493 12.4648766,7.5920078 12.4648766,8.61725896 C12.4648766,9.57884615 12.2495381,10.4185223 11.8189243,11.1360324 C11.3883104,11.8539886 10.7672363,12.4240328 9.95664679,12.847121 L12.75,17 L7.96179039,17 L5.70045348,13.6160594 Z M7.48664763,7.45448343 C7.18256634,7.1789886 6.72669634,7.04095442 6.11865972,7.04095442 L4.48431727,7.04095442 L4.48431727,10.1939459 L6.11865972,10.1939459 C6.72669634,10.1939459 7.18256634,10.0564215 7.48664763,9.78054431 C7.79066594,9.50504948 7.94270658,9.11739391 7.94270658,8.61725896 C7.94270658,8.11769756 7.79066594,7.7298508 7.48664763,7.45448343 L7.48664763,7.45448343 Z" id="Fill-1" fill="#093B54"></path>
                    <g id="Group-5" transform="translate(12.041667, 0.000000)">
                        <mask id="mask-2" fill="white">
                            <use xlink:href="#path-1"></use>
                        </mask>
                        <g id="Clip-4"></g>
                        <path d="M4.24708263,2.13105805 C4.24708263,3.2980072 3.30113347,4.24388432 2.13425636,4.24388432 C0.967091102,4.24388432 0.0211419492,3.2980072 0.0211419492,2.13105805 C0.0211419492,0.964108898 0.967091102,0.018015678 2.13425636,0.018015678 C3.30113347,0.018015678 4.24708263,0.964108898 4.24708263,2.13105805" id="Fill-3" fill="#A1CB0D" mask="url(#mask-2)"></path>
                    </g>
                </g>
            </g>
        </g>
    </g>
</svg>