<?xml version="1.0" encoding="UTF-8"?>
<svg width="30px" height="32px" viewBox="0 0 30 32" version="1.1" xmlns="http://www.w3.org/2000/svg" xmlns:xlink="http://www.w3.org/1999/xlink">
    <!-- Generator: Sketch 59 (86127) - https://sketch.com -->
    <title>Group 12</title>
    <desc>Created with Sketch.</desc>
    <g id="REZILIO-PLANS-v3" stroke="none" stroke-width="1" fill="none" fill-rule="evenodd">
        <g id="Group-12" transform="translate(-23.000000, -13.000000)">
            <g id="Journal-des-Operations_logo" transform="translate(23.000000, 13.250000)" fill="#656565" fill-rule="nonzero">
                <path d="M17.8703704,6.87654573 C17.8710048,6.93151438 17.8496748,6.98442858 17.8111831,7.02333801 C17.7726915,7.06224745 17.7202848,7.0838703 17.6657988,7.08333333 L11.9642183,7.08333333 C11.9097949,7.08353894 11.8575389,7.06182281 11.8190554,7.02299765 C11.780572,6.98417248 11.759047,6.93145238 11.7592593,6.87654573 C11.7588347,6.19412584 12.0275147,5.53956797 12.5060365,5.05725149 C12.9845584,4.574935 13.6336079,4.30448595 14.3100206,4.30555556 L15.3199965,4.30555556 C15.9961448,4.30523734 16.6447204,4.57594074 17.1230171,5.05810595 C17.6013138,5.54027115 17.8701437,6.19439335 17.8703704,6.87654573 L17.8703704,6.87654573 Z" id="Path"></path>
                <path d="M16.2037037,2.14107925 C16.2037037,3.12116687 15.4595687,4.30555556 14.5380162,4.30555556 C13.6164637,4.30555556 12.8703704,3.12116687 12.8703704,2.14107925 C12.8703704,1.19125846 13.6168553,0.416666667 14.5380162,0.416666667 C15.459177,0.416666667 16.2037037,1.19125846 16.2037037,2.14107925 Z" id="Path"></path>
                <path d="M17.8703704,31.3210236 C17.8708992,31.3759512 17.8495337,31.4287931 17.8110661,31.4676726 C17.7725985,31.506552 17.720256,31.5282074 17.6658031,31.5277778 L11.9642177,31.5277778 C11.909827,31.5278788 11.8576332,31.506131 11.8191731,31.467335 C11.780713,31.428539 11.7591535,31.3758894 11.7592593,31.3210236 C11.7587276,30.6386321 12.0273608,29.9840647 12.5058946,29.5017303 C12.9844284,29.0193958 13.6335393,28.7489304 14.310022,28.75 L15.3199988,28.75 C15.996217,28.7496818 16.6448538,29.0204016 17.1231625,29.5025847 C17.6014711,29.9847678 17.8702543,30.6388995 17.8703704,31.3210236 L17.8703704,31.3210236 Z" id="Path"></path>
                <path d="M16.2037037,26.0297465 C16.2037037,27.0103327 15.4595687,28.1944444 14.5380162,28.1944444 C13.6164637,28.1944444 12.8703704,27.0103327 12.8703704,26.0297465 C12.8703704,25.0802267 13.6180303,24.3055556 14.5380162,24.3055556 C15.4580021,24.3055556 16.2037037,25.0802267 16.2037037,26.0297465 Z" id="Path"></path>
                <path d="M29.537037,19.6544737 C29.5375674,19.7094399 29.5161487,19.7623135 29.4775965,19.8011824 C29.4390442,19.8400512 29.3866013,19.8616458 29.3320829,19.8611111 L23.6308726,19.8611111 C23.5764528,19.8613166 23.5242001,19.8396163 23.4857192,19.8008193 C23.4472382,19.7620223 23.4257146,19.7093405 23.4259259,19.6544737 C23.4249714,18.9725498 23.6931246,18.3182548 24.1712399,17.8359099 C24.6493552,17.3535651 25.2981518,17.0827987 25.9745212,17.0833333 L26.9844315,17.0833333 C27.6612661,17.0824782 28.3106587,17.3530125 28.7894785,17.8353107 C29.2682984,18.3176088 29.5372401,18.9720799 29.537037,19.6544737 L29.537037,19.6544737 Z" id="Path"></path>
                <path d="M28.4259259,14.9186353 C28.4259259,15.8992216 27.6817909,17.0833333 26.7602384,17.0833333 C25.8386859,17.0833333 25.0925926,15.8992216 25.0925926,14.9186353 C25.0925926,13.9687173 25.8402525,13.1944444 26.7602384,13.1944444 C27.6802243,13.1944444 28.4259259,13.9687173 28.4259259,14.9186353 Z" id="Path"></path>
                <path d="M6.2037037,19.6543536 C6.20423412,19.7093517 6.18281401,19.7622561 6.14425923,19.8011475 C6.10570446,19.840039 6.05325811,19.8616462 5.99873611,19.8611111 L0.297551787,19.8611111 C0.243128372,19.8613168 0.190872259,19.8396038 0.152388796,19.8007842 C0.113905333,19.7619647 0.0923803239,19.7092523 0.0925925926,19.6543536 C0.0920618889,18.9720329 0.360640174,18.3175275 0.839087266,17.8352053 C1.31753436,17.352883 1.96654213,17.0823705 2.64295545,17.0833333 L3.65293214,17.0833333 C4.32918702,17.0830146 4.97786497,17.3537212 5.45623708,17.8358922 C5.9346092,18.3180631 6.20348144,18.9721931 6.2037037,19.6543536 Z" id="Path"></path>
                <path d="M4.53703704,14.9186353 C4.53703704,15.8992216 3.79281455,17.0833333 2.87154546,17.0833333 C1.95027636,17.0833333 1.2037037,15.8992216 1.2037037,14.9186353 C1.2037037,13.9687173 1.95105976,13.1944444 2.87154546,13.1944444 C3.79203116,13.1944444 4.53703704,13.9687173 4.53703704,14.9186353 Z" id="Path"></path>
                <path d="M3.90038998,12.6388889 C3.83850669,12.6383675 3.77733653,12.6256978 3.72039223,12.6016073 C3.47788283,12.50256 3.36204197,12.2268265 3.46164546,11.985718 C4.68926548,9.04113405 7.03311873,6.69511004 9.986564,5.45475645 C10.1432644,5.38806534 10.3239001,5.41001262 10.4598337,5.51225882 C10.5957673,5.61450502 10.6661318,5.78135453 10.6441904,5.94940831 C10.622249,6.11746208 10.5113698,6.26092254 10.3536844,6.32527793 C7.63125218,7.46878441 5.47093695,9.6316687 4.33988449,12.3462295 C4.26668698,12.5234034 4.09304716,12.6390301 3.90038998,12.6388889 Z" id="Path"></path>
                <path d="M25.7283654,12.6377697 C25.535402,12.6378097 25.3615098,12.5221415 25.2881015,12.3449187 C24.1575619,9.63561339 22.0013405,7.47525454 19.2833075,6.32860233 C19.1225736,6.26594983 19.0086629,6.12169939 18.9857106,5.95174142 C18.9627583,5.78178345 19.0343709,5.61282337 19.1728017,5.51032544 C19.3112326,5.40782751 19.4947302,5.38789719 19.6521976,5.45825656 C22.6016731,6.70248667 24.9414933,9.04678462 26.1682537,11.9867824 C26.2282663,12.132504 26.2113431,12.298327 26.1231097,12.4291274 C26.0348763,12.5599278 25.8868975,12.6385616 25.7283654,12.6388889 L25.7283654,12.6377697 Z" id="Path"></path>
                <path d="M10.1681291,28.1944444 C10.1045068,28.1942534 10.0415609,28.1812881 9.98297205,28.1563062 C7.08142135,26.9320825 4.70580748,24.5587665 3.46499036,21.6461819 C3.36043065,21.4010094 3.47299512,21.1168834 3.71641013,21.0115687 C3.95982514,20.9062541 4.24191439,21.0196313 4.34647412,21.2648038 C5.50836316,23.9687551 7.65970015,26.1180061 10.3536647,27.2661697 C10.5644808,27.3549581 10.6837688,27.5812803 10.6386723,27.8069077 C10.5935758,28.0325352 10.3966331,28.1947358 10.1681291,28.1944444 L10.1681291,28.1944444 Z" id="Path"></path>
                <path d="M19.4661503,28.1944444 C19.2358958,28.1964306 19.0366006,28.0338227 18.9910327,27.8067707 C18.9454647,27.5797186 19.0664375,27.352068 19.2794305,27.2640539 C21.9508144,26.1324892 24.1371821,23.9457137 25.2814104,21.2649286 C25.3862097,21.0196099 25.6688603,20.9062018 25.9127283,21.0116245 C26.1565963,21.1170472 26.2693337,21.4013793 26.1645344,21.646698 C24.9242897,24.5561631 22.5489251,26.9284786 19.6521112,28.1562492 C19.5932492,28.1812378 19.5300389,28.1942146 19.4661503,28.1944444 Z" id="Path"></path>
                <path d="M11.9350759,17.101481 C11.8153294,16.9980444 11.7644532,16.8387356 11.8029282,16.6876869 C11.8414031,16.5366382 11.9628991,16.4187013 12.1185061,16.3813534 C12.2741131,16.3440055 12.4382294,16.3933914 12.5447875,16.5096301 L12.6692425,16.6346314 L13.6507486,15.6761606 C13.8195495,15.5124098 14.0931418,15.5124951 14.2618343,15.6763512 C14.4305267,15.8402073 14.4304388,16.1057852 14.261638,16.269536 L12.973902,17.5195496 C12.8937876,17.598095 12.7847749,17.6424768 12.6709089,17.6429089 C12.557043,17.6433348 12.4476786,17.5997756 12.3669386,17.5218362 L12.3641904,17.5195496 L11.9350759,17.101481 Z M12.3641904,14.1845286 C12.5311568,14.3480491 12.8030624,14.3492434 12.9715464,14.1871963 L12.973902,14.1845286 L14.261638,12.934515 C14.4081568,12.768005 14.3979631,12.5200791 14.2382395,12.3654337 C14.078516,12.2107884 13.8230828,12.2015327 13.6519264,12.3441884 L12.6704203,13.3022781 L12.5459653,13.1772768 C12.3750769,13.0296638 12.1152546,13.0370066 11.9535026,13.1940203 C11.7917506,13.351034 11.7841862,13.6032452 11.9362538,13.7691277 L12.3641904,14.1845286 Z M14.261638,19.0096573 C14.0946073,18.8464963 13.8230049,18.8454731 13.6546746,19.0073707 L13.6519264,19.0096573 L12.6704203,19.9681281 L12.5459653,19.8431267 C12.4397191,19.7259116 12.2751709,19.6757218 12.1189532,19.7128812 C11.9627355,19.7500406 11.8407342,19.8683918 11.8023528,20.0200093 C11.7639714,20.1716269 11.8155699,20.3313872 11.9362538,20.4345966 L12.3653682,20.8515218 C12.5324433,21.0149365 12.8043483,21.0159601 12.9727242,20.8538084 L12.9750798,20.8515218 L14.2628158,19.6015082 C14.3437315,19.5237407 14.3894527,19.4179213 14.3898978,19.3073909 C14.3903365,19.1968605 14.3454628,19.0906998 14.2651714,19.012325 L14.261638,19.0096573 Z M19.537037,12.2222359 L19.537037,21.3888752 C19.5371411,21.7204304 19.4015028,22.0384351 19.1599828,22.27288 C18.9184629,22.507325 18.5908617,22.6388889 18.2493009,22.6388889 L11.3803287,22.6388889 C11.038768,22.6388889 10.7111667,22.507325 10.4696468,22.27288 C10.2281269,22.0384351 10.0924885,21.7204304 10.0925927,21.3888752 L10.0925927,12.2222359 C10.0924885,11.8906807 10.2281269,11.5726761 10.4696468,11.3382311 C10.7111667,11.1037862 11.038768,10.9722222 11.3803287,10.9722222 L18.2508713,10.9722222 C18.9615448,10.9728534 19.5372539,11.5323804 19.537037,12.2222359 Z M18.6784154,12.2222359 C18.6786334,11.9926302 18.4874045,11.8061508 18.2508713,11.8053106 L11.3803287,11.8053106 C11.1431185,11.8053106 10.9508216,11.9919744 10.9508216,12.2222359 L10.9508216,21.3888752 C10.9508216,21.6191367 11.1431185,21.8058005 11.3803287,21.8058005 L18.2508713,21.8058005 C18.3647476,21.8058005 18.4739541,21.7618625 18.55444,21.6836628 C18.6349258,21.6054632 18.68009,21.4994156 18.679986,21.3888752 L18.6784154,12.2222359 Z M17.3906794,13.0553242 L14.8152074,13.0553242 C14.583159,13.0621367 14.3986845,13.246705 14.3986845,13.4720589 C14.3986845,13.6974128 14.583159,13.8819811 14.8152074,13.8887936 L17.3906794,13.8887936 C17.5471531,13.8933874 17.6938093,13.8149782 17.7734443,13.6841499 C17.8530793,13.5533215 17.8530793,13.3907964 17.7734443,13.259968 C17.6938093,13.1291396 17.5471531,13.0507304 17.3906794,13.0553242 L17.3906794,13.0553242 Z M17.3906794,19.7223175 L14.8152074,19.7223175 C14.583159,19.72913 14.3986845,19.9136983 14.3986845,20.1390522 C14.3986845,20.3644061 14.583159,20.5489744 14.8152074,20.5557869 L17.3906794,20.5557869 C17.5471531,20.5603807 17.6938093,20.4819715 17.7734443,20.3511431 C17.8530793,20.2203147 17.8530793,20.0577896 17.7734443,19.9269613 C17.6938093,19.7961329 17.5471531,19.7177237 17.3906794,19.7223175 L17.3906794,19.7223175 Z M17.3906794,16.3888208 L14.8152074,16.3888208 C14.583159,16.3956333 14.3986845,16.5802016 14.3986845,16.8055556 C14.3986845,17.0309095 14.583159,17.2154778 14.8152074,17.2222903 L17.3906794,17.2222903 C17.5471531,17.226884 17.6938093,17.1484749 17.7734443,17.0176465 C17.8530793,16.8868181 17.8530793,16.724293 17.7734443,16.5934646 C17.6938093,16.4626362 17.5471531,16.3842271 17.3906794,16.3888208 L17.3906794,16.3888208 Z" id="Shape"></path>
            </g>
            <rect id="Rectangle" x="0" y="0" width="80" height="90"></rect>
        </g>
    </g>
</svg>