<?xml version="1.0" encoding="UTF-8"?>
<svg width="16px" height="16px" viewBox="0 0 16 16" version="1.1" xmlns="http://www.w3.org/2000/svg" xmlns:xlink="http://www.w3.org/1999/xlink">
    <!-- Generator: Sketch 59 (86127) - https://sketch.com -->
    <title>Icon</title>
    <desc>Created with Sketch.</desc>
    <g id="REZILIO-PLANS-v3" stroke="none" stroke-width="1" fill="none" fill-rule="evenodd">
        <g id="Plan-Page---Index-Copy-14" transform="translate(-1062.000000, -171.000000)" fill="#656565">
            <g id="01-Components-/-03-Dropdown-Menus-/-02-Left-Icon-/-01-Option-/-01-Normal-Copy-4" transform="translate(1060.000000, 169.000000)">
                <g id="02-Icons-/-20x20-/-ic20-company">
                    <path d="M9,2 C10.3837187,2 11.5486343,2.93680698 11.8951073,4.2107813 C12.2360517,4.07468482 12.6093041,4 13,4 L15,4 C16.6568542,4 18,5.34314575 18,7 L18,15 C18,16.6568542 16.6568542,18 15,18 L5,18 C3.34314575,18 2,16.6568542 2,15 L2,5 C2,3.34314575 3.34314575,2 5,2 L9,2 Z M9,4 L5,4 C4.44771525,4 4,4.44771525 4,5 L4,15 C4,15.5522847 4.44771525,16 5,16 L10,16 L10,5 C10,4.44771525 9.55228475,4 9,4 Z M15,6 L13,6 C12.4477153,6 12,6.44771525 12,7 L12,16 L15,16 C15.5522847,16 16,15.5522847 16,15 L16,7 C16,6.44771525 15.5522847,6 15,6 Z M8,13 C8.55228475,13 9,13.4477153 9,14 C9,14.5522847 8.55228475,15 8,15 L6,15 C5.44771525,15 5,14.5522847 5,14 C5,13.4477153 5.44771525,13 6,13 L8,13 Z M8,9 C8.55228475,9 9,9.44771525 9,10 C9,10.5522847 8.55228475,11 8,11 L6,11 C5.44771525,11 5,10.5522847 5,10 C5,9.44771525 5.44771525,9 6,9 L8,9 Z M8,5 C8.55228475,5 9,5.44771525 9,6 C9,6.55228475 8.55228475,7 8,7 L6,7 C5.44771525,7 5,6.55228475 5,6 C5,5.44771525 5.44771525,5 6,5 L8,5 Z" id="Icon-Color"></path>
                </g>
            </g>
        </g>
    </g>
</svg>