<?xml version="1.0" encoding="UTF-8"?>
<svg width="16px" height="16px" viewBox="0 0 16 16" version="1.1" xmlns="http://www.w3.org/2000/svg" xmlns:xlink="http://www.w3.org/1999/xlink">
    <!-- Generator: Sketch 59 (86127) - https://sketch.com -->
    <title>Icon</title>
    <desc>Created with Sketch.</desc>
    <g id="REZILIO-PLANS-v3" stroke="none" stroke-width="1" fill="none" fill-rule="evenodd">
        <g id="Plan-Page---Index-Copy-14" transform="translate(-1062.000000, -75.000000)" fill="#656565">
            <g id="01-Components-/-03-Dropdown-Menus-/-02-Left-Icon-/-01-Option-/-01-Normal-Copy" transform="translate(1060.000000, 73.000000)">
                <g id="02-Icons-/-20x20-/-ic20-settings">
                    <path d="M9.22673164,2 L10.7919996,2.00092422 C10.8513027,2.00374283 10.9205644,2.01156527 10.9959718,2.02798491 L11.1691234,2.0709722 C11.5712987,2.18770734 11.7606235,2.39830058 12.1291587,3.25076976 L12.28706,3.62728981 L12.4510469,4.03344986 L12.8342445,3.8629265 C13.5975641,3.5298976 13.9434245,3.42717546 14.2162339,3.42717546 C14.4976486,3.42717546 14.7823454,3.52607084 15.0015134,3.69974808 L15.1053181,3.79270688 L16.1619775,4.84498187 L16.3130916,5.00911163 C16.5964715,5.34081562 16.6591943,5.60340217 16.4605023,6.23104106 L16.3500879,6.54822238 L16.2016591,6.92673117 L15.9558697,7.51329226 L16.5450925,7.73561264 C17.4648092,8.09428857 17.735872,8.28038886 17.8846163,8.65251681 L17.9112009,8.72455836 L17.9588536,8.88382273 C17.9829651,8.97410651 17.9932152,9.03819244 17.9973696,9.10962391 L18,9.22647322 L18,10.7102642 C18,10.8338635 17.995654,10.9055048 17.9638419,11.0332555 C17.836437,11.5448856 17.6948316,11.726403 16.7372232,12.1393244 L16.5479134,12.219596 L15.9705456,12.4544834 L16.1500946,12.849324 C16.6989953,14.0755645 16.755308,14.4342705 16.4201082,14.8678268 L16.3669046,14.9335394 L16.2431824,15.0711601 L15.1561987,16.1574584 C14.9191708,16.3971141 14.585577,16.5274162 14.2606046,16.5274162 C14.0898435,16.5274162 13.8748941,16.4815066 13.5705691,16.3792348 L13.4107494,16.3233537 L13.0414016,16.1822489 L12.4850498,15.9527177 L12.3291381,16.3680812 C11.9164336,17.4487997 11.733063,17.7380043 11.3314767,17.891486 L11.2582523,17.9172956 L11.1042759,17.9615453 C11.0169211,17.9840875 10.955037,17.9936644 10.8861575,17.9975443 L10.7735334,18 L9.20803951,17.9990822 C9.14891972,17.9962846 9.07989629,17.9885211 9.00473872,17.9722247 C8.54230903,17.8719557 8.34048791,17.7503648 8.01586169,17.0709974 L7.94427952,16.9166858 L7.78648371,16.5521461 L7.54800277,15.9666407 L7.16457312,16.1370989 C6.40085484,16.4699939 6.05525168,16.5726313 5.7829332,16.5726313 C5.50494962,16.5726313 5.22403502,16.475809 4.99889174,16.30038 L4.89123948,16.2061992 L3.80291849,15.118129 C3.39492401,14.6856225 3.29445782,14.4540102 3.58402426,13.6275543 L3.64716243,13.4540961 L3.79474119,13.0795884 L4.04308719,12.4880009 L3.63393707,12.3344006 C2.56805144,11.9271552 2.27115444,11.7406293 2.11384857,11.34381 L2.08740965,11.2715124 L2.04015145,11.1117137 C2.01662182,11.0224054 2.00661994,10.9590351 2.00256643,10.888372 L2,10.7727539 L2,9.28807402 C2,9.16345815 2.00443351,9.09115737 2.03688116,8.96227946 C2.14871696,8.51808192 2.27013671,8.32366543 2.93111748,8.00947964 L3.09347073,7.93468094 L3.45277435,7.78019944 L4.02991126,7.5462537 L3.85081255,7.15003964 C3.2486345,5.7945579 3.24293479,5.47232167 3.72774105,4.9593824 L3.79688137,4.88813915 L4.84611219,3.84128886 C5.08114827,3.60494773 5.41328966,3.4733181 5.73894114,3.4733181 C5.9387314,3.4733181 6.19675325,3.53525065 6.59064792,3.67774606 L6.76800502,3.74380226 L7.12860964,3.88660642 L7.5156445,4.04736774 L7.7444643,3.44429625 C8.11371014,2.50387133 8.30627395,2.23239933 8.69907524,2.09454147 L8.77516404,2.07012821 L8.93506625,2.02946642 C9.01225184,2.01218792 9.06675378,2.00485123 9.12744462,2.00187994 L10.7919996,2.00092422 L9.22673164,2 Z M10.2653626,4 L9.6847766,4 L9.59598255,4.21539042 L9.49016873,4.48489949 L9.19617762,5.26964787 C9.11260754,5.4903286 8.95422407,5.67311116 8.75061335,5.78743725 L8.64517604,5.83875412 L8.0080862,6.10386172 C7.80128343,6.18991706 7.57286694,6.20357545 7.35928479,6.14496546 L7.2332072,6.10112829 L6.57074551,5.82099453 L6.24104197,5.68718081 L5.94281408,5.57228358 L5.53090361,5.98325794 L5.73485431,6.45906787 L6.08250314,7.22097497 C6.17926235,7.43127394 6.19949106,7.66721604 6.14237009,7.888684 L6.09880899,8.01950695 L5.83830179,8.65255762 C5.74962483,8.86804881 5.58902205,9.04463269 5.38569481,9.15352937 L5.28060602,9.20220388 L4.48630843,9.52092865 L4.21500422,9.63473183 L4,9.72909685 L4,10.3211437 L4.10070327,10.3632199 L4.48191852,10.5141915 L5.25883065,10.8036335 C5.48611734,10.8855656 5.67471857,11.0464555 5.79169333,11.2548276 L5.84405934,11.3628249 L6.1046044,11.9940206 C6.19062538,12.2024147 6.20322409,12.4324434 6.14273111,12.646963 L6.09766696,12.7735165 L5.7618721,13.5636441 L5.56651823,14.0540426 L5.97824403,14.4652462 L6.23658239,14.358001 L6.7345266,14.1391862 L7.2047673,13.9233087 C7.42381657,13.8186535 7.67209864,13.7978236 7.90342752,13.8620702 L8.01746537,13.9012891 L8.65830325,14.1658556 C8.87669589,14.2560179 9.05488611,14.4200229 9.16310827,14.6272681 L9.21125088,14.7343523 L9.52460429,15.5138264 L9.73390244,16 L10.3168274,16 L10.4050145,15.7852259 L10.5102922,15.5163571 L10.8036219,14.7320196 C10.887135,14.5093777 11.0467075,14.3250481 11.2520874,14.2102833 L11.3584546,14.1588426 L11.9965666,13.8955127 C12.2009687,13.811162 12.4263244,13.7973918 12.6375339,13.8541491 L12.7622812,13.8966663 L13.2451371,14.1020731 L13.7597102,14.313454 L14.0574447,14.4283744 L14.4699529,14.0166001 L14.428611,13.9164823 L14.1970768,13.3886767 L13.9169773,12.7793961 C13.8198586,12.5687316 13.7995775,12.3322775 13.8569548,12.1103954 L13.9007068,11.9793377 L14.1607597,11.3490308 C14.2489805,11.1352045 14.4080669,10.9597205 14.6094955,10.8508012 L14.7136063,10.8020193 L15.512387,10.4800596 L16,10.2705192 L16,9.67934672 L15.8991933,9.63741171 L15.5172707,9.48680523 L14.7377554,9.19724313 C14.5109818,9.11472979 14.3230265,8.95355535 14.206639,8.74516969 L14.1545609,8.63718818 L13.8944701,8.0034419 C13.8091547,7.79555928 13.7968137,7.56630626 13.857092,7.35247059 L13.9019705,7.22631357 L14.2372115,6.43684631 L14.4323257,5.94502573 L14.0203312,5.53473898 L13.8980782,5.58478274 L13.4412385,5.78197187 L12.7800721,6.08244135 C12.5701323,6.17864223 12.3347703,6.19865082 12.1138216,6.14167682 L11.9833006,6.09824819 L11.3428792,5.83499557 C11.127341,5.74639612 10.9506877,5.58584753 10.8417146,5.38254588 L10.7930014,5.27746746 L10.5393314,4.64408736 L10.3602906,4.215278 L10.2653626,4 Z M10.0003148,8 C11.1028458,8 12,8.89682412 12,9.99942198 C12,11.1019877 11.1028773,12 10.0003148,12 C8.89731159,12 8,11.1021804 8,9.99942198 C8,8.89663145 8.89734307,8 10.0003148,8 Z" id="Icon-Color"></path>
                </g>
            </g>
        </g>
    </g>
</svg>