<?xml version="1.0" encoding="UTF-8"?>
<svg width="16px" height="16px" viewBox="0 0 16 16" version="1.1" xmlns="http://www.w3.org/2000/svg" xmlns:xlink="http://www.w3.org/1999/xlink">
    <!-- Generator: Sketch 59 (86127) - https://sketch.com -->
    <title>Icon Color</title>
    <desc>Created with Sketch.</desc>
    <g id="Symbols" stroke="none" stroke-width="1" fill="none" fill-rule="evenodd">
        <g id="02-Icons-/-20x20-/-ic20-turn-off" transform="translate(-2.000000, -2.000000)" fill="#656565">
            <path d="M3.14353817,5.87620301 C3.42858256,5.40316163 4.04313249,5.25075996 4.51617387,5.53580434 C4.98921524,5.82084873 5.14161692,6.43539866 4.85657254,6.90844004 C4.29883061,7.83403276 4,8.89388029 4,10 C4,13.3137085 6.6862915,16 10,16 C13.3137085,16 16,13.3137085 16,10 C16,8.8945736 15.7015451,7.83535838 15.144465,6.91016244 C14.8595792,6.43702554 15.0121868,5.82252673 15.4853237,5.53764093 C15.9584606,5.25275514 16.5729595,5.40536282 16.8578452,5.87849972 C17.6011658,7.11300277 18,8.52846378 18,10 C18,14.418278 14.418278,18 10,18 C5.581722,18 2,14.418278 2,10 C2,8.52753914 2.39933653,7.11123233 3.14353817,5.87620301 Z M10,2 C10.5522847,2 11,2.44771525 11,3 L11,7 C11,7.55228475 10.5522847,8 10,8 C9.44771525,8 9,7.55228475 9,7 L9,3 C9,2.44771525 9.44771525,2 10,2 Z" id="Icon-Color"></path>
        </g>
    </g>
</svg>