<?xml version="1.0" encoding="UTF-8"?>
<svg width="16px" height="16px" viewBox="0 0 16 16" version="1.1" xmlns="http://www.w3.org/2000/svg" xmlns:xlink="http://www.w3.org/1999/xlink">
    <!-- Generator: Sketch 59 (86127) - https://sketch.com -->
    <title>Icon</title>
    <desc>Created with Sketch.</desc>
    <g id="REZILIO-PLANS-v3" stroke="none" stroke-width="1" fill="none" fill-rule="evenodd">
        <g id="Plan-Page---Index-Copy-14" transform="translate(-1062.000000, -107.000000)" fill="#656565">
            <g id="01-Components-/-03-Dropdown-Menus-/-02-Left-Icon-/-01-Option-/-01-Normal-Copy-2" transform="translate(1060.000000, 105.000000)">
                <g id="02-Icons-/-20x20-/-ic20-user">
                    <path d="M7,12 L13,12 C15.7614237,12 18,14.2385763 18,17 C18,17.5522847 17.5522847,18 17,18 C16.4871642,18 16.0644928,17.6139598 16.0067277,17.1166211 L15.9949073,16.8237272 C15.9070404,15.3072462 14.6927538,14.0929596 13.1762728,14.0050927 L13,14 L7,14 C5.34314575,14 4,15.3431458 4,17 C4,17.5522847 3.55228475,18 3,18 C2.44771525,18 2,17.5522847 2,17 C2,14.3112453 4.12230671,12.1181819 6.78311038,12.0046195 L7,12 L13,12 L7,12 Z M10,2 C12.7614237,2 15,4.23857625 15,7 C15,9.76142375 12.7614237,12 10,12 C7.23857625,12 5,9.76142375 5,7 C5,4.23857625 7.23857625,2 10,2 Z M10,4 C8.34314575,4 7,5.34314575 7,7 C7,8.65685425 8.34314575,10 10,10 C11.6568542,10 13,8.65685425 13,7 C13,5.34314575 11.6568542,4 10,4 Z" id="Icon-Color"></path>
                </g>
            </g>
        </g>
    </g>
</svg>