<?xml version="1.0" standalone="no"?>
<!DOCTYPE svg PUBLIC "-//W3C//DTD SVG 20010904//EN"
 "http://www.w3.org/TR/2001/REC-SVG-20010904/DTD/svg10.dtd">
<svg version="1.0" xmlns="http://www.w3.org/2000/svg"
 width="260.000000pt" height="260.000000pt" viewBox="0 0 260.000000 260.000000"
 preserveAspectRatio="xMidYMid meet">
<metadata>
Created by potrace 1.11, written by Peter Selinger 2001-2013
</metadata>
<g transform="translate(0.000000,260.000000) scale(0.100000,-0.100000)"
fill="#000000" stroke="none">
<path d="M2163 2581 c-160 -40 -258 -223 -204 -383 22 -64 88 -140 148 -168
67 -33 189 -34 253 -3 58 27 114 83 142 142 29 60 33 163 10 229 -23 64 -112
153 -172 172 -55 16 -134 21 -177 11z"/>
<path d="M17 2112 c-16 -3 -17 -79 -17 -1058 l0 -1054 355 0 355 0 1 38 c0 20
1 139 1 265 l1 227 96 0 96 -1 69 -102 c38 -56 118 -175 178 -264 l110 -163
379 0 c208 0 379 2 379 6 0 3 -24 40 -53 82 -29 42 -107 156 -172 252 -65 96
-138 203 -162 237 -24 35 -43 66 -43 70 0 5 21 20 48 35 63 36 155 119 204
185 127 172 167 407 114 663 -3 14 -17 55 -32 90 -113 278 -399 458 -769 486
-83 6 -1109 11 -1138 6z m1078 -568 c113 -36 160 -103 160 -229 0 -97 -26
-153 -92 -197 -56 -38 -118 -48 -299 -48 l-153 0 0 242 c0 134 4 245 9 248 4
3 79 4 167 3 113 -2 172 -7 208 -19z"/>
</g>
</svg>
