<?xml version="1.0" encoding="UTF-8"?>
<svg width="16px" height="16px" viewBox="0 0 16 16" version="1.1" xmlns="http://www.w3.org/2000/svg" xmlns:xlink="http://www.w3.org/1999/xlink">
    <title>Icon Color</title>
    <g id="Page-1" stroke="none" stroke-width="1" fill="none" fill-rule="evenodd">
        <g id="Shortcut-Broken-link-/-3-dots-icon-Normal" transform="translate(-204.000000, -167.000000)">
            <rect id="Rectangle-Copy-2" fill="none" x="189" y="155" width="204" height="40" rx="4"></rect>
            <g id="01-Components-/-04-Tables-/-02-Compact-Rows-/-02-Action-/-01-Text-Button-/-01-Normal-Copy-21±±14503911-6934-4CFE-BC7C-D8A61B3D4200±±88212A0F-30B6-4179-A05B-7048E24D537E" transform="translate(204.000000, 165.000000)" fill="#A1A1A1">
                <g id="Icon±±±±67B700D0-8ACF-44E7-9AF2-F32F353DC269" transform="translate(0.000000, 2.000000)">
                    <path d="M3.37938391,7.07587678 C3.88976307,7.58625594 3.88976307,8.41374406 3.37938391,8.92412322 C2.35862559,9.94488154 2.35862559,11.5998578 3.37938391,12.6206161 C4.34641811,13.5876503 5.88266728,13.6385468 6.90961884,12.7733057 L7.18986633,12.519061 C7.70285063,12.1128409 8.45019971,12.1466926 8.92412322,12.6206161 C9.43450238,13.1309952 9.43450238,13.9584834 8.92412322,14.4688625 C6.88260658,16.5103792 3.57265412,16.5103792 1.53113748,14.4688625 C-0.51037916,12.4273459 -0.51037916,9.11739342 1.53113748,7.07587678 C2.04151664,6.56549762 2.86900475,6.56549762 3.37938391,7.07587678 Z M3.28595479,1.40033671 L14.5996633,12.7140452 C15.1203623,13.2347443 15.1203623,14.0789642 14.5996633,14.5996633 C14.0789642,15.1203623 13.2347443,15.1203623 12.7140452,14.5996633 L1.40033671,3.28595479 C0.879637653,2.76525574 0.879637653,1.92103576 1.40033671,1.40033671 C1.92103576,0.879637653 2.76525574,0.879637653 3.28595479,1.40033671 Z M14.4688625,1.53113748 C16.5103792,3.57265412 16.5103792,6.88260658 14.4688625,8.92412322 C13.9584834,9.43450238 13.1309952,9.43450238 12.6206161,8.92412322 C12.1102369,8.41374406 12.1102369,7.58625594 12.6206161,7.07587678 C13.6413744,6.05511846 13.6413744,4.40014223 12.6206161,3.37938391 C11.6535819,2.41234972 10.1173327,2.36145318 9.09038116,3.2266943 L8.81013367,3.48093895 C8.29714937,3.8871591 7.54980029,3.85330742 7.07587678,3.37938391 C6.56549762,2.86900475 6.56549762,2.04151664 7.07587678,1.53113748 C9.11739342,-0.51037916 12.4273459,-0.51037916 14.4688625,1.53113748 Z" id="Icon-Color"></path>
                </g>
            </g>
        </g>
    </g>
</svg>