<?xml version="1.0" encoding="UTF-8"?>
<svg width="10px" height="10px" viewBox="0 0 10 10" version="1.1" xmlns="http://www.w3.org/2000/svg" xmlns:xlink="http://www.w3.org/1999/xlink">
    <!-- Generator: Sketch 59 (86127) - https://sketch.com -->
    <title>Icon Color</title>
    <desc>Created with Sketch.</desc>
    <g id="Symbols" stroke="none" stroke-width="1" fill="none" fill-rule="evenodd">
        <g id="02-Icons-/-16x16-/-ic16-close" transform="translate(-3.000000, -3.000000)" fill="#e4e4e4">
            <path d="M9.4141,8 L12.7071,4.707 C13.0981,4.316 13.0981,3.684 12.7071,3.293 C12.3161,2.902 11.6841,2.902 11.2931,3.293 L8.0001,6.586 L4.7071,3.293 C4.3161,2.902 3.6841,2.902 3.2931,3.293 C2.9021,3.684 2.9021,4.316 3.2931,4.707 L6.5861,8 L3.2931,11.293 C2.9021,11.684 2.9021,12.316 3.2931,12.707 C3.4881,12.902 3.7441,13 4.0001,13 C4.2561,13 4.5121,12.902 4.7071,12.707 L8.0001,9.414 L11.2931,12.707 C11.4881,12.902 11.7441,13 12.0001,13 C12.2561,13 12.5121,12.902 12.7071,12.707 C13.0981,12.316 13.0981,11.684 12.7071,11.293 L9.4141,8 Z" id="Icon-Color"></path>
        </g>
    </g>
</svg>