<?xml version="1.0" encoding="UTF-8"?>
<svg width="14px" height="14px" viewBox="0 0 14 14" version="1.1" xmlns="http://www.w3.org/2000/svg" xmlns:xlink="http://www.w3.org/1999/xlink">
    <!-- Generator: Sketch 59 (86127) - https://sketch.com -->
    <title>Icon Color</title>
    <desc>Created with Sketch.</desc>
    <g id="REZILIO-PLANS-v3" stroke="none" stroke-width="1" fill="none" fill-rule="evenodd">
        <g id="Mobile-/-Homepage-Menu" transform="translate(-380.000000, -58.000000)" fill="#2C5DE5">
            <g id="02-Icons-/-24x24-/-ic24-menu" transform="translate(380.000000, 58.000000)">
                <path d="M8.41425,7.00025 L13.70725,1.70725 C14.09825,1.31625 14.09825,0.68425 13.70725,0.29325 C13.31625,-0.09775 12.68425,-0.09775 12.29325,0.29325 L7.00025,5.58625 L1.70725,0.29325 C1.31625,-0.09775 0.68425,-0.09775 0.29325,0.29325 C-0.09775,0.68425 -0.09775,1.31625 0.29325,1.70725 L5.58625,7.00025 L0.29325,12.29325 C-0.09775,12.68425 -0.09775,13.31625 0.29325,13.70725 C0.48825,13.90225 0.74425,14.00025 1.00025,14.00025 C1.25625,14.00025 1.51225,13.90225 1.70725,13.70725 L7.00025,8.41425 L12.29325,13.70725 C12.48825,13.90225 12.74425,14.00025 13.00025,14.00025 C13.25625,14.00025 13.51225,13.90225 13.70725,13.70725 C14.09825,13.31625 14.09825,12.68425 13.70725,12.29325 L8.41425,7.00025 Z" id="Icon-Color"></path>
            </g>
        </g>
    </g>
</svg>