<?xml version="1.0" encoding="UTF-8"?>
<svg width="14px" height="14px" viewBox="0 0 14 14" version="1.1" xmlns="http://www.w3.org/2000/svg" xmlns:xlink="http://www.w3.org/1999/xlink">
    <title>02 Icons / 24x24 / ic24-close</title>
    <defs>
        <path d="M11,0 L27,0 C33.0751322,-1.11598369e-15 38,4.92486775 38,11 C38,17.0751322 33.0751322,22 27,22 L11,22 C4.92486775,22 7.43989126e-16,17.0751322 0,11 C-7.43989126e-16,4.92486775 4.92486775,1.11598369e-15 11,0 Z" id="path-1"></path>
        <path d="M4,0 L360,0 L360,0 L360,40 L4,40 C1.790861,40 2.705415e-16,38.209139 0,36 L0,4 C-2.705415e-16,1.790861 1.790861,4.05812251e-16 4,0 Z" id="path-3"></path>
        <path d="M1355,19.2933333 L1390,19.2933333 C1392.20914,19.2933333 1394,21.0841943 1394,23.2933333 L1394,53.2933333 C1394,55.5024723 1392.20914,57.2933333 1390,57.2933333 L1355,57.2933333 L1355,57.2933333 L1355,19.2933333 Z" id="path-5"></path>
        <polygon id="path-7" points="1.13686838e-12 0 950 0 950 834 1.13686838e-12 834"></polygon>
        <polygon id="path-9" points="0 0 950 0 950 834 0 834"></polygon>
        <path d="M162,721 L244,721 C246.209139,721 248,722.790861 248,725 L248,747 C248,749.209139 246.209139,751 244,751 L162,751 C159.790861,751 158,749.209139 158,747 L158,725 C158,722.790861 159.790861,721 162,721 Z" id="path-11"></path>
        <path d="M267,721 L442,721 C444.209139,721 446,722.790861 446,725 L446,747 C446,749.209139 444.209139,751 442,751 L267,751 C264.790861,751 263,749.209139 263,747 L263,725 C263,722.790861 264.790861,721 267,721 Z" id="path-13"></path>
        <path d="M37,721 L139,721 C141.209139,721 143,722.790861 143,725 L143,747 C143,749.209139 141.209139,751 139,751 L37,751 C34.790861,751 33,749.209139 33,747 L33,725 C33,722.790861 34.790861,721 37,721 Z" id="path-15"></path>
        <path d="M465,721 L629,721 C631.209139,721 633,722.790861 633,725 L633,747 C633,749.209139 631.209139,751 629,751 L465,751 C462.790861,751 461,749.209139 461,747 L461,725 C461,722.790861 462.790861,721 465,721 Z" id="path-17"></path>
        <rect id="path-19" x="33" y="111" width="885" height="587" rx="1"></rect>
        <filter x="-2.3%" y="-2.7%" width="104.5%" height="106.8%" filterUnits="objectBoundingBox" id="filter-20">
            <feOffset dx="0" dy="4" in="SourceAlpha" result="shadowOffsetOuter1"></feOffset>
            <feGaussianBlur stdDeviation="6" in="shadowOffsetOuter1" result="shadowBlurOuter1"></feGaussianBlur>
            <feComposite in="shadowBlurOuter1" in2="SourceAlpha" operator="out" result="shadowBlurOuter1"></feComposite>
            <feColorMatrix values="0 0 0 0 0   0 0 0 0 0   0 0 0 0 0  0 0 0 0.151906687 0" type="matrix" in="shadowBlurOuter1"></feColorMatrix>
        </filter>
        <rect id="path-21" x="33" y="21" width="32" height="32" rx="1"></rect>
        <mask id="mask-22" maskContentUnits="userSpaceOnUse" maskUnits="objectBoundingBox" x="0" y="0" width="32" height="32" fill="white">
            <use xlink:href="#path-21"></use>
        </mask>
        <path d="M4,0 L107,0 C109.209139,-4.05812251e-16 111,1.790861 111,4 L111,20 C111,22.209139 109.209139,24 107,24 L4,24 C1.790861,24 2.705415e-16,22.209139 0,20 L0,4 C-2.705415e-16,1.790861 1.790861,4.05812251e-16 4,0 Z" id="path-23"></path>
        <mask id="mask-24" maskContentUnits="userSpaceOnUse" maskUnits="objectBoundingBox" x="0" y="0" width="111" height="24" fill="white">
            <use xlink:href="#path-23"></use>
        </mask>
        <mask id="mask-26" maskContentUnits="userSpaceOnUse" maskUnits="objectBoundingBox" x="0" y="0" width="111" height="24" fill="white">
            <use xlink:href="#path-23"></use>
        </mask>
        <path d="M258,80 L501,80 C503.209139,80 505,81.790861 505,84 L505,100 C505,102.209139 503.209139,104 501,104 L258,104 C255.790861,104 254,102.209139 254,100 L254,84 C254,81.790861 255.790861,80 258,80 Z" id="path-27"></path>
        <path d="M4,0 L351,0 C353.209139,-4.05812251e-16 355,1.790861 355,4 L355,479 C355,481.209139 353.209139,483 351,483 L4,483 C1.790861,483 2.705415e-16,481.209139 0,479 L0,4 C-2.705415e-16,1.790861 1.790861,4.05812251e-16 4,0 Z" id="path-29"></path>
        <filter x="-5.6%" y="-3.3%" width="111.3%" height="108.3%" filterUnits="objectBoundingBox" id="filter-31">
            <feOffset dx="0" dy="4" in="SourceAlpha" result="shadowOffsetOuter1"></feOffset>
            <feGaussianBlur stdDeviation="6" in="shadowOffsetOuter1" result="shadowBlurOuter1"></feGaussianBlur>
            <feColorMatrix values="0 0 0 0 0.101960784   0 0 0 0 0.101960784   0 0 0 0 0.101960784  0 0 0 0.38434222 0" type="matrix" in="shadowBlurOuter1"></feColorMatrix>
        </filter>
        <path d="M4,0.5 L351,0.5 C353.209139,0.5 355,2.290861 355,4.5 L355,479.5 C355,481.709139 353.209139,483.5 351,483.5 L4,483.5 C1.790861,483.5 2.705415e-16,481.709139 0,479.5 L0,4.5 C-2.705415e-16,2.290861 1.790861,0.5 4,0.5 Z" id="path-32"></path>
    </defs>
    <g id="Page-1" stroke="none" stroke-width="1" fill="none" fill-rule="evenodd">
        <g id="Plan-Page-/-Sub-Section-/-Icon-Panel-open-/-Tool-tip" transform="translate(-838.000000, -87.000000)">
            <g id="Group" transform="translate(0.000000, 66.000000)">
                <rect id="Rectangle" fill="#F7F7F7" x="0" y="0" width="1440" height="75"></rect>
                <rect id="Rectangle" x="8" y="18" width="31" height="39" rx="4"></rect>
                <g transform="translate(15.000000, 30.000000)" fill="#1A1A1A" id="Icon-Color">
                    <path d="M10.70725,12.29325 C11.09825,12.68425 11.09825,13.31625 10.70725,13.70725 C10.31625,14.09825 9.68425,14.09825 9.29325,13.70725 L4.29325,8.70725 C3.90225,8.31625 3.90225,7.68425 4.29325,7.29325 L9.29325,2.29325 C9.68425,1.90225 10.31625,1.90225 10.70725,2.29325 C11.09825,2.68425 11.09825,3.31625 10.70725,3.70725 L6.41425,8.00025 L10.70725,12.29325 Z"></path>
                </g>
                <line x1="0.5" y1="74.5" x2="1439.5" y2="74.5" id="Line-3" stroke="#EDEDED" stroke-linecap="square"></line>
                <text id="Centre-de-Prise-en-C" font-family="Helvetica" font-size="22" font-weight="normal" line-spacing="24" fill="#202124">
                    <tspan x="46" y="35">Centre de Prise en Charge et d'Action Bénévole de </tspan>
                    <tspan x="46" y="59">Richmond (Cab Richmond)</tspan>
                </text>
                <text id="Mise-à-jour-:-2020-0" font-family="Helvetica" font-size="12" font-weight="normal" line-spacing="16" fill="#6D8086">
                    <tspan x="585" y="62">Mise à jour : 2020 08 02</tspan>
                </text>
                <g id="01-Components-/-06-Badges-&amp;-Tags-/-01-Light-/-03-Small-/-01-Plain-/-02-Gray-Copy-41" transform="translate(585.000000, 17.000000)">
                    <g id="Base±±±±0B33F1CB-7384-4B7A-AFD9-56AC4920D8E1" transform="translate(0.000000, 1.000000)">
                        <mask id="mask-2" fill="white">
                            <use xlink:href="#path-1"></use>
                        </mask>
                        <use id="Style" stroke="#E2975D" stroke-width="2" xlink:href="#path-1"></use>
                    </g>
                    <text id="Badge-Text" font-family="Helvetica" font-size="12" font-weight="normal" line-spacing="16" letter-spacing="0.4" fill="#E2975D">
                        <tspan x="9.6" y="11">PM</tspan>
                        <tspan x="14.4669922" y="27">U</tspan>
                    </text>
                </g>
                <g id="Fill±±±±84190B1B-ACB0-41ED-9097-28D99B1FA848" transform="translate(995.000000, 18.293333)">
                    <mask id="mask-4" fill="white">
                        <use xlink:href="#path-3"></use>
                    </mask>
                    <path stroke="#E9E9E9" d="M359.5,0.5 L359.5,39.5 L4,39.5 C3.03350169,39.5 2.15850169,39.1082492 1.52512627,38.4748737 C0.891750844,37.8414983 0.5,36.9664983 0.5,36 L0.5,36 L0.5,4 C0.5,3.03350169 0.891750844,2.15850169 1.52512627,1.52512627 C2.15850169,0.891750844 3.03350169,0.5 4,0.5 L4,0.5 L359.5,0.5 Z"></path>
                </g>
                <mask id="mask-6" fill="white">
                    <use xlink:href="#path-5"></use>
                </mask>
                <path stroke="#E9E9E9" d="M1390,18.7933333 C1391.24264,18.7933333 1392.36764,19.297013 1393.18198,20.1113528 C1393.99632,20.9256926 1394.5,22.0506926 1394.5,23.2933333 L1394.5,23.2933333 L1394.5,53.2933333 C1394.5,54.535974 1393.99632,55.660974 1393.18198,56.4753138 C1392.36764,57.2896537 1391.24264,57.7933333 1390,57.7933333 L1390,57.7933333 L1354.5,57.7933333 L1354.5,18.7933333 Z"></path>
                <g id="02-Icons-/-16x16-/-ic16-search-Copy-2" transform="translate(1367.000000, 30.000000)" fill="#FFFFFF">
                    <path d="M6.66666667,0 C10.348565,0 13.3333333,2.98476833 13.3333333,6.66666667 C13.3333333,8.02547629 12.9268111,9.28933757 12.2287535,10.3432637 L15.6094757,13.7238576 C16.1301748,14.2445567 16.1301748,15.0887767 15.6094757,15.6094757 C15.1288304,16.090121 14.3725224,16.1270937 13.8494674,15.7203939 L13.7238576,15.6094757 L10.3432637,12.2287535 C9.28933757,12.9268111 8.02547629,13.3333333 6.66666667,13.3333333 C2.98476833,13.3333333 0,10.348565 0,6.66666667 C0,2.98476833 2.98476833,0 6.66666667,0 Z M6.66666667,2.66666667 C4.45752767,2.66666667 2.66666667,4.45752767 2.66666667,6.66666667 C2.66666667,8.87580567 4.45752767,10.6666667 6.66666667,10.6666667 C8.87580567,10.6666667 10.6666667,8.87580567 10.6666667,6.66666667 C10.6666667,4.45752767 8.87580567,2.66666667 6.66666667,2.66666667 Z" id="Icon-Color"></path>
                </g>
                <text id="Input-Text" font-family="Helvetica" font-size="16" font-weight="normal" line-spacing="16" letter-spacing="0.533333333" fill="#8FA0A5">
                    <tspan x="1006" y="34">Rechercher</tspan>
                </text>
            </g>
            <rect id="Rectangle" fill-opacity="0.7" fill="#030303" x="-1" y="0" width="1441" height="1877"></rect>
            <g id="01-Components-/-03-Dropdown-Menus-/-999-Primitives-/-01-Base" transform="translate(475.000000, 15.000000)">
                <g id="Group" transform="translate(-0.000000, 0.000000)">
                    <mask id="mask-8" fill="white">
                        <use xlink:href="#path-7"></use>
                    </mask>
                    <use id="Style" fill="#FFFFFF" xlink:href="#path-7"></use>
                    <g id="Stroke" transform="translate(0.000000, 0.000000)">
                        <mask id="mask-10" fill="white">
                            <use xlink:href="#path-9"></use>
                        </mask>
                        <path stroke="#A3C3E9" d="M949.5,0.5 L949.5,833.5 L0.5,833.5 L0.5,0.5 L949.5,0.5 Z"></path>
                    </g>
                    <mask id="mask-12" fill="white">
                        <use xlink:href="#path-11"></use>
                    </mask>
                    <use id="Style-Copy" fill="#90BC50" xlink:href="#path-11"></use>
                    <text id="Button-Text-Copy" font-family="Helvetica" font-size="14" font-weight="normal" line-spacing="20" fill="#FFFFFF">
                        <tspan x="189" y="740">Publier</tspan>
                    </text>
                    <path d="M171.721523,735.71566 L173.615166,737.382067 L178.122038,730.754314 C179.33397,728.974289 181.871452,730.678568 180.697393,732.42072 L175.054335,740.828498 C174.448369,741.737447 173.350056,741.472337 172.630471,740.828498 L169.562769,738.177397 C167.972108,736.738228 170.092989,734.314364 171.721523,735.71566 Z" id="Path-Copy-2" fill="#FFFFFF"></path>
                    <mask id="mask-14" fill="white">
                        <use xlink:href="#path-13"></use>
                    </mask>
                    <use id="Style-Copy-2" fill="#848484" xlink:href="#path-13"></use>
                    <text id="Button-Text-Copy-2" font-family="Helvetica" font-size="14" font-weight="normal" line-spacing="20" fill="#FFFFFF">
                        <tspan x="296" y="740">Sauvegarder brouillon</tspan>
                    </text>
                    <g id="Group-3-Copy" transform="translate(274.000000, 730.000000)">
                        <path d="M3.98553515,4.59837239 L8.30790724,4.59544211 C8.60344212,4.59530257 8.9073491,4.31176769 8.9073491,4.01637234 L8.90497701,0.615907223 L3.41051189,0.619953734 L3.41274445,4.02013978 C3.41274445,4.31567466 3.69000026,4.59851187 3.98553515,4.59837239 Z M6.82618631,1.1386049 L7.9533491,1.13804589 C8.13948863,1.13762815 8.28962817,1.28818629 8.29004677,1.47390722 L8.29158166,3.73813978 C8.29144212,3.92386071 8.14116305,4.07469792 7.95544212,4.07469792 L6.82772119,4.07539646 C6.64227933,4.0758142 6.49172119,3.92511652 6.49144212,3.73939559 L6.49004639,1.47474443 C6.4897677,1.28944211 6.64018631,1.1386049 6.82618631,1.1386049 Z" id="Shape"></path>
                        <path d="M9.64897701,6.14093048 L2.29493049,6.14093048 C1.95209329,6.14093048 1.6741398,6.4310235 1.6741398,6.78893048 L1.6741398,11.5392561 L10.2701863,11.5392561 L10.2701863,6.78879094 C10.2700468,6.4310235 9.99209329,6.14093048 9.64897701,6.14093048 Z" id="Path"></path>
                        <path d="M6.82772119,4.07539598 L7.95544212,4.07469792 C8.14116305,4.07469792 8.29144212,3.92386071 8.29158166,3.73813978 L8.29004677,1.47390722 C8.28962817,1.28818629 8.1393491,1.13748862 7.9533491,1.13804521 L6.82618631,1.1386049 C6.64018631,1.1386049 6.4897677,1.28944211 6.48990714,1.47474443 L6.49130259,3.73939559 C6.49172119,3.92511652 6.64227933,4.07567466 6.82772119,4.07539598 Z" id="Path" fill="#FFFFF0" fill-rule="nonzero"></path>
                        <path d="M11.9380468,2.40948862 C11.9377677,2.19251187 11.8855817,2.01446536 11.7457677,1.87507001 C11.6557677,1.78520955 10.6712096,0.801767688 10.1652561,0.295814199 C9.98679096,0.118465362 9.6517677,-0.000139289129 9.40227933,1.22768129e-07 C9.15265143,0.000139780638 0.994186309,0.0055816411 0.994186309,0.0055816411 C0.444697937,0.00627931552 -0.000278807504,0.451674664 1.31070106e-07,1.00088397 L0.00711654133,11.5640933 C0.00753514598,12.1137212 0.453209565,12.5584189 1.0025584,12.5582793 L10.9500003,12.5515816 C11.4993491,12.5514421 11.9444654,12.1054886 11.9443259,11.5565584 C11.9441863,11.5564189 11.9380468,2.54358164 11.9380468,2.40948862 Z M8.90497701,0.616046757 L8.9073491,4.01651187 C8.9073491,4.31190722 8.60344212,4.59530257 8.30790724,4.59558164 L3.98553515,4.59851193 C3.6901398,4.59865141 3.41288398,4.3158142 3.41288398,4.02027932 L3.41051189,0.619953734 L8.90497701,0.616046757 Z M10.2700468,11.5392561 L1.6741398,11.5392561 L1.6741398,6.78879094 C1.6741398,6.4310235 1.95209329,6.14079094 2.29493049,6.14079094 L9.64897701,6.14079094 C9.99209329,6.14079094 10.2700468,6.43088397 10.2700468,6.78879094 L10.2700468,11.5392561 L10.2700468,11.5392561 Z" id="Shape" fill="#FFFFFF" fill-rule="nonzero"></path>
                    </g>
                    <mask id="mask-16" fill="white">
                        <use xlink:href="#path-15"></use>
                    </mask>
                    <use id="Style-Copy-3" fill="#6BAAF4" xlink:href="#path-15"></use>
                    <mask id="mask-18" fill="white">
                        <use xlink:href="#path-17"></use>
                    </mask>
                    <use id="Style-Copy-4" fill="#FF6460" xlink:href="#path-17"></use>
                    <text id="Button-Text-Copy-3" font-family="Helvetica" font-size="14" font-weight="normal" line-spacing="20" fill="#FFFFFF">
                        <tspan x="494.527832" y="740">Supprimer Brouillon</tspan>
                    </text>
                    <g id="Group-Copy" transform="translate(472.496458, 730.106552)" fill="#FFFFFF" fill-rule="nonzero">
                        <polygon id="Rectangle" transform="translate(6.000495, 6.055543) rotate(45.000000) translate(-6.000495, -6.055543) " points="4.65882353 -0.988232599 7.34216682 -0.988232599 7.34216682 13.0993194 4.65882353 13.0993194"></polygon>
                        <polygon id="Rectangle" transform="translate(6.000496, 6.055541) rotate(135.000000) translate(-6.000496, -6.055541) " points="4.65882403 -0.988235294 7.34216732 -0.988235294 7.34216732 13.0993167 4.65882403 13.0993167"></polygon>
                    </g>
                    <text id="Button-Text-Copy-4" font-family="Helvetica" font-size="14" font-weight="normal" line-spacing="20" fill="#FFFFFF">
                        <tspan x="64" y="740">Soumettre</tspan>
                    </text>
                    <path d="M49.5040283,733.014452 L52.9085255,736.380134 C53.6913308,737.165696 52.517019,738.344142 51.7342137,737.558581 L50.2719938,736.091052 C50.0270123,735.845181 49.8304462,735.927629 49.8304462,736.27269 L49.8304462,742.385484 C49.8304462,742.845863 49.4586604,743.21875 49.0001038,743.21875 C48.5413396,743.21875 48.1697614,742.845863 48.1697614,742.385484 L48.1697614,736.27269 C48.1697614,735.928829 47.9720522,735.846307 47.7281656,736.091052 L46.2657863,737.558581 C45.482981,738.344142 44.3086692,737.165696 45.0914745,736.380134 L48.4680092,733.016454 C48.7531449,732.732404 49.2174019,732.731094 49.5040283,733.014452 Z M44.8333333,730.666667 C44.373096,730.666667 44,730.293571 44,729.833333 C44,729.373096 44.373096,729 44.8333333,729 L53.1666667,729 C53.626904,729 54,729.373096 54,729.833333 C54,730.293571 53.626904,730.666667 53.1666667,730.666667 L44.8333333,730.666667 Z" id="Shape-Copy" fill="#FFFFFF" fill-rule="nonzero"></path>
                    <g id="Rectangle">
                        <use fill="black" fill-opacity="1" filter="url(#filter-20)" xlink:href="#path-19"></use>
                        <rect stroke="#D6D6D6" stroke-width="1" stroke-linejoin="square" fill="#FFFFFF" fill-rule="evenodd" x="33.5" y="111.5" width="884" height="586" rx="1"></rect>
                    </g>
                    <text id="Label-Text" font-family="Helvetica" font-size="12" font-weight="normal" line-spacing="16" letter-spacing="0.4" fill="#3D5056">
                        <tspan x="33" y="95">Version </tspan>
                        <tspan x="33" y="111">:</tspan>
                    </text>
                    <path d="M237.510252,85.7872228 C237.510252,83.851416 235.926411,82.3115697 234.034599,82.3115697 C232.142788,82.3115697 230.558946,83.8954116 230.558946,85.7872228 C230.558946,87.1510867 231.350867,88.2949726 232.450757,88.9109111 C231.92281,91.4186608 229.855016,92.5625466 226.951306,93.8824149 C226.247377,94.1903842 225.543447,94.5423491 224.883513,94.8943139 L224.883513,84.643337 C226.071394,84.1153897 226.951306,82.8835126 226.951306,81.4756531 C226.951306,79.5398463 225.367464,78 223.475653,78 C221.539846,78 220,79.5838419 220,81.4756531 C220,82.8835126 220.835917,84.1153897 222.067794,84.643337 L222.067794,100.217783 L222.067794,97.5780461 L222.067794,100.965708 C220.879912,101.493655 220,102.725532 220,104.133392 C220,106.069199 221.583842,107.609045 223.475653,107.609045 C225.41146,107.609045 226.951306,106.025203 226.951306,104.133392 C226.951306,102.725532 226.11539,101.493655 224.883513,100.965708 L224.883513,98.8979144 C224.883513,98.0180022 226.11539,97.4020637 228.139188,96.4781559 C230.954907,95.2022832 234.650538,93.4864544 235.354468,89.0428979 C236.63034,88.5149506 237.510252,87.2830735 237.510252,85.7872228 Z M223.475653,79.7598244 C224.443557,79.7598244 225.191482,80.5517453 225.191482,81.4756531 C225.191482,82.4435565 224.399561,83.1914819 223.475653,83.1914819 C222.50775,83.1914819 221.759824,82.3995609 221.759824,81.4756531 C221.759824,80.5517453 222.50775,79.7598244 223.475653,79.7598244 Z M223.475653,105.849221 C222.50775,105.849221 221.759824,105.0573 221.759824,104.133392 C221.759824,103.165488 222.551745,102.417563 223.475653,102.417563 C224.443557,102.417563 225.191482,103.209484 225.191482,104.133392 C225.191482,105.101295 224.399561,105.849221 223.475653,105.849221 Z M234.034599,87.5470472 L234.034599,87.5470472 C233.066696,87.5470472 232.318771,86.7551262 232.318771,85.8312184 C232.318771,84.863315 233.110692,84.1153897 234.034599,84.1153897 C234.958507,84.1153897 235.750428,84.9073106 235.750428,85.8312184 C235.750428,86.7551262 235.002503,87.5470472 234.034599,87.5470472 Z" id="Shape" fill="#C7C7C7" fill-rule="nonzero" transform="translate(228.755126, 92.804522) rotate(-270.000000) translate(-228.755126, -92.804522) "></path>
                    <text id="Il-est-recommandé-de" font-family="Helvetica" font-size="16" font-weight="normal" line-spacing="28" letter-spacing="0.084" fill="#343434">
                        <tspan x="59" y="238">Il est recommandé de prendre contact auprès de la population vulnérable afin de:</tspan>
                        <tspan x="59" y="266"></tspan>
                        <tspan x="59" y="294">- l’informer des consignes à respecter;</tspan>
                        <tspan x="59" y="322">- l’informer des mesures mises à sa disposition;</tspan>
                        <tspan x="59" y="350">- s’enquérir d'éventuels besoins spécifiques.</tspan>
                        <tspan x="59" y="378"> </tspan>
                        <tspan x="59" y="406">La mission services aux sinistrés sera en charge de prendre contact avec le CISSS afin de </tspan>
                        <tspan x="59" y="434">s'assurer que la clientèle concernée est identifiée. En parallèle, la mission communication devra </tspan>
                        <tspan x="59" y="462">faire la promotion de la démarche voisins solidaires, sollicitée en support aux interventions </tspan>
                        <tspan x="59" y="490">municipales.</tspan>
                    </text>
                    <line x1="604" y1="450" x2="604" y2="472" id="Line" stroke="#1D1D1D" stroke-linecap="square"></line>
                    <g id="Group-2" transform="translate(40.000000, 486.000000)">
                        <rect id="Rectangle-Copy-10" fill="#F1F1F1" x="19" y="9" width="710" height="1"></rect>
                        <circle id="Oval" stroke="#F1F1F1" cx="9.5" cy="9.5" r="9.5"></circle>
                        <path d="M10,5 C10.5522847,5 11,5.44771525 11,6 L10.999,7.999 L13,8 C13.5522847,8 14,8.44771525 14,9 L14,10 C14,10.5522847 13.5522847,11 13,11 L10.999,10.999 L11,13 C11,13.5522847 10.5522847,14 10,14 L9,14 C8.44771525,14 8,13.5522847 8,13 L7.999,10.999 L6,11 C5.44771525,11 5,10.5522847 5,10 L5,9 C5,8.44771525 5.44771525,8 6,8 L7.999,7.999 L8,6 C8,5.44771525 8.44771525,5 9,5 L10,5 Z" id="Icon-color" fill="#DCDCDC"></path>
                    </g>
                    <g id="Group-2" transform="translate(40.000000, 202.000000)">
                        <rect id="Rectangle-Copy-10" fill="#F1F1F1" x="19" y="9" width="710" height="1"></rect>
                        <circle id="Oval" stroke="#F1F1F1" cx="9.5" cy="9.5" r="9.5"></circle>
                        <path d="M10,5 C10.5522847,5 11,5.44771525 11,6 L10.999,7.999 L13,8 C13.5522847,8 14,8.44771525 14,9 L14,10 C14,10.5522847 13.5522847,11 13,11 L10.999,10.999 L11,13 C11,13.5522847 10.5522847,14 10,14 L9,14 C8.44771525,14 8,13.5522847 8,13 L7.999,10.999 L6,11 C5.44771525,11 5,10.5522847 5,10 L5,9 C5,8.44771525 5.44771525,8 6,8 L7.999,7.999 L8,6 C8,5.44771525 8.44771525,5 9,5 L10,5 Z" id="Icon-color" fill="#DCDCDC"></path>
                    </g>
                    <path d="M38,112 L913,112 C915.209139,112 917,113.790861 917,116 L917,192 L917,192 L34,192 L34,116 C34,113.790861 35.790861,112 38,112 Z" id="Rectangle-Copy-12" fill="#FBFBFB"></path>
                    <text id="Label-Text" font-family="Helvetica" font-size="12" font-weight="normal" line-spacing="16" letter-spacing="0.4" fill="#3D5056">
                        <tspan x="46" y="123">Fichier</tspan>
                    </text>
                    <text id="Label-Text-Copy-7" font-family="Helvetica" font-size="12" font-weight="normal" line-spacing="16" letter-spacing="0.4" fill="#3D5056">
                        <tspan x="46" y="163">Paragraphe</tspan>
                    </text>
                    <text id="Label-Text-Copy" font-family="Helvetica" font-size="12" font-weight="normal" line-spacing="16" letter-spacing="0.4" fill="#3D5056">
                        <tspan x="110" y="123">Éditer</tspan>
                    </text>
                    <text id="Label-Text-Copy-2" font-family="Helvetica" font-size="12" font-weight="normal" line-spacing="16" letter-spacing="0.4" fill="#3D5056">
                        <tspan x="179" y="123">Insérer</tspan>
                    </text>
                    <text id="Label-Text-Copy-3" font-family="Helvetica" font-size="12" font-weight="normal" line-spacing="16" letter-spacing="0.4" fill="#3D5056">
                        <tspan x="254" y="123">Formater</tspan>
                    </text>
                    <text id="Label-Text-Copy-4" font-family="Helvetica" font-size="12" font-weight="normal" line-spacing="16" letter-spacing="0.4" fill="#3D5056">
                        <tspan x="328" y="123">Tableaux</tspan>
                    </text>
                    <text id="Label-Text-Copy-5" font-family="Helvetica" font-size="12" font-weight="normal" line-spacing="16" letter-spacing="0.4" fill="#3D5056">
                        <tspan x="401" y="123">Outils</tspan>
                    </text>
                    <text id="Label-Text-Copy-6" font-family="Helvetica" font-size="12" font-weight="normal" line-spacing="16" letter-spacing="0.4" fill="#3D5056">
                        <tspan x="470" y="123">Aide</tspan>
                    </text>
                    <g transform="translate(650.000000, 162.000000)" fill="#979797" fill-rule="nonzero">
                        <path d="M19.1756757,0 L2.82432432,0 C1.26708108,0 0,1.26708108 0,2.82432432 L0,19.1756757 C0,20.7329189 1.26708108,22 2.82432432,22 L19.1756757,22 C20.7329189,22 22,20.7329189 22,19.1756757 L22,2.82432432 C22,1.26708108 20.7329189,0 19.1756757,0 Z M2.82432432,1.48648649 L19.1756757,1.48648649 C19.912973,1.48648649 20.5135135,2.08672973 20.5135135,2.82432432 L20.5135135,9.59794595 L17.7171351,6.80127027 C17.223027,6.30716216 16.4176486,6.31072973 15.9187838,6.8092973 L10.6034054,12.1246757 L8.20391892,9.72459459 C7.70951351,9.23048649 6.90413514,9.23405405 6.40556757,9.73262162 L1.48648649,14.6517027 L1.48648649,2.82432432 C1.48648649,2.08672973 2.08672973,1.48648649 2.82432432,1.48648649 Z" id="Shape"></path>
                        <circle id="Oval" cx="6.92791892" cy="6.43291892" r="2.07275676"></circle>
                    </g>
                    <g transform="translate(691.000000, 161.000000)" fill="#979797" fill-rule="nonzero" id="Path">
                        <path d="M10.4972389,15.7467994 C10.284137,15.6936756 10.0759708,15.6224168 9.87501778,15.5338028 L6.52585389,18.8830583 C5.58418045,19.822486 4.05952656,19.8215758 3.11897536,18.8810246 C2.17842416,17.9404734 2.17751403,16.4158195 3.11694167,15.4741461 L8.23031611,10.3608633 C8.45181658,10.1360109 8.71921271,9.96158289 9.01426167,9.84947944 C9.10633157,9.7950827 9.20738288,9.75757986 9.31264889,9.73874 C9.44793537,9.69529661 9.58826683,9.6695103 9.73016,9.66202111 C10.0553438,9.63403827 10.3828349,9.6716971 10.6931794,9.77276056 C11.0484507,9.89571287 11.3716787,10.0966641 11.6391367,10.3608633 C11.8636069,10.5811011 12.0405386,10.845023 12.1590028,11.1363267 C12.176065,11.1364244 12.2016033,11.1278444 12.2186594,11.1278444 C12.48344,11.096466 12.7297783,10.9763041 12.9175017,10.7869544 L14.0850356,9.61942056 C13.8785216,9.26908475 13.6294918,8.94562136 13.3436111,8.65638889 C12.7442041,8.05827392 11.9974727,7.6290622 11.1789456,7.41216667 C11.0978505,7.38732254 11.0153285,7.36740069 10.9318306,7.35251 C10.8274571,7.31767702 10.7180245,7.30041472 10.6079967,7.30142722 C10.517736,7.28531136 10.4266948,7.27392306 10.3352456,7.26730889 C10.3330214,7.26498819 10.3299513,7.26366842 10.3267369,7.26365114 C10.3235225,7.26363387 10.3204385,7.26492057 10.3181894,7.26721722 C10.1716385,7.24461154 10.022982,7.23895114 9.87513389,7.25025278 C9.67270453,7.25138543 9.47056057,7.26561534 9.26996889,7.29285333 L9.25289444,7.29285333 L9.01426167,7.32696556 C8.58057739,7.42043248 8.15989863,7.56639863 7.76152667,7.76163667 C7.30413297,7.99139747 6.88686721,8.29355195 6.52586,8.65641944 L1.41257722,13.7696839 C-0.466613913,15.6529457 -0.464964224,18.7025091 1.41626335,20.5837367 C3.29749092,22.4649642 6.34705431,22.4666139 8.23031611,20.5874228 L12.9175017,15.9002372 C12.1086042,16.0114591 11.2856143,15.9592839 10.4972389,15.7467994 L10.4972389,15.7467994 Z"></path>
                        <path d="M20.5874228,1.41257722 C19.6835161,0.508146468 18.457241,-1.52044468e-06 17.1785533,-1.52044468e-06 C15.8998656,-1.52044468e-06 14.6735905,0.508146468 13.7696839,1.41257722 L9.08249833,6.09976278 C10.1154352,5.95442739 11.16837,6.07466887 12.1419467,6.44914111 L15.4741461,3.11703333 C16.4154659,2.17571353 17.9416469,2.17571353 18.8829667,3.11703333 C19.8242865,4.05835314 19.8242865,5.58453409 18.8829667,6.52585389 L15.5508589,9.85805333 L15.0735811,10.3352272 L14.5878333,10.8210606 L13.7696717,11.6391244 C13.3841591,12.0293017 12.8750118,12.273347 12.3293867,12.3294844 C12.1249564,12.3493868 11.91884,12.343657 11.7158311,12.3124283 C11.5156837,12.2926513 11.3200138,12.2408451 11.1363022,12.1589906 C10.5508869,11.9145019 10.0854614,11.4490764 9.84097278,10.8636611 C9.55460729,10.8860964 9.28564613,11.0099827 9.08247389,11.2130333 L7.91494,12.3805672 C8.32577741,13.0868319 8.91313145,13.6741859 9.61939611,14.0850233 C9.8009315,14.1956309 9.99201165,14.2897516 10.190345,14.3662567 C10.3929566,14.460246 10.6041714,14.5344493 10.8210483,14.5878333 C11.9643447,14.8958199 13.1810605,14.7714285 14.2383817,14.2384611 C14.5478829,14.0833331 14.8394095,13.8946805 15.1077178,13.6758967 L15.1162,13.6674144 C15.2355194,13.5651572 15.363315,13.4544178 15.4741522,13.3435806 L15.9002433,12.9174894 L20.5874289,8.23030389 C21.4918551,7.32639693 21.9999985,6.10012398 21.9999985,4.82143929 C21.9999985,3.54275459 21.4918506,2.31648256 20.5874228,1.41257722 Z"></path>
                    </g>
                    <path d="M191.802469,162 L168.410494,162 C167.079667,162.001092 166.001092,163.079667 166,164.410494 L166,181.589506 C166.001092,182.920333 167.079667,183.998908 168.410494,184 L191.802469,184 C193.133296,183.998908 194.211871,182.920333 194.212963,181.589506 L194.212963,164.410494 C194.211871,163.079667 193.133296,162.001092 191.802469,162 L191.802469,162 Z M176.156893,177.964372 L176.156893,174.184198 L184.05607,174.184198 L184.05607,177.964372 L176.156893,177.964372 Z M184.05607,179.09606 L184.05607,182.868313 L176.156893,182.868313 L176.156893,179.09606 L184.05607,179.09606 Z M193.081276,169.271091 L193.081276,173.05251 L185.187757,173.05251 L185.187757,169.271091 L193.081276,169.271091 Z M184.05607,169.271091 L184.05607,173.05251 L176.156893,173.05251 L176.156893,169.271091 L184.05607,169.271091 Z M175.025206,173.05251 L167.131687,173.05251 L167.131687,169.271091 L175.025206,169.271091 L175.025206,173.05251 Z M167.131687,174.184198 L175.025206,174.184198 L175.025206,177.964372 L167.131687,177.964372 L167.131687,174.184198 Z M185.187757,174.184198 L193.081276,174.184198 L193.081276,177.964372 L185.187757,177.964372 L185.187757,174.184198 Z M167.131687,181.589506 L167.131687,179.09606 L175.025206,179.09606 L175.025206,182.868313 L168.410494,182.868313 C167.704758,182.867036 167.132964,182.295242 167.131687,181.589506 Z M191.802469,182.868313 L185.187757,182.868313 L185.187757,179.09606 L193.081276,179.09606 L193.081276,181.589506 C193.081622,181.928773 192.947002,182.254243 192.707104,182.494141 C192.467206,182.734039 192.141736,182.868659 191.802469,182.868313 L191.802469,182.868313 Z" id="Shape" fill="#979797" fill-rule="nonzero"></path>
                    <path d="M747.181415,175.093078 C747.373673,175.314238 747.673656,175.408998 747.958072,175.338412 C748.242489,175.267827 748.463357,175.043803 748.529901,174.758415 C748.596445,174.473026 748.49744,174.174417 748.273576,173.985315 L745.667992,171.418738 L750.847954,171.418738 C754.294718,171.418738 757.088872,174.212892 757.088872,177.659656 L757.088872,179.219885 C757.088872,179.650731 757.438142,180 757.868987,180 C758.299833,180 758.649102,179.650731 758.649102,179.219885 L758.649102,177.659656 C758.649102,173.351201 755.156409,169.858508 750.847954,169.858508 L745.683595,169.858508 L748.273576,167.291931 C748.540993,166.984313 748.526516,166.522677 748.240348,166.23242 C747.95418,165.942164 747.492795,165.92114 747.181415,166.184168 L743.234034,170.084742 C743.085145,170.230679 743.000865,170.430141 743,170.638623 C743.000865,170.847106 743.085145,171.046567 743.234034,171.192505 L747.181415,175.093078 Z" id="Path" fill="#979797" fill-rule="nonzero"></path>
                    <path d="M785.181415,175.093078 C785.373673,175.314238 785.673656,175.408998 785.958072,175.338412 C786.242489,175.267827 786.463357,175.043803 786.529901,174.758415 C786.596445,174.473026 786.49744,174.174417 786.273576,173.985315 L783.667992,171.418738 L788.847954,171.418738 C792.294718,171.418738 795.088872,174.212892 795.088872,177.659656 L795.088872,179.219885 C795.088872,179.650731 795.438142,180 795.868987,180 C796.299833,180 796.649102,179.650731 796.649102,179.219885 L796.649102,177.659656 C796.649102,173.351201 793.156409,169.858508 788.847954,169.858508 L783.683595,169.858508 L786.273576,167.291931 C786.540993,166.984313 786.526516,166.522677 786.240348,166.23242 C785.95418,165.942164 785.492795,165.92114 785.181415,166.184168 L781.234034,170.084742 C781.085145,170.230679 781.000865,170.430141 781,170.638623 C781.000865,170.847106 781.085145,171.046567 781.234034,171.192505 L785.181415,175.093078 Z" id="Path-Copy" fill="#979797" fill-rule="nonzero" transform="translate(788.824551, 173.000000) scale(1, -1) rotate(-180.000000) translate(-788.824551, -173.000000) "></path>
                    <g id="Group-3-Copy-3" transform="translate(447.000000, 169.000000)" fill="#D8D8D8" stroke="#979797">
                        <rect id="Rectangle-Copy-4" transform="translate(5.500000, 8.500000) rotate(-180.000000) translate(-5.500000, -8.500000) " x="0.5" y="8.5" width="10" height="1"></rect>
                        <rect id="Rectangle-Copy-5" transform="translate(5.500000, 0.500000) rotate(-180.000000) translate(-5.500000, -0.500000) " x="0.5" y="0.5" width="10" height="1"></rect>
                        <rect id="Rectangle-Copy-6" transform="translate(8.000000, 4.500000) rotate(-180.000000) translate(-8.000000, -4.500000) " x="5.5" y="4.5" width="5" height="1"></rect>
                    </g>
                    <g id="Group-3-Copy-4" transform="translate(584.000000, 168.000000)" stroke="#979797">
                        <rect id="Rectangle-Copy-4" fill="#D8D8D8" transform="translate(3.000000, 8.500000) rotate(-180.000000) translate(-3.000000, -8.500000) " x="0.5" y="8.5" width="5" height="1"></rect>
                        <rect id="Rectangle-Copy-5" transform="translate(3.000000, 0.500000) rotate(-180.000000) translate(-3.000000, -0.500000) " x="0.5" y="0.5" width="5" height="1"></rect>
                        <rect id="Rectangle-Copy-6" fill="#D8D8D8" transform="translate(3.000000, 4.500000) rotate(-180.000000) translate(-3.000000, -4.500000) " x="0.5" y="4.5" width="5" height="1"></rect>
                    </g>
                    <g id="Group-3-Copy-5" transform="translate(615.000000, 172.500000) rotate(-180.000000) translate(-615.000000, -172.500000) translate(612.000000, 168.000000)" stroke="#979797">
                        <rect id="Rectangle-Copy-4" fill="#D8D8D8" transform="translate(3.000000, 8.500000) rotate(-180.000000) translate(-3.000000, -8.500000) " x="0.5" y="8.5" width="5" height="1"></rect>
                        <rect id="Rectangle-Copy-5" transform="translate(3.000000, 0.500000) rotate(-180.000000) translate(-3.000000, -0.500000) " x="0.5" y="0.5" width="5" height="1"></rect>
                        <rect id="Rectangle-Copy-6" fill="#D8D8D8" transform="translate(3.000000, 4.500000) rotate(-180.000000) translate(-3.000000, -4.500000) " x="0.5" y="4.5" width="5" height="1"></rect>
                    </g>
                    <g id="Group-2-Copy" transform="translate(413.000000, 169.000000)" fill="#D8D8D8" stroke="#979797">
                        <rect id="Rectangle-Copy-7" transform="translate(6.500000, 8.500000) rotate(-180.000000) translate(-6.500000, -8.500000) " x="0.5" y="8.5" width="12" height="1"></rect>
                        <rect id="Rectangle-Copy-22" transform="translate(6.500000, 0.500000) rotate(-180.000000) translate(-6.500000, -0.500000) " x="0.5" y="0.5" width="12" height="1"></rect>
                        <rect id="Rectangle-Copy-9" transform="translate(6.500000, 4.500000) rotate(-180.000000) translate(-6.500000, -4.500000) " x="3.5" y="4.5" width="6" height="1"></rect>
                    </g>
                    <text id="U-Copy" font-family="Helvetica" font-size="16" font-weight="normal" fill="#979797">
                        <tspan x="479.722656" y="171">U</tspan>
                    </text>
                    <text id="1-2-copy" font-family="Helvetica" font-size="10" font-weight="normal" line-spacing="10" fill="#979797">
                        <tspan x="506.212402" y="162.78418">1</tspan>
                        <tspan x="506.212402" y="172.78418">2</tspan>
                    </text>
                    <text id="•-•-copy" font-family="Helvetica" font-size="13" font-weight="normal" line-spacing="7" fill="#979797">
                        <tspan x="536.865479" y="161.419434">•</tspan>
                        <tspan x="536.865479" y="168.419434">•</tspan>
                    </text>
                    <line x1="33.5717054" y1="192" x2="917.428295" y2="192" id="Line-2" stroke="#D6D6D6" stroke-linecap="square"></line>
                    <line x1="33.5717054" y1="152" x2="917.428295" y2="152" id="Line-2-Copy" stroke="#D6D6D6" stroke-linecap="square"></line>
                    <line x1="154" y1="153" x2="154" y2="191" id="Line-4" stroke="#D6D6D6" stroke-linecap="square"></line>
                    <line x1="234" y1="153" x2="234" y2="191" id="Line-4-Copy" stroke="#D6D6D6" stroke-linecap="square"></line>
                    <g id="02-Icons-/-16x16-/-ic16-chevron-down" transform="translate(200.000000, 170.000000)" fill="#979797">
                        <path d="M10.2928932,6.70710678 C10.6834175,7.09763107 11.3165825,7.09763107 11.7071068,6.70710678 C12.0976311,6.31658249 12.0976311,5.68341751 11.7071068,5.29289322 L6.70710678,0.292893219 C6.31658249,-0.0976310729 5.68341751,-0.0976310729 5.29289322,0.292893219 L0.292893219,5.29289322 C-0.0976310729,5.68341751 -0.0976310729,6.31658249 0.292893219,6.70710678 C0.683417511,7.09763107 1.31658249,7.09763107 1.70710678,6.70710678 L6,2.41421356 L10.2928932,6.70710678 Z" id="Icon-Color" transform="translate(6.000000, 3.500000) scale(1, -1) translate(-6.000000, -3.500000) "></path>
                    </g>
                    <g id="02-Icons-/-16x16-/-ic16-chevron-down-Copy" transform="translate(122.000000, 170.000000)" fill="#3D5056">
                        <path d="M10.2928932,6.70710678 C10.6834175,7.09763107 11.3165825,7.09763107 11.7071068,6.70710678 C12.0976311,6.31658249 12.0976311,5.68341751 11.7071068,5.29289322 L6.70710678,0.292893219 C6.31658249,-0.0976310729 5.68341751,-0.0976310729 5.29289322,0.292893219 L0.292893219,5.29289322 C-0.0976310729,5.68341751 -0.0976310729,6.31658249 0.292893219,6.70710678 C0.683417511,7.09763107 1.31658249,7.09763107 1.70710678,6.70710678 L6,2.41421356 L10.2928932,6.70710678 Z" id="Icon-Color" transform="translate(6.000000, 3.500000) scale(1, -1) translate(-6.000000, -3.500000) "></path>
                    </g>
                    <text id="T-Copy" font-family="Helvetica" font-size="10" font-weight="normal" fill="#979797">
                        <tspan x="251.445801" y="171.5">T</tspan>
                    </text>
                    <text id="T-Copy-2" font-family="Helvetica" font-size="20" font-weight="normal" fill="#979797">
                        <tspan x="281.391602" y="175">T</tspan>
                    </text>
                    <text id="I-Copy" font-family="Helvetica" font-size="20" font-weight="normal" fill="#979797">
                        <tspan x="350.72168" y="176">I</tspan>
                    </text>
                    <polyline id="Path-2-Copy-2" stroke="#979797" transform="translate(580.000000, 172.500000) rotate(-90.000000) translate(-580.000000, -172.500000) " points="577 174 580 171 583 174"></polyline>
                    <polyline id="Path-2-Copy-3" stroke="#979797" transform="translate(622.000000, 172.500000) rotate(-270.000000) translate(-622.000000, -172.500000) " points="619 174 622 171 625 174"></polyline>
                    <rect id="Rectangle" fill="#D8D8D8" x="899" y="198" width="7" height="89" rx="3"></rect>
                    <rect id="Rectangle" fill="#F6F6F6" x="1" y="1" width="948" height="72"></rect>
                    <text id="2020-09-03-12:34:23" font-family="Helvetica" font-size="11" font-weight="normal" fill="#3D5056">
                        <tspan x="841" y="53"> 2020 09 03</tspan>
                        <tspan x="899.109863" y="53">  12:34:23</tspan>
                    </text>
                    <rect id="Rectangle-Copy-12" stroke="#E9EBF0" fill="#FFFFFF" x="812" y="10" width="129" height="27" rx="4"></rect>
                    <path d="M931.4141,24 L933.7071,21.707 C934.0981,21.316 934.0981,20.684 933.7071,20.293 C933.3161,19.902 932.6841,19.902 932.2931,20.293 L930.0001,22.586 L927.7071,20.293 C927.3161,19.902 926.6841,19.902 926.2931,20.293 C925.9021,20.684 925.9021,21.316 926.2931,21.707 L928.5861,24 L926.2931,26.293 C925.9021,26.684 925.9021,27.316 926.2931,27.707 C926.4881,27.902 926.7441,28 927.0001,28 C927.2561,28 927.5121,27.902 927.7071,27.707 L930.0001,25.414 L932.2931,27.707 C932.4881,27.902 932.7441,28 933.0001,28 C933.2561,28 933.5121,27.902 933.7071,27.707 C934.0981,27.316 934.0981,26.684 933.7071,26.293 L931.4141,24 Z" id="Icon-color" fill="#767676"></path>
                    <text id="Édition" font-family="Helvetica" font-size="12" font-weight="normal" fill="#767676">
                        <tspan x="841" y="27">Édition</tspan>
                    </text>
                    <path d="M834.773641,19.248 L831.764457,16.2266667 C831.617992,16.0826667 831.423594,16 831.218543,16 C831.016156,16 830.819094,16.0826667 830.675292,16.2266667 L820.441404,26.4773333 C820.348199,26.5706667 820.281624,26.6826667 820.247005,26.808 L819.030017,31.0186667 C818.95279,31.2853333 819.027354,31.5733333 819.221752,31.7706667 C819.368217,31.92 819.565278,32 819.770329,32 C819.836904,32 819.906142,31.9893333 819.972717,31.9706667 L824.214867,30.8026667 C824.342691,30.768 824.459863,30.6986667 824.553067,30.6026667 L834.778967,20.3306667 C835.074559,20.0346667 835.074559,19.5493333 834.773641,19.248 Z M820.886124,30.128 L821.434701,28.2266667 L822.816795,29.5946667 L820.886124,30.128 Z M824.007154,28.9786667 L822.052515,27.0373333 L829.333143,19.7466667 L831.274466,21.672 L824.007154,28.9786667 Z M832.177221,20.7653333 L830.238561,18.84 L831.218543,17.8586667 L833.146551,19.792 L832.177221,20.7653333 Z" id="Shape" fill="#767676" fill-rule="nonzero"></path>
                    <g id="Save-Icon" transform="translate(820.000000, 43.000000)">
                        <g id="Group-3" transform="translate(0.032558, -0.000163)">
                            <path d="M4.649791,5.36476779 L9.69255845,5.36134912 C10.0373491,5.36118633 10.3919073,5.03039564 10.3919073,4.68576773 L10.3891398,0.718558426 L3.97893054,0.723279356 L3.98153519,4.69016308 C3.98153519,5.03495378 4.30500031,5.36493052 4.649791,5.36476779 Z M7.96388403,1.32837238 L9.27890728,1.3277202 C9.49607007,1.32723284 9.67123286,1.50288401 9.67172124,1.71955843 L9.67351193,4.36116308 C9.67334914,4.5778375 9.49802356,4.75381424 9.28134914,4.75381424 L7.96567472,4.75462921 C7.74932589,4.75511657 7.57367472,4.57930261 7.57334914,4.36262819 L7.57172078,1.72053517 C7.57139565,1.50434912 7.74688403,1.32837238 7.96388403,1.32837238 Z" id="Shape"></path>
                            <path d="M11.2571398,7.16441889 L2.67741891,7.16441889 C2.27744217,7.16441889 1.9531631,7.50286075 1.9531631,7.92041889 L1.9531631,13.4624654 L11.981884,13.4624654 L11.981884,7.9202561 C11.9817212,7.50286075 11.6574422,7.16441889 11.2571398,7.16441889 Z" id="Path"></path>
                            <path d="M7.96567472,4.75462865 L9.28134914,4.75381424 C9.49802356,4.75381424 9.67334914,4.5778375 9.67351193,4.36116308 L9.67172124,1.71955843 C9.67123286,1.50288401 9.49590728,1.32707005 9.27890728,1.32771941 L7.96388403,1.32837238 C7.74688403,1.32837238 7.57139565,1.50434912 7.57155833,1.72053517 L7.57318635,4.36262819 C7.57367472,4.57930261 7.74932589,4.75495378 7.96567472,4.75462865 Z" id="Path" fill="#C7C7C7" fill-rule="nonzero"></path>
                            <path d="M13.9277212,2.81107005 C13.9273957,2.55793052 13.8665119,2.35020959 13.7033957,2.18758168 C13.5983957,2.08274447 12.4497445,0.935395636 11.8594654,0.345116566 C11.6512561,0.138209589 11.2603957,-0.000162503984 10.9693259,1.43229483e-07 C10.6780933,0.000163077411 1.15988403,0.00651191462 1.15988403,0.00651191462 C0.518814259,0.00732586811 -0.000325275421,0.526953775 1.52915124e-07,1.16769796 L0.00830263156,13.4914421 C0.00879100365,14.1326747 0.528744492,14.6514887 1.16965147,14.6513259 L12.7750003,14.6435119 C13.4159073,14.6433491 13.9352096,14.1230701 13.9350469,13.4826514 C13.934884,13.4824887 13.9277212,2.96751191 13.9277212,2.81107005 Z M10.3891398,0.718721217 L10.3919073,4.68593052 C10.3919073,5.03055843 10.0373491,5.36118633 9.69255845,5.36151191 L4.649791,5.36493058 C4.3051631,5.36509331 3.98169798,5.03511657 3.98169798,4.69032587 L3.97893054,0.723279356 L10.3891398,0.718721217 Z M11.9817212,13.4624654 L1.9531631,13.4624654 L1.9531631,7.9202561 C1.9531631,7.50286075 2.27744217,7.1642561 2.67741891,7.1642561 L11.2571398,7.1642561 C11.6574422,7.1642561 11.9817212,7.50269796 11.9817212,7.9202561 L11.9817212,13.4624654 L11.9817212,13.4624654 Z" id="Shape" fill="#C7C7C7" fill-rule="nonzero"></path>
                        </g>
                    </g>
                    <rect id="Rectangle-Copy" stroke="#E9EBF0" fill="#FFFFFF" x="69.5" y="11.5" width="737" height="51" rx="1"></rect>
                    <line x1="77.5" y1="25.5" x2="77.5" y2="47.5" id="Line-Copy" stroke="#1D1D1D" stroke-linecap="square"></line>
                    <text id="Button-Text" transform="translate(320.500000, 36.000000) rotate(360.000000) translate(-320.500000, -36.000000) " font-family="Helvetica" font-size="22" font-weight="normal" line-spacing="20" fill="#3989C9">
                        <tspan x="81" y="47">Prise de contacts auprès des clientèles vulnérables</tspan>
                    </text>
                    <use id="Rectangle-Copy-8" stroke="#AEACB0" mask="url(#mask-22)" stroke-width="2" fill="#FFFFFF" stroke-dasharray="1" xlink:href="#path-21"></use>
                    <path d="M44.2921618,37.2925647 L44.3863819,37.2093726 C44.7460312,36.9297545 45.2526985,36.9297545 45.6123477,37.2093726 L45.7065679,37.2925647 L45.7897678,37.3867761 C46.0694121,37.7463917 46.0694121,38.2530116 45.7897678,38.6126272 L45.7065679,38.7068386 L44.4141483,40.0001485 L54.0005776,39.9997869 C54.5134899,39.9997869 54.9362242,40.3858156 54.993998,40.8831395 L55.0007267,40.9997572 L54.993998,41.1165195 C54.9406684,41.5755877 54.5763664,41.9398245 54.1172161,41.9931446 L54.0005776,41.9998721 L44.4141483,42.0000891 L45.7065679,43.2928205 L45.7897678,43.3870318 C46.0948343,43.7793397 46.067101,44.346595 45.7065679,44.7070943 C45.3460349,45.0675936 44.7787266,45.0953243 44.3863819,44.7902864 L44.2921618,44.7070943 L41.291757,41.7069876 L41.1889115,41.5865239 L41.1349297,41.5039755 L41.1349297,41.5039755 L41.0761457,41.3861169 L41.0761457,41.3861169 L41.0408596,41.2874363 L41.0408596,41.2874363 L41.0098411,41.1488586 L41,41.0536421 L41.000279,40.9456662 L41.000279,40.9456662 L41.0098394,40.8513563 L41.0409452,40.711953 L41.0409452,40.711953 L41.0884942,40.585317 L41.0884942,40.585317 L41.1442122,40.4802548 L41.1442122,40.4802548 L41.1999718,40.3981123 L41.2524018,40.334327 L41.2524018,40.334327 L41.291757,40.2926714 L44.2921618,37.2925647 L44.3863819,37.2093726 L44.2921618,37.2925647 Z M53.6138971,29.2097136 L53.7081172,29.2929057 L56.708522,32.2930124 L56.7848174,32.3785241 L56.7848174,32.3785241 L56.835945,32.4489047 L56.835945,32.4489047 L56.8926443,32.5460168 L56.8926443,32.5460168 L56.9261999,32.6188969 L56.9512553,32.6863968 L56.9512553,32.6863968 L56.9666274,32.7378993 L56.9904396,32.8516973 L56.9904396,32.8516973 L57,32.9460072 L57,32.9460072 L56.9983852,33.074879 L56.9904379,33.1491996 L56.9594194,33.2877773 L56.9594194,33.2877773 L56.912433,33.4132812 L56.912433,33.4132812 L56.8653493,33.5043165 L56.8653493,33.5043165 L56.8113674,33.5868649 L56.8113674,33.5868649 L56.7773523,33.6298625 L56.7085258,33.7073074 L53.7081172,36.7074353 C53.3175398,37.0979762 52.6842886,37.0979762 52.2937111,36.7074353 C51.933178,36.3469359 51.9054447,35.7796807 52.2105111,35.3873728 L52.2937111,35.2931614 L53.5861307,34.0004301 L43.9997014,34.0002131 C43.4867891,34.0002131 43.0640548,33.6141844 43.006281,33.1168605 L42.9995523,33.0000982 C42.9995523,32.4478298 43.4473343,32.0001279 43.9997014,32.0001279 L53.5861307,32.0004895 L52.2937111,30.7071795 C51.933178,30.3466802 51.9054447,29.779425 52.2105111,29.3871171 L52.2937111,29.2929057 C52.6241997,28.962448 53.128437,28.9116083 53.5123867,29.1403868 L53.6138971,29.2097136 Z" id="Icon-Color-Copy" fill="#FC9100"></path>
                    <rect id="Rectangle" fill="#F1F1F1" x="1" y="72" width="948" height="1"></rect>
                    <rect id="Rectangle" stroke="#979797" x="381.5" y="169.5" width="10" height="1"></rect>
                    <rect id="Rectangle-Copy-3" stroke="#979797" x="381.5" y="177.5" width="10" height="1"></rect>
                    <rect id="Rectangle-Copy-2" stroke="#979797" x="381.5" y="173.5" width="5" height="1"></rect>
                    <text id="B-Copy" font-family="Helvetica" font-size="20" font-weight="normal" fill="#979797">
                        <tspan x="313.330078" y="184">B</tspan>
                    </text>
                    <rect id="Rectangle-Copy-26" x="305" y="157" width="30" height="30"></rect>
                    <rect id="Rectangle-Copy-27" x="371" y="157" width="30" height="30"></rect>
                    <g id="Group-5" transform="translate(93.000000, 80.000000)">
                        <g id="Fill±±±±84190B1B-ACB0-41ED-9097-28D99B1FA848">
                            <mask id="mask-25" fill="white">
                                <use xlink:href="#path-23"></use>
                            </mask>
                            <g id="Style" stroke="#DCDCDC" mask="url(#mask-24)" stroke-width="2" stroke-dasharray="3">
                                <use mask="url(#mask-26)" xlink:href="#path-23"></use>
                            </g>
                        </g>
                        <text id="Input-Text" font-family="Helvetica" font-size="12" font-weight="normal" line-spacing="16" letter-spacing="0.4" fill="#767676">
                            <tspan x="9.93671875" y="12">Version actuelle</tspan>
                        </text>
                    </g>
                    <mask id="mask-28" fill="white">
                        <use xlink:href="#path-27"></use>
                    </mask>
                    <use id="Style" fill="#F1F1F1" xlink:href="#path-27"></use>
                    <text id="Input-Text-Copy" font-family="Helvetica" font-size="12" font-weight="normal" line-spacing="16" letter-spacing="0.4" fill="#3D5056">
                        <tspan x="287.905469" y="92">Nouveau brouillon -  2020 09 28  </tspan>
                        <tspan x="354.544531" y="108">14:10:32</tspan>
                    </text>
                </g>
            </g>
            <g id="Group-4" transform="translate(508.000000, 74.000000)">
                <g id="01-Components-/-03-Dropdown-Menus-/-999-Primitives-/-01-Base">
                    <g id="Shadow" transform="translate(0.000000, 1.500000)">
                        <mask id="mask-30" fill="white">
                            <use xlink:href="#path-29"></use>
                        </mask>
                        <g id="Style">
                            <use fill="black" fill-opacity="1" filter="url(#filter-31)" xlink:href="#path-29"></use>
                            <use fill="#FFFFFF" fill-rule="evenodd" xlink:href="#path-29"></use>
                        </g>
                    </g>
                    <g id="Stroke" transform="translate(0.000000, 0.500000)">
                        <mask id="mask-33" fill="white">
                            <use xlink:href="#path-32"></use>
                        </mask>
                        <path stroke="#E8E8E8" d="M351,1 C351.966498,1 352.841498,1.39175084 353.474874,2.02512627 C354.108249,2.65850169 354.5,3.53350169 354.5,4.5 L354.5,4.5 L354.5,479.5 C354.5,480.466498 354.108249,481.341498 353.474874,481.974874 C352.841498,482.608249 351.966498,483 351,483 L351,483 L4,483 C3.03350169,483 2.15850169,482.608249 1.52512627,481.974874 C0.891750844,481.341498 0.5,480.466498 0.5,479.5 L0.5,479.5 L0.5,4.5 C0.5,3.53350169 0.891750844,2.65850169 1.52512627,2.02512627 C2.15850169,1.39175084 3.03350169,1 4,1 L4,1 Z"></path>
                    </g>
                </g>
                <g id="02-Icons-/-24x24-/-ic24-close" transform="translate(330.000000, 13.000000)" fill="#BDBCBC">
                    <path d="M8.41425,7.00025 L13.70725,1.70725 C14.09825,1.31625 14.09825,0.68425 13.70725,0.29325 C13.31625,-0.09775 12.68425,-0.09775 12.29325,0.29325 L7.00025,5.58625 L1.70725,0.29325 C1.31625,-0.09775 0.68425,-0.09775 0.29325,0.29325 C-0.09775,0.68425 -0.09775,1.31625 0.29325,1.70725 L5.58625,7.00025 L0.29325,12.29325 C-0.09775,12.68425 -0.09775,13.31625 0.29325,13.70725 C0.48825,13.90225 0.74425,14.00025 1.00025,14.00025 C1.25625,14.00025 1.51225,13.90225 1.70725,13.70725 L7.00025,8.41425 L12.29325,13.70725 C12.48825,13.90225 12.74425,14.00025 13.00025,14.00025 C13.25625,14.00025 13.51225,13.90225 13.70725,13.70725 C14.09825,13.31625 14.09825,12.68425 13.70725,12.29325 L8.41425,7.00025 Z" id="Icon-Color"></path>
                </g>
            </g>
        </g>
    </g>
</svg>