<?xml version="1.0" encoding="UTF-8"?>
<svg width="20px" height="19px" viewBox="0 0 20 19" version="1.1" xmlns="http://www.w3.org/2000/svg" xmlns:xlink="http://www.w3.org/1999/xlink">
    <!-- Generator: Sketch 59 (86127) - https://sketch.com -->
    <title>010-caution-sign</title>
    <desc>Created with Sketch.</desc>
    <g id="REZILIO-PLANS-v3" stroke="none" stroke-width="1" fill="none" fill-rule="evenodd">
        <g id="Login-page-/-Error-messages" transform="translate(-287.000000, -480.000000)" fill="#DE1C22" fill-rule="nonzero">
            <g id="010-caution-sign" transform="translate(287.000000, 480.000000)">
                <path d="M19.8656354,17.2511602 L10.5807182,0.376685083 C10.459337,0.156077348 10.2274033,0.0190055249 9.97563536,0.0190055249 C9.72381215,0.0190055249 9.49198895,0.156077348 9.37055249,0.376685083 L0.0855801105,17.2511602 C-0.0321546961,17.4650829 -0.028121547,17.7253039 0.0961325967,17.9355801 C0.22038674,18.1458011 0.44640884,18.2747514 0.690607735,18.2747514 L19.2606077,18.2747514 C19.5048619,18.2747514 19.730884,18.1458011 19.8551381,17.9355801 C19.9793923,17.7253039 19.9833702,17.4650829 19.8656354,17.2511602 Z M1.85889503,16.8934807 L9.97563536,2.1421547 L18.0923757,16.8934807 L1.85889503,16.8934807 Z" id="Shape"></path>
                <path d="M9.11016575,7.07651934 L9.11016575,12.0682873 C9.11016575,12.5461878 9.49767956,12.9337569 9.97563536,12.9337569 C10.4535359,12.9337569 10.841105,12.5461878 10.841105,12.0682873 L10.841105,7.07651934 C10.841105,6.59856354 10.4535359,6.21104972 9.97563536,6.21104972 C9.49767956,6.21104972 9.11016575,6.59861878 9.11016575,7.07651934 Z" id="Path"></path>
                <path d="M9.97563536,13.8322652 C9.47303867,13.8322652 9.06403315,14.2410497 9.06403315,14.7438674 C9.06403315,15.2465193 9.47303867,15.6554696 9.97563536,15.6554696 C10.478232,15.6554696 10.8872376,15.2465193 10.8872376,14.7438674 C10.8872376,14.241105 10.4781768,13.8322652 9.97563536,13.8322652 Z" id="Path"></path>
            </g>
        </g>
    </g>
</svg>