<?xml version="1.0" encoding="UTF-8"?>
<svg width="16px" height="12px" viewBox="0 0 16 12" version="1.1" xmlns="http://www.w3.org/2000/svg" xmlns:xlink="http://www.w3.org/1999/xlink">
    <!-- Generator: Sketch 59 (86127) - https://sketch.com -->
    <title>Icon Color</title>
    <desc>Created with Sketch.</desc>
    <g id="Symbols" stroke="none" stroke-width="1" fill="none" fill-rule="evenodd">
        <g id="Plan-/-Intervention" transform="translate(-32.000000, -20.000000)" fill="#030303">
            <path d="M33,30 C33.5522847,30 34,30.4477153 34,31 C34,31.5522847 33.5522847,32 33,32 C32.4477153,32 32,31.5522847 32,31 C32,30.4477153 32.4477153,30 33,30 Z M47,30 C47.5522847,30 48,30.4477153 48,31 C48,31.5522847 47.5522847,32 47,32 L37,32 C36.4477153,32 36,31.5522847 36,31 C36,30.4477153 36.4477153,30 37,30 L47,30 Z M33,25 C33.5522847,25 34,25.4477153 34,26 C34,26.5522847 33.5522847,27 33,27 C32.4477153,27 32,26.5522847 32,26 C32,25.4477153 32.4477153,25 33,25 Z M47,25 C47.5522847,25 48,25.4477153 48,26 C48,26.5522847 47.5522847,27 47,27 L37,27 C36.4477153,27 36,26.5522847 36,26 C36,25.4477153 36.4477153,25 37,25 L47,25 Z M33,20 C33.5522847,20 34,20.4477153 34,21 C34,21.5522847 33.5522847,22 33,22 C32.4477153,22 32,21.5522847 32,21 C32,20.4477153 32.4477153,20 33,20 Z M47,20 C47.5522847,20 48,20.4477153 48,21 C48,21.5522847 47.5522847,22 47,22 L37,22 C36.4477153,22 36,21.5522847 36,21 C36,20.4477153 36.4477153,20 37,20 L47,20 Z" id="Icon-Color"></path>
        </g>
    </g>
</svg>