<?xml version="1.0" encoding="UTF-8"?>
<svg width="10px" height="16px" viewBox="0 0 10 16" version="1.1" xmlns="http://www.w3.org/2000/svg" xmlns:xlink="http://www.w3.org/1999/xlink">
    <!-- Generator: Sketch 59 (86127) - https://sketch.com -->
    <title>Group 2</title>
    <desc>Created with Sketch.</desc>
    <g id="Page-1" stroke="none" stroke-width="1" fill="none" fill-rule="evenodd">
        <g id="Plan-Page-/-Sub-Section-/-Draft-Submited-/-Compare" transform="translate(-1004.000000, -216.000000)" fill="#3D5056" fill-rule="nonzero">
            <g id="Group-2" transform="translate(1004.000000, 216.000000)">
                <path d="M1.48333333,9.1 L1.48333333,10.3666667 L0.85,10.3666667 C0.5,10.3666667 0.2,10.65 0.2,11.0166667 C0.2,11.3666667 0.483333333,11.6666667 0.85,11.6666667 L8.9,11.6666667 C9.25,11.6666667 9.55,11.3833333 9.55,11.0166667 C9.55,10.6666667 9.26666667,10.3666667 8.9,10.3666667 L8.26666667,10.3666667 L8.26666667,9.1 C8.26666667,8.25 7.88333333,7.46666667 7.23333333,6.91666667 L5.9,5.83333333 L7.23333333,4.75 C7.88333333,4.21666667 8.26666667,3.41666667 8.26666667,2.56666667 L8.26666667,1.3 L8.9,1.3 C9.25,1.3 9.55,1.01666667 9.55,0.65 C9.55,0.283333333 9.26666667,0 8.9,0 L0.85,0 C0.5,0 0.2,0.283333333 0.2,0.65 C0.2,1.01666667 0.483333333,1.3 0.85,1.3 L1.48333333,1.3 L1.48333333,2.56666667 C1.48333333,3.41666667 1.86666667,4.2 2.51666667,4.75 L3.85,5.83333333 L2.51666667,6.91666667 C1.85,7.46666667 1.48333333,8.25 1.48333333,9.1 Z M2.76666667,2.58333333 L2.76666667,1.31666667 L6.95,1.31666667 L6.95,2.58333333 C6.95,3.03333333 6.75,3.46666667 6.4,3.75 L4.86666667,5 L3.33333333,3.75 C2.98333333,3.46666667 2.76666667,3.03333333 2.76666667,2.58333333 Z M3.33333333,7.93333333 L4.86666667,6.68333333 L6.4,7.93333333 C6.75,8.21666667 6.95,8.65 6.95,9.1 L6.95,10.3666667 L2.76666667,10.3666667 L2.76666667,9.1 C2.76666667,8.65 2.98333333,8.21666667 3.33333333,7.93333333 Z" id="Shape"></path>
                <circle id="Oval" cx="4.86666667" cy="14.6666667" r="1.18333333"></circle>
                <circle id="Oval" cx="1.18333333" cy="14.6666667" r="1.18333333"></circle>
                <circle id="Oval" cx="8.55" cy="14.6666667" r="1.18333333"></circle>
            </g>
        </g>
    </g>
</svg>