<?xml version="1.0" encoding="UTF-8"?>
<svg width="16px" height="16px" viewBox="0 0 16 16" version="1.1" xmlns="http://www.w3.org/2000/svg" xmlns:xlink="http://www.w3.org/1999/xlink">
    <!-- Generator: Sketch 59 (86127) - https://sketch.com -->
    <title>Shape Copy 3</title>
    <desc>Created with Sketch.</desc>
    <g id="Page-1" stroke="none" stroke-width="1" fill="none" fill-rule="evenodd">
        <g id="Plan-Page---Index-Copy-156" transform="translate(-1068.000000, -216.000000)" fill="#3D5056" fill-rule="nonzero">
            <path d="M1083.77364,219.248 L1080.76446,216.226667 C1080.61799,216.082667 1080.42359,216 1080.21854,216 C1080.01616,216 1079.81909,216.082667 1079.67529,216.226667 L1069.4414,226.477333 C1069.3482,226.570667 1069.28162,226.682667 1069.24701,226.808 L1068.03002,231.018667 C1067.95279,231.285333 1068.02735,231.573333 1068.22175,231.770667 C1068.36822,231.92 1068.56528,232 1068.77033,232 C1068.8369,232 1068.90614,231.989333 1068.97272,231.970667 L1073.21487,230.802667 C1073.34269,230.768 1073.45986,230.698667 1073.55307,230.602667 L1083.77897,220.330667 C1084.07456,220.034667 1084.07456,219.549333 1083.77364,219.248 Z M1069.88612,230.128 L1070.4347,228.226667 L1071.81679,229.594667 L1069.88612,230.128 Z M1073.00715,228.978667 L1071.05252,227.037333 L1078.33314,219.746667 L1080.27447,221.672 L1073.00715,228.978667 Z M1081.17722,220.765333 L1079.23856,218.84 L1080.21854,217.858667 L1082.14655,219.792 L1081.17722,220.765333 Z" id="Shape-Copy-3"></path>
        </g>
    </g>
</svg>