<?xml version="1.0" encoding="UTF-8"?>
<svg width="16px" height="12px" viewBox="0 0 16 12" version="1.1" xmlns="http://www.w3.org/2000/svg" xmlns:xlink="http://www.w3.org/1999/xlink">
    <!-- Generator: Sketch 59 (86127) - https://sketch.com -->
    <title>Group 10</title>
    <desc>Created with Sketch.</desc>
    <g id="Page-1" stroke="none" stroke-width="1" fill="none" fill-rule="evenodd">
        <g id="Onboarding-02-/-list-of-10" transform="translate(-442.000000, -92.000000)" fill="#8FA0A5" fill-rule="nonzero">
            <g id="Group-10" transform="translate(442.000000, 92.000000)">
                <g id="Group-2">
                    <path d="M15,2 L5,2 C4.44771525,2 4,1.55228475 4,1 C4,0.44771525 4.44771525,0 5,0 L15,0 C15.5522847,0 16,0.44771525 16,1 C16,1.55228475 15.5522847,2 15,2 Z" id="Path"></path>
                    <path d="M15,7 L5,7 C4.44771525,7 4,6.55228475 4,6 C4,5.44771525 4.44771525,5 5,5 L15,5 C15.5522847,5 16,5.44771525 16,6 C16,6.55228475 15.5522847,7 15,7 Z" id="Path"></path>
                    <path d="M15,12 L5,12 C4.44771525,12 4,11.5522847 4,11 C4,10.4477153 4.44771525,10 5,10 L15,10 C15.5522847,10 16,10.4477153 16,11 C16,11.5522847 15.5522847,12 15,12 Z" id="Path"></path>
                    <circle id="Oval" cx="1" cy="1" r="1"></circle>
                    <circle id="Oval" cx="1" cy="6" r="1"></circle>
                    <circle id="Oval" cx="1" cy="11" r="1"></circle>
                </g>
            </g>
        </g>
    </g>
</svg>