<?xml version="1.0" encoding="UTF-8"?>
<svg width="47px" height="28px" viewBox="0 0 47 28" version="1.1" xmlns="http://www.w3.org/2000/svg" xmlns:xlink="http://www.w3.org/1999/xlink">
    <!-- Generator: Sketch 59 (86127) - https://sketch.com -->
    <title>Group 4</title>
    <desc>Created with Sketch.</desc>
    <g id="Page-1" stroke="none" stroke-width="1" fill="none" fill-rule="evenodd">
        <g id="Authenticator-Page-v2" transform="translate(-203.000000, -772.000000)">
            <g id="Group-4" transform="translate(203.000000, 772.000000)">
                <path d="M3.80952376,1.77635684e-15 C1.69595233,1.77635684e-15 0,1.7777619 0,3.91371429 L0,23.6904857 C0,25.8263905 1.69595233,27.6190571 3.80952376,27.6190571 L36.1904761,27.6190571 C38.3041428,27.6190571 40,25.8263905 40,23.6904857 L40,3.91371429 C40,1.7777619 38.3041428,1.77635684e-15 36.1904761,1.77635684e-15 L3.80952376,1.77635684e-15 L3.80952376,1.77635684e-15 Z M3.80952376,1.9047619 L36.1904761,1.9047619 C36.4698571,1.9047619 36.7401904,1.97295238 36.9791904,2.08333333 L21.2351428,16.651819 C20.5077142,17.3247238 19.5382857,17.324819 18.8095238,16.651819 L3.03571424,2.08333333 C3.27166662,1.97642857 3.53480948,1.9047619 3.80952376,1.9047619 Z M1.93457138,3.66071429 L13.1101428,13.9881048 L2.1428571,24.6577238 C1.99814281,24.3718667 1.90476186,24.0478667 1.90476186,23.6904857 L1.90476186,3.91371429 C1.90476186,3.82619048 1.92523805,3.74457143 1.93476186,3.66071429 L1.93457138,3.66071429 Z M38.0655238,3.67547619 C38.0740952,3.75461905 38.0950476,3.83114286 38.0950476,3.91357143 L38.0950476,23.6903429 C38.0950476,24.0402476 38.011,24.3610095 37.8718571,24.6427238 L26.9343809,13.9731048 L38.0653333,3.67547619 L38.0655238,3.67547619 Z M25.550619,15.252819 L36.25,25.7141524 C36.23,25.7141524 36.2104761,25.7141524 36.1904761,25.7141524 L3.80952376,25.7141524 C3.79428567,25.7141524 3.77999995,25.7144857 3.76476186,25.7141524 L14.5088095,15.2677238 L17.5147619,18.0504381 C18.9278571,19.355581 21.1168571,19.3573905 22.5296666,18.0504381 L25.5504761,15.252819 L25.550619,15.252819 Z" id="Shape" fill="#DCDCDC" fill-rule="nonzero"></path>
                <g id="Group-3" transform="translate(32.000000, 6.000000)">
                    <circle id="Oval" fill="#FFFFFF" cx="7.5" cy="7.5" r="7.5"></circle>
                    <path d="M7.5,0 C3.358125,0 0,3.358125 0,7.5 C0,11.641875 3.358125,15 7.5,15 C11.641875,15 15,11.641875 15,7.5 C15,3.358125 11.641875,0 7.5,0 Z M6.796875,11.25 L3.515625,7.5 L4.921875,6.5625 L6.796875,8.4375 L10.078125,3.75 L11.484375,5.15625 L6.796875,11.25 Z" id="Shape" fill="#90BC50" fill-rule="nonzero"></path>
                </g>
            </g>
        </g>
    </g>
</svg>