<?xml version="1.0" encoding="UTF-8"?>
<svg width="16px" height="20px" viewBox="0 0 16 20" version="1.1" xmlns="http://www.w3.org/2000/svg" xmlns:xlink="http://www.w3.org/1999/xlink">
    <!-- Generator: Sketch 59 (86127) - https://sketch.com -->
    <title>Icon Color</title>
    <desc>Created with Sketch.</desc>
    <g id="Symbols" stroke="none" stroke-width="1" fill="none" fill-rule="evenodd">
        <g id="02-Icons-/-24x24-/-ic24-lock" transform="translate(-4.000000, -3.000000)" fill="#1A1A1A">
            <path d="M12,3 C14.6887547,3 16.8818181,5.12230671 16.9953805,7.78311038 L17,8 L17,11 C18.6568542,11 20,12.3431458 20,14 L20,20 C20,21.6568542 18.6568542,23 17,23 L7,23 C5.34314575,23 4,21.6568542 4,20 L4,14 C4,12.3431458 5.34314575,11 7,11 L7,8 C7,5.23857625 9.23857625,3 12,3 Z M17,13 L7,13 C6.44771525,13 6,13.4477153 6,14 L6,20 C6,20.5522847 6.44771525,21 7,21 L17,21 C17.5522847,21 18,20.5522847 18,20 L18,14 C18,13.4477153 17.5522847,13 17,13 Z M12.1762728,5.00509269 L12,5 C10.4023191,5 9.09633912,6.24891996 9.00509269,7.82372721 L9,8 L9,11 L15,11 L15,8 C15,6.40231912 13.75108,5.09633912 12.1762728,5.00509269 L12,5 L12.1762728,5.00509269 Z" id="Icon-Color"></path>
        </g>
    </g>
</svg>