<?xml version="1.0" encoding="UTF-8"?>
<svg width="20px" height="16px" viewBox="0 0 20 16" version="1.1" xmlns="http://www.w3.org/2000/svg" xmlns:xlink="http://www.w3.org/1999/xlink">
    <!-- Generator: Sketch 59 (86127) - https://sketch.com -->
    <title>Icon Color</title>
    <desc>Created with Sketch.</desc>
    <g id="Symbols" stroke="none" stroke-width="1" fill="none" fill-rule="evenodd">
        <g id="02-Icons-/-24x24-/-ic24-visibility" transform="translate(-2.000000, -4.000000)" fill="#2C5DE5">
            <path d="M12,4 C15.5878499,4 18.755364,6.43241398 21.5112563,11.1435135 L21.7171765,11.5011161 L22,12 L21.5112563,12.8564865 C18.755364,17.567586 15.5878499,20 12,20 C8.41215012,20 5.24463601,17.567586 2.48874372,12.8564865 L2.28282345,12.4988839 L2,12 L2.28282345,11.5011161 C5.08652302,6.55555493 8.32245387,4 12,4 Z M12,6 C9.29691839,6 6.72828619,7.91553708 4.30531955,12 C6.72828619,16.0844629 9.29691839,18 12,18 C14.6296758,18 17.1288735,16.1900714 19.4870502,12.3447155 L19.6947584,12.0001314 L19.4867171,11.6553327 C17.1248787,7.8076803 14.6258789,6 12,6 Z M12,9 C13.6568542,9 15,10.3431458 15,12 C15,13.6568542 13.6568542,15 12,15 C10.3431458,15 9,13.6568542 9,12 C9,10.3431458 10.3431458,9 12,9 Z" id="Icon-Color"></path>
        </g>
    </g>
</svg>