<?xml version="1.0" encoding="UTF-8"?>
<svg width="22px" height="22px" viewBox="0 0 22 22" version="1.1" xmlns="http://www.w3.org/2000/svg" xmlns:xlink="http://www.w3.org/1999/xlink">
    <title>Shape</title>
    <g id="Page-1" stroke="none" stroke-width="1" fill="none" fill-rule="evenodd">
        <g id="Plan-Page---Index-Copy-160" transform="translate(-1353.000000, -261.000000)" fill="#0C64CE" fill-rule="nonzero">
            <path d="M1364,261 C1357.93328,261 1353,265.933264 1353,272 C1353,277.955281 1357.75435,282.812148 1363.66734,282.989 C1363.77513,283 1363.88944,283 1364,283 C1364.11056,283 1364.22487,283 1364.33266,282.989 C1370.24566,282.812148 1375,277.955281 1375,272 C1375,265.933264 1370.06673,261 1364,261 Z M1363.12,262.32 L1363.12,265.84 L1360.48,265.84 C1360.60698,265.497626 1360.73677,265.163166 1360.88174,264.862241 C1361.54147,263.492671 1362.33406,262.648386 1363.12,262.32 Z M1364.88,262.32 C1365.66594,262.648386 1366.45853,263.492671 1367.11826,264.862241 C1367.26323,265.163166 1367.39302,265.497626 1367.52,265.84 L1364.88,265.84 L1364.88,262.32 Z M1360.48,262.76 C1360.1874,263.200296 1359.91815,263.685982 1359.68161,264.218947 C1359.46015,264.717935 1359.26129,265.265832 1359.08548,265.84 L1356.52,265.84 C1357.55049,264.460456 1358.91703,263.386227 1360.48,262.76 Z M1367.52,262.76 C1369.08297,263.386227 1370.44951,264.460456 1371.48,265.84 L1368.91452,265.84 C1368.73871,265.265832 1368.53985,264.717935 1368.31839,264.218947 C1368.08185,263.685982 1367.8126,263.200296 1367.52,262.76 Z M1355.47556,267.16 L1358.72,267.16 C1358.4386,268.379758 1358.26423,269.712052 1358.22,271.12 L1354.32,271.12 C1354.42358,269.693332 1354.831,268.348113 1355.47556,267.16 Z M1360.14069,267.16 L1363.12,267.16 L1363.12,271.12 L1359.6,271.12 C1359.64898,269.692468 1359.84407,268.349661 1360.14069,267.16 Z M1364.88,267.16 L1367.85931,267.16 C1368.15593,268.349661 1368.35102,269.692468 1368.4,271.12 L1364.88,271.12 L1364.88,267.16 Z M1369.28,267.16 L1372.52444,267.16 C1373.169,268.348113 1373.57642,269.693332 1373.68,271.12 L1369.78,271.12 C1369.73577,269.712052 1369.5614,268.379758 1369.28,267.16 Z M1354.32,272.88 L1358.22,272.88 C1358.26417,274.285944 1358.43932,275.621688 1358.72,276.84 L1355.47556,276.84 C1354.832,275.65092 1354.42202,274.307436 1354.32,272.88 Z M1359.6,272.88 L1363.12,272.88 L1363.12,276.84 L1360.14069,276.84 C1359.84371,275.65128 1359.64852,274.30902 1359.6,272.88 Z M1364.88,272.88 L1368.4,272.88 C1368.35148,274.30902 1368.15629,275.65128 1367.85931,276.84 L1364.88,276.84 L1364.88,272.88 Z M1369.78,272.88 L1373.68,272.88 C1373.57798,274.307436 1373.168,275.65092 1372.52444,276.84 L1369.28,276.84 C1369.56068,275.621688 1369.73583,274.285944 1369.78,272.88 Z M1356.52,278.16 L1359.08235,278.16 C1359.25794,278.735631 1359.45376,279.27505 1359.67529,279.774972 C1359.91172,280.308521 1360.18726,280.799731 1360.48,281.24 C1358.91675,280.61472 1357.54811,279.543191 1356.52,278.16 L1356.52,278.16 Z M1360.48,278.16 L1363.12,278.16 L1363.12,281.68 C1362.33406,281.349493 1361.54147,280.488224 1360.88174,279.123122 C1360.73677,278.823178 1360.60698,278.500743 1360.48,278.16 L1360.48,278.16 Z M1364.88,278.16 L1367.52,278.16 C1367.39302,278.500743 1367.26323,278.823178 1367.11826,279.123122 C1366.45853,280.488224 1365.66594,281.349493 1364.88,281.68 L1364.88,278.16 L1364.88,278.16 Z M1368.91765,278.16 L1371.48,278.16 C1370.45189,279.543191 1369.08325,280.61472 1367.52,281.24 C1367.81274,280.799731 1368.08828,280.308521 1368.32471,279.774972 C1368.54624,279.27505 1368.74206,278.735631 1368.91765,278.16 L1368.91765,278.16 Z" id="Shape"></path>
        </g>
    </g>
</svg>