<?xml version="1.0" encoding="UTF-8"?>
<svg width="53px" height="53px" viewBox="0 0 53 53" version="1.1" xmlns="http://www.w3.org/2000/svg" xmlns:xlink="http://www.w3.org/1999/xlink">
    <!-- Generator: Sketch 59 (86127) - https://sketch.com -->
    <title>001-out-of-time</title>
    <desc>Created with Sketch.</desc>
    <g id="Page-1" stroke="none" stroke-width="1" fill="none" fill-rule="evenodd">
        <g id="Session-Timed-out-/-New-Login" transform="translate(-293.000000, -25.000000)" fill="#2C5DE5" fill-rule="nonzero">
            <g id="001-out-of-time" transform="translate(293.000000, 25.000000)">
                <path d="M8.49775474,16.8574592 C8.65683105,16.9538839 8.83083879,17 9.00254939,17 C9.34769334,17 9.68364876,16.8149366 9.87029064,16.4813433 C10.412988,15.511707 11.0481448,14.585791 11.7556612,13.7305465 C12.118608,13.2927428 12.0715169,12.6321444 11.6522903,12.2542317 C11.235361,11.8775168 10.5996299,11.9242319 10.2366832,12.3626345 C9.44876712,13.3143035 8.74182491,14.3450288 8.13710512,15.4254638 C7.85800359,15.9249553 8.01822854,16.5657898 8.49775474,16.8574592 Z" id="Path"></path>
                <path d="M18.0653151,34 C18.3378554,34 18.6103954,33.9018371 18.8189162,33.706085 L26.687219,26.2967854 C26.8872038,26.1090701 27,25.8536165 27,25.5878302 L27,15.0034443 C27,14.4494834 26.5232071,14 25.9342277,14 C25.3452481,14 24.8684551,14.4494834 24.8684551,15.0034443 L24.8684551,25.1722159 L17.3123237,32.2876004 C16.8958921,32.6791045 16.8958921,33.314007 17.3123237,33.706085 C17.5202348,33.9018371 17.7927749,34 18.0653151,34 Z" id="Path"></path>
                <path d="M49.2976069,35.8568892 C50.8441688,32.5446043 51.6358681,29.006873 51.6358681,25.3297435 C51.6358681,11.3623877 40.0539037,-6.39488462e-14 25.8179341,-6.39488462e-14 C11.5819644,-6.39488462e-14 1.42108547e-14,11.3629613 1.42108547e-14,25.3297435 C1.42108547e-14,39.2965256 11.5819644,50.659487 25.8179341,50.659487 C29.0548967,50.659487 32.2053218,50.0732113 35.1920281,48.9304902 C36.9707202,51.3886026 39.8890151,53 43.1897112,53 C48.5988769,53 53,48.6826712 53,43.3752137 C53,40.3336941 51.5505003,37.6214526 49.2976069,35.8568892 Z M25.8179341,48.6545622 C12.7087033,48.6545622 2.04356641,38.1910921 2.04356641,25.3297435 C2.04356641,12.4689685 12.7087033,2.00549843 25.8179341,2.00549843 C38.9271647,2.00549843 49.5917168,12.4689685 49.5917168,25.3297435 C49.5917168,28.6230977 48.900588,31.7931162 47.5545822,34.7686654 C46.4138102,34.2093515 45.1490793,33.8645848 43.81009,33.7814049 C44.7596614,31.8378612 45.3905651,29.770408 45.6478382,27.6071544 C46.9283563,16.8792293 39.0739273,7.12995991 28.1386538,5.8742288 C23.6831526,5.36367579 19.3100956,6.294718 15.4831592,8.56811342 C15.001357,8.854941 14.8469931,9.47162033 15.1387642,9.9448858 C15.4322893,10.4198723 16.0608541,10.5701698 16.543241,10.2833424 C19.976082,8.24342453 23.9006652,7.40646176 27.9012609,7.86595951 C32.6561344,8.41207922 36.9093256,10.7416928 39.8779056,14.4262799 C42.8470702,18.1114406 44.17495,22.7098603 43.6183047,27.3742505 C43.3516763,29.6103582 42.6663944,31.7403397 41.5823395,33.7051088 C41.5478415,33.7676371 41.5414096,33.8353285 41.5215295,33.9007251 C37.6314441,34.5581339 34.5237029,37.4636974 33.6396191,41.2045026 C33.5630219,41.2205649 33.48584,41.2257278 33.4115816,41.2595735 C30.4020719,42.644377 27.0569376,43.1767289 23.7340224,42.7941011 C18.9785642,42.2474077 14.7253732,39.917794 11.7567932,36.2332069 C8.78821302,32.5480462 7.4597486,27.9502002 8.0163939,23.2858101 C8.08246626,22.7362484 7.68135428,22.2377421 7.12061596,22.1734927 C6.55578478,22.1092434 6.05234811,22.5033445 5.98686042,23.0523324 C5.36706644,28.2490745 6.846971,33.3718152 10.154099,37.4763177 C13.4606423,41.581394 18.1991438,44.1766099 23.4960449,44.7852582 C24.2742959,44.8747482 25.0525467,44.9189198 25.830213,44.9189198 C28.4216542,44.9189198 30.9838597,44.4227081 33.3823461,43.4578201 C33.3934555,44.7669012 33.6706088,46.014601 34.1664441,47.1504383 C31.4995752,48.1331095 28.6999768,48.6545622 25.8179341,48.6545622 Z M43.1897112,50.9950752 C38.9061152,50.9950752 35.422989,47.5766641 35.422989,43.3752137 C35.422989,39.1737633 38.9066999,35.7553522 43.1897112,35.7553522 C47.4721379,35.7553522 50.9558488,39.1737633 50.9558488,43.3752137 C50.9558488,47.5766641 47.4727226,50.9950752 43.1897112,50.9950752 Z" id="Shape"></path>
                <path d="M43.0002861,37 C42.4474965,37 42,37.4480365 42,38.0002144 L42,44.0003576 C42,44.5525355 42.4474965,45 43.0002861,45 C43.5530757,45 44,44.5525355 44,44.0003576 L44,38.0002144 C44,37.4480365 43.5530757,37 43.0002861,37 Z" id="Path"></path>
                <path d="M44,46.9997137 C44,47.5525035 43.5525035,48 43.0002861,48 C42.4474965,48 42,47.5525035 42,46.9997137 C42,46.4474963 42.4474965,46 43.0002861,46 C43.5525035,46 44,46.4474963 44,46.9997137 Z" id="Path"></path>
            </g>
        </g>
    </g>
</svg>