<?xml version="1.0" encoding="UTF-8"?>
<svg width="10px" height="15px" viewBox="0 0 10 15" version="1.1" xmlns="http://www.w3.org/2000/svg" xmlns:xlink="http://www.w3.org/1999/xlink">
    <title>Shape Copy 4</title>
    <g id="Rezilio-Section-Edit-Buttons" stroke="none" stroke-width="1" fill="none" fill-rule="evenodd">
        <g id="Edit-Buttons-Style" transform="translate(-168.000000, -391.000000)" fill="#FFFFFF" fill-rule="nonzero">
            <path d="M173.504028,395.014452 L176.908525,398.380134 C177.691331,399.165696 176.517019,400.344142 175.734214,399.558581 L174.271994,398.091052 C174.027012,397.845181 173.830446,397.927629 173.830446,398.27269 L173.830446,404.385484 C173.830446,404.845863 173.45866,405.21875 173.000104,405.21875 C172.54134,405.21875 172.169761,404.845863 172.169761,404.385484 L172.169761,398.27269 C172.169761,397.928829 171.972052,397.846307 171.728166,398.091052 L170.265786,399.558581 C169.482981,400.344142 168.308669,399.165696 169.091475,398.380134 L172.468009,395.016454 C172.753145,394.732404 173.217402,394.731094 173.504028,395.014452 Z M168.833333,392.666667 C168.373096,392.666667 168,392.293571 168,391.833333 C168,391.373096 168.373096,391 168.833333,391 L177.166667,391 C177.626904,391 178,391.373096 178,391.833333 C178,392.293571 177.626904,392.666667 177.166667,392.666667 L168.833333,392.666667 Z" id="Shape-Copy-4"></path>
        </g>
    </g>
</svg>