<?xml version="1.0" encoding="UTF-8"?>
<svg width="12px" height="15px" viewBox="0 0 12 15" version="1.1" xmlns="http://www.w3.org/2000/svg" xmlns:xlink="http://www.w3.org/1999/xlink">
    <!-- Generator: Sketch 59 (86127) - https://sketch.com -->
    <title>padlock</title>
    <desc>Created with Sketch.</desc>
    <g id="Page-1" stroke="none" stroke-width="1" fill="none" fill-rule="evenodd">
        <g id="Plan-Page---Index-Copy-103" transform="translate(-1221.000000, -216.000000)" fill="#FF524E" fill-rule="nonzero">
            <g id="padlock" transform="translate(1221.000000, 216.000000)">
                <path d="M11.6890909,6.93530909 C11.4952364,6.74149091 11.26,6.64465455 10.9830182,6.64465455 L10.6509818,6.64465455 L10.6509818,4.65116364 C10.6509818,3.37763636 10.1942909,2.28414545 9.28061818,1.37050909 C8.36701818,0.456836364 7.27363636,0 5.99992727,0 C4.72625455,0 3.63265455,0.456836364 2.71912727,1.37047273 C1.80545455,2.28414545 1.34876364,3.3776 1.34876364,4.65116364 L1.34876364,6.64465455 L1.01658182,6.64465455 C0.739818182,6.64465455 0.504436364,6.74149091 0.310618182,6.93530909 C0.1168,7.12898182 0.0199272727,7.36436364 0.0199272727,7.64138182 L0.0199272727,13.6214545 C0.0199272727,13.8982182 0.116836364,14.1336727 0.310618182,14.3275273 C0.504436364,14.5211636 0.739818182,14.6181091 1.01658182,14.6181091 L10.9832727,14.6181091 C11.2602545,14.6181091 11.4954545,14.5212727 11.6893455,14.3275273 C11.8829818,14.1336727 11.9800365,13.8982182 11.9800365,13.6214545 L11.9800365,7.64127273 C11.9801818,7.36447273 11.8829818,7.12912727 11.6890909,6.93530909 Z M8.65770909,6.64465455 L3.34214545,6.64465455 L3.34214545,4.65116364 C3.34214545,3.91752727 3.60174545,3.29109091 4.12083636,2.77207273 C4.64,2.25298182 5.26632727,1.99349091 6.00003636,1.99349091 C6.73381818,1.99349091 7.36,2.25294545 7.8792,2.77207273 C8.39814545,3.29105455 8.65770909,3.91752727 8.65770909,4.65116364 L8.65770909,6.64465455 Z" id="Shape"></path>
            </g>
        </g>
    </g>
</svg>