<?xml version="1.0" encoding="UTF-8"?>
<svg width="15px" height="15px" viewBox="0 0 15 15" version="1.1" xmlns="http://www.w3.org/2000/svg" xmlns:xlink="http://www.w3.org/1999/xlink">
    <title>Save Icon</title>
    <defs>
        <path d="M11,0 L27,0 C33.0751322,-1.11598369e-15 38,4.92486775 38,11 C38,17.0751322 33.0751322,22 27,22 L11,22 C4.92486775,22 7.43989126e-16,17.0751322 0,11 C-7.43989126e-16,4.92486775 4.92486775,1.11598369e-15 11,0 Z" id="path-1"></path>
        <path d="M4,0 L360,0 L360,0 L360,40 L4,40 C1.790861,40 2.705415e-16,38.209139 0,36 L0,4 C-2.705415e-16,1.790861 1.790861,4.05812251e-16 4,0 Z" id="path-3"></path>
        <path d="M1355,19.2933333 L1390,19.2933333 C1392.20914,19.2933333 1394,21.0841943 1394,23.2933333 L1394,53.2933333 C1394,55.5024723 1392.20914,57.2933333 1390,57.2933333 L1355,57.2933333 L1355,57.2933333 L1355,19.2933333 Z" id="path-5"></path>
        <polygon id="path-7" points="0.0310911017 0.0264936441 6.24565678 0.0264936441 6.24565678 6.24100636 0.0310911017 6.24100636"></polygon>
        <polygon id="path-9" points="3.73034936e-14 0.0117716319 15.9997 0.0117716319 15.9997 8 3.73034936e-14 8"></polygon>
        <polygon id="path-11" points="0.5477 0.474 9.4537 0.474 9.4537 9.9727 0.5477 9.9727"></polygon>
        <polygon id="path-13" points="1.13686838e-12 0 950 0 950 834 1.13686838e-12 834"></polygon>
        <polygon id="path-15" points="0 0 950 0 950 834 0 834"></polygon>
    </defs>
    <g id="Page-1" stroke="none" stroke-width="1" fill="none" fill-rule="evenodd">
        <g id="Plan-Page---Edit-Text" transform="translate(-1295.000000, -58.000000)">
            <line x1="0.5" y1="66.5" x2="1440.5" y2="66.5" id="Line-3" stroke="#F7F7F7" stroke-linecap="square"></line>
            <g id="Group" transform="translate(-0.000000, 66.000000)">
                <rect id="Rectangle" fill="#F7F7F7" x="0" y="0" width="1440" height="75"></rect>
                <rect id="Rectangle" x="8" y="18" width="31" height="39" rx="4"></rect>
                <g transform="translate(15.000000, 30.000000)" fill="#1A1A1A" id="Icon-Color">
                    <path d="M10.70725,12.29325 C11.09825,12.68425 11.09825,13.31625 10.70725,13.70725 C10.31625,14.09825 9.68425,14.09825 9.29325,13.70725 L4.29325,8.70725 C3.90225,8.31625 3.90225,7.68425 4.29325,7.29325 L9.29325,2.29325 C9.68425,1.90225 10.31625,1.90225 10.70725,2.29325 C11.09825,2.68425 11.09825,3.31625 10.70725,3.70725 L6.41425,8.00025 L10.70725,12.29325 Z"></path>
                </g>
                <line x1="0.5" y1="74.5" x2="1439.5" y2="74.5" id="Line-3" stroke="#EDEDED" stroke-linecap="square"></line>
                <text id="Centre-de-Prise-en-C" font-family="Helvetica" font-size="22" font-weight="normal" line-spacing="24" fill="#202124">
                    <tspan x="46" y="35">Centre de Prise en Charge et d'Action Bénévole de </tspan>
                    <tspan x="46" y="59">Richmond (Cab Richmond)</tspan>
                </text>
                <text id="Mise-à-jour-:-2020-0" font-family="Helvetica" font-size="12" font-weight="normal" line-spacing="16" fill="#6D8086">
                    <tspan x="585" y="62">Mise à jour : 2020 08 02</tspan>
                </text>
                <g id="01-Components-/-06-Badges-&amp;-Tags-/-01-Light-/-03-Small-/-01-Plain-/-02-Gray-Copy-41" transform="translate(585.000000, 17.000000)">
                    <g id="Base±±±±0B33F1CB-7384-4B7A-AFD9-56AC4920D8E1" transform="translate(0.000000, 1.000000)">
                        <mask id="mask-2" fill="white">
                            <use xlink:href="#path-1"></use>
                        </mask>
                        <use id="Style" stroke="#E2975D" stroke-width="2" xlink:href="#path-1"></use>
                    </g>
                    <text id="Badge-Text" font-family="Helvetica" font-size="12" font-weight="normal" line-spacing="16" letter-spacing="0.4" fill="#E2975D">
                        <tspan x="9.6" y="11">PM</tspan>
                        <tspan x="14.4669922" y="27">U</tspan>
                    </text>
                </g>
                <g id="Fill±±±±84190B1B-ACB0-41ED-9097-28D99B1FA848" transform="translate(995.000000, 18.293333)">
                    <mask id="mask-4" fill="white">
                        <use xlink:href="#path-3"></use>
                    </mask>
                    <path stroke="#E9E9E9" d="M359.5,0.5 L359.5,39.5 L4,39.5 C3.03350169,39.5 2.15850169,39.1082492 1.52512627,38.4748737 C0.891750844,37.8414983 0.5,36.9664983 0.5,36 L0.5,36 L0.5,4 C0.5,3.03350169 0.891750844,2.15850169 1.52512627,1.52512627 C2.15850169,0.891750844 3.03350169,0.5 4,0.5 L4,0.5 L359.5,0.5 Z"></path>
                </g>
                <mask id="mask-6" fill="white">
                    <use xlink:href="#path-5"></use>
                </mask>
                <path stroke="#E9E9E9" d="M1390,18.7933333 C1391.24264,18.7933333 1392.36764,19.297013 1393.18198,20.1113528 C1393.99632,20.9256926 1394.5,22.0506926 1394.5,23.2933333 L1394.5,23.2933333 L1394.5,53.2933333 C1394.5,54.535974 1393.99632,55.660974 1393.18198,56.4753138 C1392.36764,57.2896537 1391.24264,57.7933333 1390,57.7933333 L1390,57.7933333 L1354.5,57.7933333 L1354.5,18.7933333 Z"></path>
                <g id="02-Icons-/-16x16-/-ic16-search-Copy-2" transform="translate(1367.000000, 30.000000)" fill="#FFFFFF">
                    <path d="M6.66666667,0 C10.348565,0 13.3333333,2.98476833 13.3333333,6.66666667 C13.3333333,8.02547629 12.9268111,9.28933757 12.2287535,10.3432637 L15.6094757,13.7238576 C16.1301748,14.2445567 16.1301748,15.0887767 15.6094757,15.6094757 C15.1288304,16.090121 14.3725224,16.1270937 13.8494674,15.7203939 L13.7238576,15.6094757 L10.3432637,12.2287535 C9.28933757,12.9268111 8.02547629,13.3333333 6.66666667,13.3333333 C2.98476833,13.3333333 0,10.348565 0,6.66666667 C0,2.98476833 2.98476833,0 6.66666667,0 Z M6.66666667,2.66666667 C4.45752767,2.66666667 2.66666667,4.45752767 2.66666667,6.66666667 C2.66666667,8.87580567 4.45752767,10.6666667 6.66666667,10.6666667 C8.87580567,10.6666667 10.6666667,8.87580567 10.6666667,6.66666667 C10.6666667,4.45752767 8.87580567,2.66666667 6.66666667,2.66666667 Z" id="Icon-Color"></path>
                </g>
                <text id="Input-Text" font-family="Helvetica" font-size="16" font-weight="normal" line-spacing="16" letter-spacing="0.533333333" fill="#8FA0A5">
                    <tspan x="1006" y="34">Rechercher</tspan>
                </text>
            </g>
            <g id="Group">
                <rect id="Rectangle" fill="#FFFFFF" fill-rule="nonzero" x="0" y="0" width="1441" height="66"></rect>
                <text id="11:03:46-PM" font-family="Helvetica" font-size="12" font-weight="normal">
                    <tspan x="694.955078" y="35" fill="#3B3B3B">11</tspan>
                    <tspan x="708.302734" y="35" fill="#8F8F8F">:</tspan>
                    <tspan x="711.636719" y="35" fill="#3B3B3B">03</tspan>
                    <tspan x="724.984375" y="35" fill="#8F8F8F">:</tspan>
                    <tspan x="728.318359" y="35" fill="#3B3B3B">46 </tspan>
                    <tspan x="745" y="35" fill="#8F8F8F">PM</tspan>
                </text>
                <text id="2020/09/06" font-family="Helvetica" font-size="12" font-weight="normal">
                    <tspan x="619.941406" y="35" fill="#3B3B3B">2020</tspan>
                    <tspan x="646.636719" y="35" fill="#8F8F8F">/</tspan>
                    <tspan x="649.970703" y="35" fill="#3B3B3B">09</tspan>
                    <tspan x="663.318359" y="35" fill="#8F8F8F">/</tspan>
                    <tspan x="666.652344" y="35" fill="#3B3B3B">06</tspan>
                </text>
                <g id="02-Icons-/-24x24-/-ic24-apps" transform="translate(1375.000000, 24.000000)" fill="#3D5056">
                    <path d="M2,16 C3.1045695,16 4,16.8954305 4,18 C4,19.1045695 3.1045695,20 2,20 C0.8954305,20 0,19.1045695 0,18 C0,16.8954305 0.8954305,16 2,16 Z M10,16 C11.1045695,16 12,16.8954305 12,18 C12,19.1045695 11.1045695,20 10,20 C8.8954305,20 8,19.1045695 8,18 C8,16.8954305 8.8954305,16 10,16 Z M18,16 C19.1045695,16 20,16.8954305 20,18 C20,19.1045695 19.1045695,20 18,20 C16.8954305,20 16,19.1045695 16,18 C16,16.8954305 16.8954305,16 18,16 Z M2,8 C3.1045695,8 4,8.8954305 4,10 C4,11.1045695 3.1045695,12 2,12 C0.8954305,12 0,11.1045695 0,10 C0,8.8954305 0.8954305,8 2,8 Z M10,8 C11.1045695,8 12,8.8954305 12,10 C12,11.1045695 11.1045695,12 10,12 C8.8954305,12 8,11.1045695 8,10 C8,8.8954305 8.8954305,8 10,8 Z M18,8 C19.1045695,8 20,8.8954305 20,10 C20,11.1045695 19.1045695,12 18,12 C16.8954305,12 16,11.1045695 16,10 C16,8.8954305 16.8954305,8 18,8 Z M2,0 C3.1045695,0 4,0.8954305 4,2 C4,3.1045695 3.1045695,4 2,4 C0.8954305,4 0,3.1045695 0,2 C0,0.8954305 0.8954305,0 2,0 Z M10,0 C11.1045695,0 12,0.8954305 12,2 C12,3.1045695 11.1045695,4 10,4 C8.8954305,4 8,3.1045695 8,2 C8,0.8954305 8.8954305,0 10,0 Z M18,0 C19.1045695,0 20,0.8954305 20,2 C20,3.1045695 19.1045695,4 18,4 C16.8954305,4 16,3.1045695 16,2 C16,0.8954305 16.8954305,0 18,0 Z" id="Icon-Color"></path>
                </g>
                <text id="User-Name-Text" font-family="Helvetica" font-size="14" font-weight="normal" line-spacing="20" fill="#3D5056">
                    <tspan x="1047" y="40">David Pelletier</tspan>
                </text>
                <text id="User-Name-Text-Copy-2" font-family="Helvetica" font-size="14" font-weight="normal" line-spacing="20" fill="#3D5056">
                    <tspan x="825" y="38">Ville de Richmond</tspan>
                </text>
                <text id="User-Name-Text" font-family="Helvetica" font-size="12" font-weight="normal" line-spacing="20" fill="#3D5056">
                    <tspan x="1281.99121" y="36">Français CA</tspan>
                </text>
                <line x1="1260.5" y1="0.492647059" x2="1260.5" y2="65.5" id="Line-2" stroke="#D6D6D6" stroke-linecap="square"></line>
                <line x1="775.5" y1="0.492753623" x2="775.5" y2="65.5" id="Line-2-Copy" stroke="#D6D6D6" stroke-linecap="square"></line>
                <text id="User-Name-Text-Copy" font-family="Helvetica" font-size="12" font-weight="normal" line-spacing="20" fill="#6D8086">
                    <tspan x="1047" y="50">Coordinateur municipal de sécurité</tspan>
                </text>
                <g id="REZILIO-LOGO±±±±50B003F6-39CB-493A-B571-DD6B3DAA2A7F" transform="translate(47.000000, 19.000000)">
                    <g id="REZILIO-LOGO" transform="translate(0.344390, 0.000000)">
                        <path d="M8.38301982,20.0236167 L6.59458421,20.0236167 L6.59458421,25 L0,25 L0,5.20833333 L9.41695771,5.20833333 C11.2237324,5.20833333 12.7979337,5.50991528 14.1392835,6.11345404 C15.4803555,6.71661793 16.514386,7.58331459 17.2412824,8.71410631 C17.9676231,9.84536662 18.3307008,11.1647173 18.3307008,12.6724396 C18.3307008,14.0865385 18.0140267,15.3213563 17.380771,16.3765182 C16.7475153,17.4323362 15.834171,18.2706365 14.6421276,18.892825 L18.75,25 L11.7085153,25 L8.38301982,20.0236167 Z M11.0097759,10.9624756 C10.5625976,10.5573362 9.8922005,10.3543447 8.99802901,10.3543447 L6.59458421,10.3543447 L6.59458421,14.9910969 L8.99802901,14.9910969 C9.8922005,14.9910969 10.5625976,14.7888552 11.0097759,14.3831534 C11.4568617,13.9780139 11.6804509,13.4079322 11.6804509,12.6724396 C11.6804509,11.9377905 11.4568617,11.3674277 11.0097759,10.9624756 L11.0097759,10.9624756 Z" id="Fill-1" fill="#093B54"></path>
                        <g id="Group-5" transform="translate(17.708333, 0.000000)">
                            <mask id="mask-8" fill="white">
                                <use xlink:href="#path-7"></use>
                            </mask>
                            <g id="Clip-4"></g>
                            <path d="M6.24570975,3.1339089 C6.24570975,4.85001059 4.85460805,6.24100636 3.13861229,6.24100636 C1.4221928,6.24100636 0.0310911017,4.85001059 0.0310911017,3.1339089 C0.0310911017,1.4178072 1.4221928,0.0264936441 3.13861229,0.0264936441 C4.85460805,0.0264936441 6.24570975,1.4178072 6.24570975,3.1339089" id="Fill-3" fill="#A1CB0D" mask="url(#mask-8)"></path>
                        </g>
                    </g>
                </g>
                <g id="Group-7" transform="translate(1024.000000, 26.000000)">
                    <g id="Group-3" transform="translate(0.000000, 11.526300)">
                        <mask id="mask-10" fill="white">
                            <use xlink:href="#path-9"></use>
                        </mask>
                        <g id="Clip-2"></g>
                        <path d="M15.9997,5.089 L15.9997,6.84 C15.9997,7.189 15.7597,7.478 15.4357,7.52 C12.9527,7.839 10.5117,8 8.0007,8 C5.4867,8 3.0487,7.839 0.5647,7.52 C0.2407,7.478 -0.0003,7.189 -0.0003,6.84 L-0.0003,5.089 C-0.0003,2.396 1.8407,0.383 4.2677,0.019 C4.4167,-0.003 4.5507,0.025 4.6807,0.106 C5.7197,0.753 6.7727,1.09 8.0007,1.09 C9.2287,1.09 10.2807,0.753 11.3197,0.107 C11.4497,0.026 11.5837,-0.003 11.7327,0.02 C14.1597,0.383 15.9997,2.396 15.9997,5.089" id="Fill-1" fill="#3D5056" mask="url(#mask-10)"></path>
                    </g>
                    <g id="Group-6" transform="translate(3.000000, 0.526300)">
                        <mask id="mask-12" fill="white">
                            <use xlink:href="#path-11"></use>
                        </mask>
                        <g id="Clip-5"></g>
                        <path d="M5.0007,0.4737 C7.4567,0.4737 9.4537,2.6037 9.4537,5.2237 C9.4537,7.8437 7.4577,9.9727 5.0007,9.9727 C2.5427,9.9727 0.5477,7.8457 0.5477,5.2237 C0.5477,2.6037 2.5447,0.4737 5.0007,0.4737" id="Fill-4" fill="#3D5056" mask="url(#mask-12)"></path>
                    </g>
                </g>
                <path d="M818.854054,25 L805.145946,25 C804.518919,25 804,25.5305263 804,26.1715789 L804,44.8284211 C804,45.4694737 804.518919,46 805.145946,46 L810.745946,46 L810.745946,41.3357895 C810.745946,41.1368421 810.897297,40.9821053 811.091892,40.9821053 L812.908108,40.9821053 C813.102703,40.9821053 813.254054,41.1368421 813.254054,41.3357895 L813.254054,46 L818.854054,46 C819.481081,46 820,45.4694737 820,44.8284211 L820,26.1715789 C819.978378,25.5305263 819.481081,25 818.854054,25 Z M808.92973,43.1926316 C808.92973,43.3915789 808.778378,43.5463158 808.583784,43.5463158 L806.767568,43.5463158 C806.572973,43.5463158 806.421622,43.3915789 806.421622,43.1926316 L806.421622,41.3357895 C806.421622,41.1368421 806.572973,40.9821053 806.767568,40.9821053 L808.583784,40.9821053 C808.778378,40.9821053 808.92973,41.1368421 808.92973,41.3357895 L808.92973,43.1926316 Z M808.92973,38.7715789 C808.92973,38.9705263 808.778378,39.1252632 808.583784,39.1252632 L806.767568,39.1252632 C806.572973,39.1252632 806.421622,38.9705263 806.421622,38.7715789 L806.421622,36.9147368 C806.421622,36.7157895 806.572973,36.5610526 806.767568,36.5610526 L808.583784,36.5610526 C808.778378,36.5610526 808.92973,36.7157895 808.92973,36.9147368 L808.92973,38.7715789 Z M808.92973,34.3284211 C808.92973,34.5273684 808.778378,34.6821053 808.583784,34.6821053 L806.767568,34.6821053 C806.572973,34.6821053 806.421622,34.5273684 806.421622,34.3284211 L806.421622,32.4715789 C806.421622,32.2726316 806.572973,32.1178947 806.767568,32.1178947 L808.583784,32.1178947 C808.778378,32.1178947 808.92973,32.2726316 808.92973,32.4715789 L808.92973,34.3284211 Z M808.92973,29.9073684 C808.92973,30.1063158 808.778378,30.2610526 808.583784,30.2610526 L806.767568,30.2610526 C806.572973,30.2610526 806.421622,30.1063158 806.421622,29.9073684 L806.421622,28.0505263 C806.421622,27.8515789 806.572973,27.6968421 806.767568,27.6968421 L808.583784,27.6968421 C808.778378,27.6968421 808.92973,27.8515789 808.92973,28.0505263 L808.92973,29.9073684 Z M813.254054,38.7715789 C813.254054,38.9705263 813.102703,39.1252632 812.908108,39.1252632 L811.091892,39.1252632 C810.897297,39.1252632 810.745946,38.9705263 810.745946,38.7715789 L810.745946,36.9147368 C810.745946,36.7157895 810.897297,36.5610526 811.091892,36.5610526 L812.908108,36.5610526 C813.102703,36.5610526 813.254054,36.7157895 813.254054,36.9147368 L813.254054,38.7715789 Z M813.254054,34.3284211 C813.254054,34.5273684 813.102703,34.6821053 812.908108,34.6821053 L811.091892,34.6821053 C810.897297,34.6821053 810.745946,34.5273684 810.745946,34.3284211 L810.745946,32.4715789 C810.745946,32.2726316 810.897297,32.1178947 811.091892,32.1178947 L812.908108,32.1178947 C813.102703,32.1178947 813.254054,32.2726316 813.254054,32.4715789 L813.254054,34.3284211 Z M813.254054,29.9073684 C813.254054,30.1063158 813.102703,30.2610526 812.908108,30.2610526 L811.091892,30.2610526 C810.897297,30.2610526 810.745946,30.1063158 810.745946,29.9073684 L810.745946,28.0505263 C810.745946,27.8515789 810.897297,27.6968421 811.091892,27.6968421 L812.908108,27.6968421 C813.102703,27.6968421 813.254054,27.8515789 813.254054,28.0505263 L813.254054,29.9073684 Z M817.6,43.1926316 C817.6,43.3915789 817.448649,43.5463158 817.254054,43.5463158 L815.437838,43.5463158 C815.243243,43.5463158 815.091892,43.3915789 815.091892,43.1926316 L815.091892,41.3357895 C815.091892,41.1368421 815.243243,40.9821053 815.437838,40.9821053 L817.254054,40.9821053 C817.448649,40.9821053 817.6,41.1368421 817.6,41.3357895 L817.6,43.1926316 Z M817.6,38.7715789 C817.6,38.9705263 817.448649,39.1252632 817.254054,39.1252632 L815.437838,39.1252632 C815.243243,39.1252632 815.091892,38.9705263 815.091892,38.7715789 L815.091892,36.9147368 C815.091892,36.7157895 815.243243,36.5610526 815.437838,36.5610526 L817.254054,36.5610526 C817.448649,36.5610526 817.6,36.7157895 817.6,36.9147368 L817.6,38.7715789 Z M817.6,34.3284211 C817.6,34.5273684 817.448649,34.6821053 817.254054,34.6821053 L815.437838,34.6821053 C815.243243,34.6821053 815.091892,34.5273684 815.091892,34.3284211 L815.091892,32.4715789 C815.091892,32.2726316 815.243243,32.1178947 815.437838,32.1178947 L817.254054,32.1178947 C817.448649,32.1178947 817.6,32.2726316 817.6,32.4715789 L817.6,34.3284211 Z M817.6,29.9073684 C817.6,30.1063158 817.448649,30.2610526 817.254054,30.2610526 L815.437838,30.2610526 C815.243243,30.2610526 815.091892,30.1063158 815.091892,29.9073684 L815.091892,28.0505263 C815.091892,27.8515789 815.243243,27.6968421 815.437838,27.6968421 L817.254054,27.6968421 C817.448649,27.6968421 817.6,27.8515789 817.6,28.0505263 L817.6,29.9073684 Z" id="Shape" fill="#3D5056" fill-rule="nonzero"></path>
                <line x1="0.5" y1="65.5" x2="1440.5" y2="65.5" id="Line-3" stroke="#D6D6D6" stroke-linecap="square"></line>
            </g>
            <rect id="Rectangle" fill-opacity="0.7" fill="#030303" x="-1" y="0" width="1441" height="1877"></rect>
            <g id="Prise-de-contacts-..-/-Edit-text" transform="translate(475.000000, 15.000000)">
                <mask id="mask-14" fill="white">
                    <use xlink:href="#path-13"></use>
                </mask>
                <use id="Style" fill="#FFFFFF" xlink:href="#path-13"></use>
                <g id="Stroke" transform="translate(0.000000, 0.000000)">
                    <mask id="mask-16" fill="white">
                        <use xlink:href="#path-15"></use>
                    </mask>
                    <path stroke="#A3C3E9" d="M949.5,0.5 L949.5,833.5 L0.5,833.5 L0.5,0.5 L949.5,0.5 Z"></path>
                </g>
                <rect id="Rectangle" fill="#F6F6F6" x="1" y="1" width="948" height="72"></rect>
                <g id="Save-Icon" transform="translate(820.000000, 43.000000)">
                    <g id="Group-3" transform="translate(0.032558, -0.000163)">
                        <path d="M4.649791,5.36476779 L9.69255845,5.36134912 C10.0373491,5.36118633 10.3919073,5.03039564 10.3919073,4.68576773 L10.3891398,0.718558426 L3.97893054,0.723279356 L3.98153519,4.69016308 C3.98153519,5.03495378 4.30500031,5.36493052 4.649791,5.36476779 Z M7.96388403,1.32837238 L9.27890728,1.3277202 C9.49607007,1.32723284 9.67123286,1.50288401 9.67172124,1.71955843 L9.67351193,4.36116308 C9.67334914,4.5778375 9.49802356,4.75381424 9.28134914,4.75381424 L7.96567472,4.75462921 C7.74932589,4.75511657 7.57367472,4.57930261 7.57334914,4.36262819 L7.57172078,1.72053517 C7.57139565,1.50434912 7.74688403,1.32837238 7.96388403,1.32837238 Z" id="Shape"></path>
                        <path d="M11.2571398,7.16441889 L2.67741891,7.16441889 C2.27744217,7.16441889 1.9531631,7.50286075 1.9531631,7.92041889 L1.9531631,13.4624654 L11.981884,13.4624654 L11.981884,7.9202561 C11.9817212,7.50286075 11.6574422,7.16441889 11.2571398,7.16441889 Z" id="Path"></path>
                        <path d="M7.96567472,4.75462865 L9.28134914,4.75381424 C9.49802356,4.75381424 9.67334914,4.5778375 9.67351193,4.36116308 L9.67172124,1.71955843 C9.67123286,1.50288401 9.49590728,1.32707005 9.27890728,1.32771941 L7.96388403,1.32837238 C7.74688403,1.32837238 7.57139565,1.50434912 7.57155833,1.72053517 L7.57318635,4.36262819 C7.57367472,4.57930261 7.74932589,4.75495378 7.96567472,4.75462865 Z" id="Path" fill="#C7C7C7" fill-rule="nonzero"></path>
                        <path d="M13.9277212,2.81107005 C13.9273957,2.55793052 13.8665119,2.35020959 13.7033957,2.18758168 C13.5983957,2.08274447 12.4497445,0.935395636 11.8594654,0.345116566 C11.6512561,0.138209589 11.2603957,-0.000162503984 10.9693259,1.43229483e-07 C10.6780933,0.000163077411 1.15988403,0.00651191462 1.15988403,0.00651191462 C0.518814259,0.00732586811 -0.000325275421,0.526953775 1.52915124e-07,1.16769796 L0.00830263156,13.4914421 C0.00879100365,14.1326747 0.528744492,14.6514887 1.16965147,14.6513259 L12.7750003,14.6435119 C13.4159073,14.6433491 13.9352096,14.1230701 13.9350469,13.4826514 C13.934884,13.4824887 13.9277212,2.96751191 13.9277212,2.81107005 Z M10.3891398,0.718721217 L10.3919073,4.68593052 C10.3919073,5.03055843 10.0373491,5.36118633 9.69255845,5.36151191 L4.649791,5.36493058 C4.3051631,5.36509331 3.98169798,5.03511657 3.98169798,4.69032587 L3.97893054,0.723279356 L10.3891398,0.718721217 Z M11.9817212,13.4624654 L1.9531631,13.4624654 L1.9531631,7.9202561 C1.9531631,7.50286075 2.27744217,7.1642561 2.67741891,7.1642561 L11.2571398,7.1642561 C11.6574422,7.1642561 11.9817212,7.50269796 11.9817212,7.9202561 L11.9817212,13.4624654 L11.9817212,13.4624654 Z" id="Shape" fill="#C7C7C7" fill-rule="nonzero"></path>
                    </g>
                </g>
            </g>
        </g>
    </g>
</svg>