<?xml version="1.0" encoding="UTF-8"?>
<svg width="16px" height="16px" viewBox="0 0 16 16" version="1.1" xmlns="http://www.w3.org/2000/svg" xmlns:xlink="http://www.w3.org/1999/xlink">
    <title>Shape</title>
    <g id="Page-1" stroke="none" stroke-width="1" fill="none" fill-rule="evenodd">
        <g id="Plan-Page-/-Sub-Section-/-Draft-Submited-/-Compare-Copy-4" transform="translate(-1025.000000, -216.000000)" fill="#3D5056" fill-rule="nonzero">
            <path d="M1025.06567,225.040585 C1025.6051,229.155985 1029.20138,232.175936 1033.34807,231.995678 C1037.49475,231.81542 1040.8154,228.494787 1040.99568,224.348101 C1041.17595,220.201415 1038.15602,216.605125 1034.04062,216.065674 C1031.57666,215.748504 1029.10487,216.591532 1027.34821,218.348185 C1025.59155,220.104839 1024.74851,222.576625 1025.06567,225.040585 Z M1029.68212,219.009605 C1032.05845,217.421468 1035.22573,217.73327 1037.24676,219.754302 C1039.26778,221.775334 1039.57956,224.94262 1037.99142,227.318937 C1037.96525,227.356678 1037.9237,227.38088 1037.87797,227.38502 C1037.83223,227.38916 1037.78701,227.372814 1037.7545,227.340385 L1029.66068,219.246522 C1029.62823,219.214015 1029.61187,219.168791 1029.61601,219.123049 C1029.62015,219.077307 1029.64437,219.035757 1029.68212,219.009605 Z M1028.0096,220.682168 C1028.03575,220.644414 1028.0773,220.620198 1028.12304,220.616049 C1028.16878,220.611901 1028.214,220.628247 1028.24652,220.66068 L1036.34034,228.754577 C1036.37279,228.787084 1036.38915,228.832307 1036.38501,228.87805 C1036.38086,228.923792 1036.35665,228.965342 1036.31889,228.991493 C1033.94257,230.57968 1030.77525,230.267899 1028.75421,228.246851 C1026.73317,226.225803 1026.42141,223.058483 1028.0096,220.682168 Z" id="Shape"></path>
        </g>
    </g>
</svg>