<?xml version="1.0" encoding="UTF-8"?>
<svg width="31px" height="18px" viewBox="0 0 31 18" version="1.1" xmlns="http://www.w3.org/2000/svg" xmlns:xlink="http://www.w3.org/1999/xlink">
    <title>Shape</title>
    <defs>
        <path d="M4,0 L360,0 L360,0 L360,40 L4,40 C1.790861,40 2.705415e-16,38.209139 0,36 L0,4 C-2.705415e-16,1.790861 1.790861,4.05812251e-16 4,0 Z" id="path-1"></path>
        <path d="M1355,19.2933333 L1390,19.2933333 C1392.20914,19.2933333 1394,21.0841943 1394,23.2933333 L1394,53.2933333 C1394,55.5024723 1392.20914,57.2933333 1390,57.2933333 L1355,57.2933333 L1355,57.2933333 L1355,19.2933333 Z" id="path-3"></path>
        <path d="M11,0 L27,0 C33.0751322,-1.11598369e-15 38,4.92486775 38,11 C38,17.0751322 33.0751322,22 27,22 L11,22 C4.92486775,22 7.43989126e-16,17.0751322 0,11 C-7.43989126e-16,4.92486775 4.92486775,1.11598369e-15 11,0 Z" id="path-5"></path>
        <path d="M255,20 L1184,20 C1188.41828,20 1192,23.581722 1192,28 L1192,812 C1192,816.418278 1188.41828,820 1184,820 L255,820 C250.581722,820 247,816.418278 247,812 L247,28 C247,23.581722 250.581722,20 255,20 Z" id="path-7"></path>
        <path d="M255,20 L1184,20 C1188.41828,20 1192,23.581722 1192,28 L1192,812 C1192,816.418278 1188.41828,820 1184,820 L255,820 C250.581722,820 247,816.418278 247,812 L247,28 C247,23.581722 250.581722,20 255,20 Z" id="path-9"></path>
    </defs>
    <g id="Page-1" stroke="none" stroke-width="1" fill="none" fill-rule="evenodd">
        <g id="Plan-Page-/-Sub-Section-/-Edit-Window-/-Text-Added-+-Active-buttons" transform="translate(-405.000000, -77.000000)">
            <g id="Group" transform="translate(-0.000000, 66.000000)">
                <line x1="0.5" y1="74.5" x2="1439.5" y2="74.5" id="Line-3" stroke="#EDEDED" stroke-linecap="square"></line>
                <rect id="Rectangle" fill="#F7F7F7" x="0" y="0" width="1440" height="75"></rect>
                <rect id="Rectangle" x="8" y="18" width="31" height="39" rx="4"></rect>
                <g transform="translate(15.000000, 30.000000)" fill="#1A1A1A" id="Icon-Color">
                    <path d="M10.70725,12.29325 C11.09825,12.68425 11.09825,13.31625 10.70725,13.70725 C10.31625,14.09825 9.68425,14.09825 9.29325,13.70725 L4.29325,8.70725 C3.90225,8.31625 3.90225,7.68425 4.29325,7.29325 L9.29325,2.29325 C9.68425,1.90225 10.31625,1.90225 10.70725,2.29325 C11.09825,2.68425 11.09825,3.31625 10.70725,3.70725 L6.41425,8.00025 L10.70725,12.29325 Z"></path>
                </g>
                <text id="Centre-de-Prise-en-C" font-family="Helvetica" font-size="22" font-weight="normal" line-spacing="24" fill="#202124">
                    <tspan x="46" y="35">Centre de Prise en Charge et d'Action Bénévole de </tspan>
                    <tspan x="46" y="59">Richmond (Cab Richmond)</tspan>
                </text>
                <g id="Fill±±±±84190B1B-ACB0-41ED-9097-28D99B1FA848" transform="translate(995.000000, 18.293333)">
                    <mask id="mask-2" fill="white">
                        <use xlink:href="#path-1"></use>
                    </mask>
                    <path stroke="#E9E9E9" d="M359.5,0.5 L359.5,39.5 L4,39.5 C3.03350169,39.5 2.15850169,39.1082492 1.52512627,38.4748737 C0.891750844,37.8414983 0.5,36.9664983 0.5,36 L0.5,36 L0.5,4 C0.5,3.03350169 0.891750844,2.15850169 1.52512627,1.52512627 C2.15850169,0.891750844 3.03350169,0.5 4,0.5 L4,0.5 L359.5,0.5 Z"></path>
                </g>
                <mask id="mask-4" fill="white">
                    <use xlink:href="#path-3"></use>
                </mask>
                <path stroke="#E9E9E9" d="M1390,18.7933333 C1391.24264,18.7933333 1392.36764,19.297013 1393.18198,20.1113528 C1393.99632,20.9256926 1394.5,22.0506926 1394.5,23.2933333 L1394.5,23.2933333 L1394.5,53.2933333 C1394.5,54.535974 1393.99632,55.660974 1393.18198,56.4753138 C1392.36764,57.2896537 1391.24264,57.7933333 1390,57.7933333 L1390,57.7933333 L1354.5,57.7933333 L1354.5,18.7933333 Z"></path>
                <g id="02-Icons-/-16x16-/-ic16-search-Copy-2" transform="translate(1367.000000, 30.000000)" fill="#FFFFFF">
                    <path d="M6.66666667,0 C10.348565,0 13.3333333,2.98476833 13.3333333,6.66666667 C13.3333333,8.02547629 12.9268111,9.28933757 12.2287535,10.3432637 L15.6094757,13.7238576 C16.1301748,14.2445567 16.1301748,15.0887767 15.6094757,15.6094757 C15.1288304,16.090121 14.3725224,16.1270937 13.8494674,15.7203939 L13.7238576,15.6094757 L10.3432637,12.2287535 C9.28933757,12.9268111 8.02547629,13.3333333 6.66666667,13.3333333 C2.98476833,13.3333333 0,10.348565 0,6.66666667 C0,2.98476833 2.98476833,0 6.66666667,0 Z M6.66666667,2.66666667 C4.45752767,2.66666667 2.66666667,4.45752767 2.66666667,6.66666667 C2.66666667,8.87580567 4.45752767,10.6666667 6.66666667,10.6666667 C8.87580567,10.6666667 10.6666667,8.87580567 10.6666667,6.66666667 C10.6666667,4.45752767 8.87580567,2.66666667 6.66666667,2.66666667 Z" id="Icon-Color"></path>
                </g>
                <text id="Input-Text" font-family="Helvetica" font-size="16" font-weight="normal" line-spacing="16" letter-spacing="0.533333333" fill="#8FA0A5">
                    <tspan x="1006" y="34">Rechercher</tspan>
                </text>
                <rect id="Rectangle-Copy" stroke="#F1F1F1" fill="#FFFFFF" x="628" y="27" width="147" height="22" rx="11"></rect>
                <text id="Actualisé-le-2020-09" font-family="Helvetica" font-size="12" font-weight="normal" line-spacing="16" fill="#6D8086">
                    <tspan x="647.461914" y="38">Actualisé le 2020 09 </tspan>
                    <tspan x="694.826172" y="54">06</tspan>
                </text>
                <g id="01-Components-/-06-Badges-&amp;-Tags-/-01-Light-/-03-Small-/-01-Plain-/-02-Gray-Copy-41" transform="translate(585.000000, 26.000000)">
                    <g id="Base±±±±0B33F1CB-7384-4B7A-AFD9-56AC4920D8E1" transform="translate(0.000000, 1.000000)">
                        <mask id="mask-6" fill="white">
                            <use xlink:href="#path-5"></use>
                        </mask>
                        <path stroke="#E2975D" stroke-width="2" d="M27,1 C29.7614237,1 32.2614237,2.11928813 34.0710678,3.92893219 C35.8807119,5.73857625 37,8.23857625 37,11 C37,13.7614237 35.8807119,16.2614237 34.0710678,18.0710678 C32.2614237,19.8807119 29.7614237,21 27,21 L27,21 L11,21 C8.23857625,21 5.73857625,19.8807119 3.92893219,18.0710678 C2.11928813,16.2614237 1,13.7614237 1,11 C1,8.23857625 2.11928813,5.73857625 3.92893219,3.92893219 C5.73857625,2.11928813 8.23857625,1 11,1 L11,1 Z"></path>
                    </g>
                    <text id="Badge-Text" font-family="Helvetica" font-size="12" font-weight="normal" line-spacing="16" letter-spacing="0.4" fill="#E2975D">
                        <tspan x="9.6" y="11">PM</tspan>
                        <tspan x="14.4669922" y="27">U</tspan>
                    </text>
                </g>
            </g>
            <rect id="Rectangle" fill-opacity="0.7" fill="#030303" x="-1" y="0" width="1441" height="1877"></rect>
            <mask id="mask-8" fill="white">
                <use xlink:href="#path-7"></use>
            </mask>
            <use id="Style" fill="#FFFFFF" xlink:href="#path-7"></use>
            <mask id="mask-10" fill="white">
                <use xlink:href="#path-9"></use>
            </mask>
            <path stroke="#E8E8E8" d="M1184,20.5 C1186.07107,20.5 1187.94607,21.3394661 1189.3033,22.6966991 C1190.66053,24.0539322 1191.5,25.9289322 1191.5,28 L1191.5,28 L1191.5,812 C1191.5,814.071068 1190.66053,815.946068 1189.3033,817.303301 C1187.94607,818.660534 1186.07107,819.5 1184,819.5 L1184,819.5 L255,819.5 C252.928932,819.5 251.053932,818.660534 249.696699,817.303301 C248.339466,815.946068 247.5,814.071068 247.5,812 L247.5,812 L247.5,28 C247.5,25.9289322 248.339466,24.0539322 249.696699,22.6966991 C251.053932,21.3394661 252.928932,20.5 255,20.5 L255,20.5 Z"></path>
            <path d="M429.510252,78.7872228 C429.510252,76.851416 427.926411,75.3115697 426.034599,75.3115697 C424.142788,75.3115697 422.558946,76.8954116 422.558946,78.7872228 C422.558946,80.1510867 423.350867,81.2949726 424.450757,81.9109111 C423.92281,84.4186608 421.855016,85.5625466 418.951306,86.8824149 C418.247377,87.1903842 417.543447,87.5423491 416.883513,87.8943139 L416.883513,77.643337 C418.071394,77.1153897 418.951306,75.8835126 418.951306,74.4756531 C418.951306,72.5398463 417.367464,71 415.475653,71 C413.539846,71 412,72.5838419 412,74.4756531 C412,75.8835126 412.835917,77.1153897 414.067794,77.643337 L414.067794,93.2177827 L414.067794,90.5780461 L414.067794,93.965708 C412.879912,94.4936553 412,95.7255324 412,97.1333919 C412,99.0691987 413.583842,100.609045 415.475653,100.609045 C417.41146,100.609045 418.951306,99.0252031 418.951306,97.1333919 C418.951306,95.7255324 418.11539,94.4936553 416.883513,93.965708 L416.883513,91.8979144 C416.883513,91.0180022 418.11539,90.4020637 420.139188,89.4781559 C422.954907,88.2022832 426.650538,86.4864544 427.354468,82.0428979 C428.63034,81.5149506 429.510252,80.2830735 429.510252,78.7872228 Z M415.475653,72.7598244 C416.443557,72.7598244 417.191482,73.5517453 417.191482,74.4756531 C417.191482,75.4435565 416.399561,76.1914819 415.475653,76.1914819 C414.50775,76.1914819 413.759824,75.3995609 413.759824,74.4756531 C413.759824,73.5517453 414.50775,72.7598244 415.475653,72.7598244 Z M415.475653,98.8492206 C414.50775,98.8492206 413.759824,98.0572997 413.759824,97.1333919 C413.759824,96.1654885 414.551745,95.4175631 415.475653,95.4175631 C416.443557,95.4175631 417.191482,96.2094841 417.191482,97.1333919 C417.191482,98.1012953 416.399561,98.8492206 415.475653,98.8492206 Z M426.034599,80.5470472 L426.034599,80.5470472 C425.066696,80.5470472 424.318771,79.7551262 424.318771,78.8312184 C424.318771,77.863315 425.110692,77.1153897 426.034599,77.1153897 C426.958507,77.1153897 427.750428,77.9073106 427.750428,78.8312184 C427.750428,79.7551262 427.002503,80.5470472 426.034599,80.5470472 Z" id="Shape" fill="#C7C7C7" fill-rule="nonzero" transform="translate(420.755126, 85.804522) rotate(-270.000000) translate(-420.755126, -85.804522) "></path>
        </g>
    </g>
</svg>