<?xml version="1.0" encoding="utf-8"?>
<svg width="102px" height="107px" viewbox="0 0 102 107" version="1.1" xmlns:xlink="http://www.w3.org/1999/xlink" xmlns="http://www.w3.org/2000/svg">
  <defs>
    <path d="M34.666 9.179L0 8.239L0.381 14.195C0.381 14.195 -4.562 25.6 21.417 28.639L21.417 28.639L21.417 40.166L51.451 40.166L51.451 21C54.902 18.979 57.023 15.281 57.027 11.283L57.027 11.283C57.029 5.053 51.98 0.00100078 45.75 7.77647e-07L45.75 7.77647e-07C40.329 -0.00199922 35.676 3.854 34.666 9.179" transform="translate(0.437 0.64699924)" id="path_1" />
    <path d="M0.808098 2.462C-0.738902 4.935 0.00109762 8.193 2.4651 9.754L2.4651 9.754L17.9081 19.931C20.3801 21.477 23.6381 20.737 25.2001 18.274L25.2001 18.274C26.7451 15.8 26.0021 12.542 23.5361 10.982L23.5361 10.982L8.0941 0.806C7.2211 0.26 6.2491 0 5.2901 0L5.2901 0C3.5341 0 1.8171 0.871 0.808098 2.462" transform="translate(0.18390238 0.239)" id="path_2" />
    <path d="M1.647 0C0.733 0.029 0 0.78 0 1.701L0 1.701L0 79.126C0 80.066 0.762 80.827 1.702 80.827L1.702 80.827L43.079 80.827C44.019 80.827 44.781 80.066 44.781 79.126L44.781 79.126L44.781 1.701C44.781 0.78 44.048 0.029 43.134 0L43.134 0L1.647 0Z" transform="translate(0.433 0.06)" id="path_3" />
    <path d="M4.53063 0.148C1.38863 0.884 -0.568366 4.018 0.147634 7.163L0.147634 7.163L7.34963 33.908C8.07463 37.042 10.2266 39.086 13.3616 38.362L13.3616 38.362C16.4946 37.637 18.1476 35.101 17.4226 31.966L17.4226 31.966L11.5446 4.53C10.9116 1.826 8.50263 0 5.83763 0L5.83763 0C5.40663 0 4.96863 0.048 4.53063 0.148" transform="translate(0.07736606 0.845)" id="path_4" />
    <path d="M0.798821 2.436C-0.730179 4.879 0.000821433 8.098 2.43582 9.64L2.43582 9.64L12.7918 16.342C15.2358 17.87 18.4548 17.138 19.9968 14.704L19.9968 14.704C21.5258 12.26 20.7928 9.043 18.3598 7.5L18.3598 7.5L8.00182 0.799C7.13782 0.258 6.17782 0 5.22882 0L5.22882 0C3.49282 0 1.79482 0.863 0.798821 2.436" transform="translate(0.39217857 0.5)" id="path_5" />
    <path d="M0.805331 2.458C-0.736669 4.924 0.00133092 8.172 2.45833 9.728L2.45833 9.728L8.87333 14.406C11.3393 15.948 14.5863 15.21 16.1443 12.753L16.1443 12.753C17.6843 10.288 16.9453 7.04 14.4903 5.485L14.4903 5.485L8.07533 0.805C7.20333 0.26 6.23433 0 5.27633 0L5.27633 0C3.52433 0 1.81133 0.87 0.805331 2.458" transform="translate(0.6456691 0.636)" id="path_6" />
    <path d="M12.491 0C19.39 0 24.982 5.593 24.982 12.492C24.982 19.391 19.39 24.984 12.491 24.984C5.592 24.984 0 19.391 0 12.492" transform="translate(0.331 0.983)" id="path_7" />
    <path d="M0.801612 2.446C-0.733388 4.901 0.00161211 8.133 2.44661 9.683L2.44661 9.683L15.5716 18.23C18.0266 19.764 21.2586 19.03 22.8096 16.585L22.8096 16.585C24.3446 14.131 23.6096 10.897 21.1656 9.348L21.1656 9.348L8.03961 0.802C7.17161 0.259 6.20661 0 5.25261 0L5.25261 0C3.50961 0 1.80361 0.866 0.801612 2.446" transform="translate(0.2573879 0.501)" id="path_8" />
    <clipPath id="mask_1">
      <use xlink:href="#path_1" />
    </clipPath>
    <clipPath id="mask_2">
      <use xlink:href="#path_2" />
    </clipPath>
    <clipPath id="mask_3">
      <use xlink:href="#path_3" />
    </clipPath>
    <clipPath id="mask_4">
      <use xlink:href="#path_4" />
    </clipPath>
    <clipPath id="mask_5">
      <use xlink:href="#path_5" />
    </clipPath>
    <clipPath id="mask_6">
      <use xlink:href="#path_6" />
    </clipPath>
    <clipPath id="mask_7">
      <use xlink:href="#path_7" />
    </clipPath>
    <clipPath id="mask_8">
      <use xlink:href="#path_8" />
    </clipPath>
  </defs>
  <g id="Group-63" transform="translate(1 1)">
    <g id="Group-5" transform="translate(0 5)">
      <path d="M41.25 0C64.032 0 82.5 18.468 82.5 41.25C82.5 64.032 64.032 82.5 41.25 82.5C18.468 82.5 0 64.032 0 41.25C0 18.468 18.468 0 41.25 0Z" transform="translate(8.75 8.7499)" id="Stroke-1" fill="none" fill-rule="evenodd" stroke="#DCDCDC" stroke-width="2" stroke-dasharray="5 5" />
      <path d="M50 0C77.614 0 100 22.386 100 50C100 77.614 77.614 100 50 100C22.386 100 0 77.614 0 50C0 22.386 22.386 0 50 0Z" transform="translate(0 -0.0001)" id="Stroke-3" fill="none" fill-rule="evenodd" stroke="#DCDCDC" stroke-width="2" stroke-dasharray="5 5" />
    </g>
    <g id="Group-8" transform="translate(26 59)">
      <path d="M34.666 9.179L0 8.239L0.381 14.195C0.381 14.195 -4.562 25.6 21.417 28.639L21.417 28.639L21.417 40.166L51.451 40.166L51.451 21C54.902 18.979 57.023 15.281 57.027 11.283L57.027 11.283C57.029 5.053 51.98 0.00100078 45.75 7.77647e-07L45.75 7.77647e-07C40.329 -0.00199922 35.676 3.854 34.666 9.179" transform="translate(0.437 0.64699924)" id="Clip-7" fill="none" fill-rule="evenodd" stroke="none" />
      <g clip-path="url(#mask_1)">
        <path d="M34.666 9.179L0 8.239L0.381 14.195C0.381 14.195 -4.562 25.6 21.417 28.639L21.417 28.639L21.417 40.166L51.451 40.166L51.451 21C54.902 18.979 57.023 15.281 57.027 11.283L57.027 11.283C57.029 5.053 51.98 0.00100078 45.75 7.77647e-07L45.75 7.77647e-07C40.329 -0.00199922 35.676 3.854 34.666 9.179" transform="translate(0.437 0.64699924)" id="Fill-6" fill="none" fill-rule="evenodd" stroke="none" />
      </g>
    </g>
    <path d="M0.37 5.704C0.37 5.704 -4.363 16.626 20.516 19.54L20.516 30.585L49.279 30.585L49.279 1.336L0 0L0.37 5.704Z" transform="translate(27.638306 68.387695)" id="Fill-9" fill="#BE7C5E" fill-rule="evenodd" stroke="none" />
    <g id="Group-13" transform="translate(17 10)">
      <path d="M0.808098 2.462C-0.738902 4.935 0.00109762 8.193 2.4651 9.754L2.4651 9.754L17.9081 19.931C20.3801 21.477 23.6381 20.737 25.2001 18.274L25.2001 18.274C26.7451 15.8 26.0021 12.542 23.5361 10.982L23.5361 10.982L8.0941 0.806C7.2211 0.26 6.2491 0 5.2901 0L5.2901 0C3.5341 0 1.8171 0.871 0.808098 2.462" transform="translate(0.18390238 0.239)" id="Clip-12" fill="none" fill-rule="evenodd" stroke="none" />
      <g clip-path="url(#mask_2)">
        <path d="M0.808098 2.462C-0.738902 4.935 0.00109762 8.193 2.4651 9.754L2.4651 9.754L17.9081 19.931C20.3801 21.477 23.6381 20.737 25.2001 18.274L25.2001 18.274C26.7451 15.8 26.0021 12.542 23.5361 10.982L23.5361 10.982L8.0941 0.806C7.2211 0.26 6.2491 0 5.2901 0L5.2901 0C3.5341 0 1.8171 0.871 0.808098 2.462" transform="translate(0.18390238 0.239)" id="Fill-11" fill="none" fill-rule="evenodd" stroke="none" />
      </g>
    </g>
    <g id="Group-18" transform="translate(18 10)">
      <path d="M23.4291 16.9954L23.4291 16.9954C21.9781 19.2854 18.9501 19.9734 16.6511 18.5354L2.29114 9.06941C0.00113709 7.61841 -0.686863 4.58941 0.751137 2.29141C2.20214 0.00140724 5.23114 -0.686593 7.52914 0.750407L21.8861 10.2124C24.1801 11.6624 24.8701 14.6954 23.4291 16.9954" transform="translate(0.09866291 0.96159273)" id="Fill-14" fill="#BE7C5E" fill-rule="evenodd" stroke="none" />
      <path d="M10.802 0C16.768 0 21.604 4.836 21.604 10.802C21.604 16.767 16.768 21.603 10.802 21.603C4.836 21.603 0 16.767 0 10.802C0 4.836 4.836 0 10.802 0" transform="translate(42.655 50.4999)" id="Fill-16" fill="#BE7C5E" fill-rule="evenodd" stroke="none" />
    </g>
    <g id="Group-21" transform="translate(26 0)">
      <path d="M1.647 0C0.733 0.029 0 0.78 0 1.701L0 1.701L0 79.126C0 80.066 0.762 80.827 1.702 80.827L1.702 80.827L43.079 80.827C44.019 80.827 44.781 80.066 44.781 79.126L44.781 79.126L44.781 1.701C44.781 0.78 44.048 0.029 43.134 0L43.134 0L1.647 0Z" transform="translate(0.433 0.06)" id="Clip-20" fill="none" fill-rule="evenodd" stroke="none" />
      <g clip-path="url(#mask_3)">
        <path d="M1.647 0C0.733 0.029 0 0.78 0 1.701L0 1.701L0 79.126C0 80.066 0.762 80.827 1.702 80.827L1.702 80.827L43.079 80.827C44.019 80.827 44.781 80.066 44.781 79.126L44.781 79.126L44.781 1.701C44.781 0.78 44.048 0.029 43.134 0L43.134 0L1.647 0Z" transform="translate(0.433 0.06)" id="Fill-19" fill="none" fill-rule="evenodd" stroke="none" />
      </g>
    </g>
    <g id="Group-30" transform="translate(27 1)">
      <path d="M1.895 0L41.676 0C42.722 0 43.57 0.848 43.57 1.895L43.57 76.75C43.57 77.796 42.722 78.644 41.676 78.644L1.895 78.644C0.849 78.644 0 77.796 0 76.75L0 1.895C0 0.848 0.849 0 1.895 0" transform="translate(0.0371 0.1528)" id="Fill-22" fill="#FFFFFF" fill-rule="evenodd" stroke="none" />
      <path d="M31.637 0C31.377 1.724 29.899 2.999 28.156 3.004L13.108 3.004C11.366 2.999 9.888 1.723 9.628 0L1.656 0C0.742001 0 0.00100101 0.739 1.01232e-06 1.653L1.01232e-06 1.654L1.01232e-06 73.043C-0.000998988 73.957 0.739001 74.698 1.653 74.698L1.654 74.698L39.729 74.698C40.643 74.699 41.384 73.96 41.385 73.046L41.385 73.045L41.385 1.656C41.385 0.742 40.646 0.001 39.732 0L39.731 0L31.637 0Z" transform="translate(1.130599 2.1249)" id="Fill-24" fill="#1C1C1C" fill-rule="evenodd" stroke="none" />
      <path d="M0.278 0.1965L9.432 0.1965C9.585 0.1965 9.71 0.3215 9.71 0.4745L9.71 0.5255C9.71 0.6785 9.585 0.8035 9.432 0.8035L0.278 0.8035C0.124 0.8035 0 0.6785 0 0.5255L0 0.4745C0 0.3215 0.124 0.1965 0.278 0.1965" transform="translate(17.0291 2.8689)" id="Fill-26" fill="#DBDBDB" fill-rule="evenodd" stroke="none" />
      <path d="M0.5005 0.136C0.7005 0.136 0.8635 0.299 0.8635 0.5C0.8635 0.701 0.7005 0.864 0.5005 0.864C0.2995 0.864 0.1365 0.701 0.1365 0.5C0.1365 0.299 0.2995 0.136 0.5005 0.136" transform="translate(28.3013 2.8083)" id="Fill-28" fill="#DBDBDB" fill-rule="evenodd" stroke="none" />
    </g>
    <g id="Group-33" transform="translate(65 34)">
      <path d="M4.53063 0.148C1.38863 0.884 -0.568366 4.018 0.147634 7.163L0.147634 7.163L7.34963 33.908C8.07463 37.042 10.2266 39.086 13.3616 38.362L13.3616 38.362C16.4946 37.637 18.1476 35.101 17.4226 31.966L17.4226 31.966L11.5446 4.53C10.9116 1.826 8.50263 0 5.83763 0L5.83763 0C5.40663 0 4.96863 0.048 4.53063 0.148" transform="translate(0.07736606 0.845)" id="Clip-32" fill="none" fill-rule="evenodd" stroke="none" />
      <g clip-path="url(#mask_4)">
        <path d="M4.53063 0.148C1.38863 0.884 -0.568366 4.018 0.147634 7.163L0.147634 7.163L7.34963 33.908C8.07463 37.042 10.2266 39.086 13.3616 38.362L13.3616 38.362C16.4946 37.637 18.1476 35.101 17.4226 31.966L17.4226 31.966L11.5446 4.53C10.9116 1.826 8.50263 0 5.83763 0L5.83763 0C5.40663 0 4.96863 0.048 4.53063 0.148" transform="translate(0.07736606 0.845)" id="Fill-31" fill="none" fill-rule="evenodd" stroke="none" />
      </g>
    </g>
    <path d="M3.80926 0.127204L3.80926 0.127204C6.45526 -0.483796 9.09426 1.1652 9.70526 3.8102L16.3293 32.4752C16.9403 35.1212 15.2903 37.7592 12.6463 38.3712C10.0003 38.9822 7.36226 37.3342 6.75026 34.6882L0.127257 6.0232C-0.483743 3.3782 1.16426 0.738204 3.80926 0.127204" transform="translate(66.108765 36.219894)" id="Fill-34" fill="#BE7C5E" fill-rule="evenodd" stroke="none" />
    <path d="M0 9.583L41.111 9.583L41.111 0L0 0L0 9.583Z" transform="translate(41.10199 95.35901)" id="Fill-36" fill="none" fill-rule="evenodd" stroke="none" />
    <path d="M0 7.5L38.889 7.5L38.889 0L0 0L0 7.5Z" transform="translate(42.211975 96.47)" id="Fill-38" fill="#0C64CE" fill-rule="evenodd" stroke="none" />
    <g id="Group-42" transform="translate(16 42)">
      <path d="M0.798821 2.436C-0.730179 4.879 0.000821433 8.098 2.43582 9.64L2.43582 9.64L12.7918 16.342C15.2358 17.87 18.4548 17.138 19.9968 14.704L19.9968 14.704C21.5258 12.26 20.7928 9.043 18.3598 7.5L18.3598 7.5L8.00182 0.799C7.13782 0.258 6.17782 0 5.22882 0L5.22882 0C3.49282 0 1.79482 0.863 0.798821 2.436" transform="translate(0.39217857 0.5)" id="Clip-41" fill="none" fill-rule="evenodd" stroke="none" />
      <g clip-path="url(#mask_5)">
        <path d="M0.798821 2.436C-0.730179 4.879 0.000821433 8.098 2.43582 9.64L2.43582 9.64L12.7918 16.342C15.2358 17.87 18.4548 17.138 19.9968 14.704L19.9968 14.704C21.5258 12.26 20.7928 9.043 18.3598 7.5L18.3598 7.5L8.00182 0.799C7.13782 0.258 6.17782 0 5.22882 0L5.22882 0C3.49282 0 1.79482 0.863 0.798821 2.436" transform="translate(0.39217857 0.5)" id="Fill-40" fill="none" fill-rule="evenodd" stroke="none" />
      </g>
    </g>
    <g id="Group-45" transform="translate(17 58)">
      <path d="M0.805331 2.458C-0.736669 4.924 0.00133092 8.172 2.45833 9.728L2.45833 9.728L8.87333 14.406C11.3393 15.948 14.5863 15.21 16.1443 12.753L16.1443 12.753C17.6843 10.288 16.9453 7.04 14.4903 5.485L14.4903 5.485L8.07533 0.805C7.20333 0.26 6.23433 0 5.27633 0L5.27633 0C3.52433 0 1.81133 0.87 0.805331 2.458" transform="translate(0.6456691 0.636)" id="Clip-44" fill="none" fill-rule="evenodd" stroke="none" />
      <g clip-path="url(#mask_6)">
        <path d="M0.805331 2.458C-0.736669 4.924 0.00133092 8.172 2.45833 9.728L2.45833 9.728L8.87333 14.406C11.3393 15.948 14.5863 15.21 16.1443 12.753L16.1443 12.753C17.6843 10.288 16.9453 7.04 14.4903 5.485L14.4903 5.485L8.07533 0.805C7.20333 0.26 6.23433 0 5.27633 0L5.27633 0C3.52433 0 1.81133 0.87 0.805331 2.458" transform="translate(0.6456691 0.636)" id="Fill-43" fill="none" fill-rule="evenodd" stroke="none" />
      </g>
    </g>
    <g id="Group-57" transform="translate(17 27)">
      <g id="Group-48" transform="translate(19 0)">
        <path d="M12.491 0C19.39 0 24.982 5.593 24.982 12.492C24.982 19.391 19.39 24.984 12.491 24.984C5.592 24.984 0 19.391 0 12.492" transform="translate(0.331 0.983)" id="Clip-47" fill="none" fill-rule="evenodd" stroke="none" />
        <g clip-path="url(#mask_7)">
          <path d="M12.491 0C19.39 0 24.982 5.593 24.982 12.492C24.982 19.391 19.39 24.984 12.491 24.984C5.592 24.984 0 19.391 0 12.492C0 5.593 5.592 0 12.491 0" transform="translate(0.331 0.983)" id="Fill-46" fill="none" fill-rule="evenodd" stroke="none" />
        </g>
      </g>
      <path d="M9.757 0C15.1455 0 19.514 4.36853 19.514 9.757C19.514 15.1455 15.1455 19.514 9.757 19.514C4.36853 19.514 0 15.1455 0 9.757C0 4.36853 4.36853 0 9.757 0" transform="translate(23.0653 3.7182)" id="Fill-49" fill="#FFFFFF" fill-rule="evenodd" stroke="none" />
      <path d="M20.4855 20.4855C25.1715 15.7995 25.1715 8.20053 20.4855 3.51451C15.7995 -1.1715 8.20053 -1.1715 3.51451 3.51451C-1.1715 8.20053 -1.1715 15.7995 3.51451 20.4855C8.20053 25.1715 15.7995 25.1715 20.4855 20.4855ZM10.6575 6.19947C10.9615 5.5409 11.6707 5.18628 12.3799 5.36359C13.0639 5.5409 13.5198 6.19947 13.4691 6.93404C13.4438 7.4153 13.4185 7.87124 13.3931 8.35251C13.2918 10.1256 13.1905 11.8987 13.1145 13.6464C13.0892 14.229 12.6079 14.685 12.0253 14.685C11.4174 14.685 10.9615 14.229 10.9361 13.5958C10.9108 13.2412 10.9108 12.8865 10.8855 12.5319C10.8095 11.3921 10.7588 10.2522 10.6828 9.08707C10.6322 8.35251 10.6069 7.61794 10.5562 6.88338C10.5309 6.68074 10.5562 6.42744 10.6575 6.19947ZM12 15.7235C12.8106 15.7235 13.4691 16.3821 13.4945 17.1926C13.4945 18.0032 12.8359 18.6617 12.0253 18.6617C11.2401 18.6617 10.5562 18.0032 10.5562 17.2179C10.5309 16.4074 11.1894 15.7235 12 15.7235Z" transform="translate(20 1.06)" id="Shape" fill="#FFAB2B" stroke="none" />
      <path d="M15.0524 11.8841L15.0524 11.8841C13.6014 14.1741 10.5734 14.8631 8.27441 13.4251L2.29141 9.06914C0.00140724 7.61714 -0.686593 4.59014 0.750407 2.29114C2.20241 0.00113709 5.23041 -0.686863 7.52841 0.751137L13.5104 5.11414C15.7964 6.56614 16.4844 9.58714 15.0524 11.8841" transform="translate(1.2185928 32.155865)" id="Fill-53" fill="#BE7C5E" fill-rule="evenodd" stroke="none" />
      <path d="M18.8131 13.8341L18.8131 13.8341C17.3621 16.1241 14.3341 16.8131 12.0351 15.3741L2.29114 9.06914C0.00113709 7.61814 -0.686863 4.58914 0.751137 2.29114C2.20214 0.00113709 5.23014 -0.686863 7.52814 0.751137L17.2731 7.05714C19.5631 8.50814 20.2511 11.5361 18.8131 13.8341" transform="translate(0.0061629117 16.001762)" id="Fill-55" fill="#BE7C5E" fill-rule="evenodd" stroke="none" />
    </g>
    <g id="Group-60" transform="translate(16 26)">
      <path d="M0.801612 2.446C-0.733388 4.901 0.00161211 8.133 2.44661 9.683L2.44661 9.683L15.5716 18.23C18.0266 19.764 21.2586 19.03 22.8096 16.585L22.8096 16.585C24.3446 14.131 23.6096 10.897 21.1656 9.348L21.1656 9.348L8.03961 0.802C7.17161 0.259 6.20661 0 5.25261 0L5.25261 0C3.50961 0 1.80361 0.866 0.801612 2.446" transform="translate(0.2573879 0.501)" id="Clip-59" fill="none" fill-rule="evenodd" stroke="none" />
      <g clip-path="url(#mask_8)">
        <path d="M0.801612 2.446C-0.733388 4.901 0.00161211 8.133 2.44661 9.683L2.44661 9.683L15.5716 18.23C18.0266 19.764 21.2586 19.03 22.8096 16.585L22.8096 16.585C24.3446 14.131 23.6096 10.897 21.1656 9.348L21.1656 9.348L8.03961 0.802C7.17161 0.259 6.20661 0 5.25261 0L5.25261 0C3.50961 0 1.80361 0.866 0.801612 2.446" transform="translate(0.2573879 0.501)" id="Fill-58" fill="none" fill-rule="evenodd" stroke="none" />
      </g>
    </g>
    <path d="M21.3621 15.5331L21.3621 15.5331C19.9111 17.8231 16.8831 18.5121 14.5841 17.0741L2.29114 9.06914C0.00113709 7.61814 -0.686863 4.59014 0.751137 2.29114C2.20214 0.00113709 5.23014 -0.686863 7.52914 0.751137L19.8201 8.75514C22.1111 10.2061 22.7991 13.2341 21.3621 15.5331" transform="translate(17.007446 27.108368)" id="Fill-61" fill="#BE7C5E" fill-rule="evenodd" stroke="none" />
  </g>
</svg>