<?xml version="1.0" encoding="UTF-8"?>
<svg width="24px" height="24px" viewBox="0 0 24 24" version="1.1" xmlns="http://www.w3.org/2000/svg" xmlns:xlink="http://www.w3.org/1999/xlink">
    <!-- Generator: Sketch 59 (86127) - https://sketch.com -->
    <title>Shape</title>
    <desc>Created with Sketch.</desc>
    <g id="Page-1" stroke="none" stroke-width="1" fill="none" fill-rule="evenodd">
        <g id="Authenticator-Page-v2" transform="translate(-825.000000, -123.000000)" fill="#FF524E" fill-rule="nonzero">
            <path d="M837,123 C830.372583,123 825,128.372583 825,135 C825,141.627417 830.372583,147 837,147 C843.627417,147 849,141.627417 849,135 C849,128.372583 843.627417,123 837,123 Z M837,143.869565 C836.135554,143.869565 835.434783,143.168794 835.434783,142.304348 C835.434783,141.439902 836.135554,140.73913 837,140.73913 C837.864446,140.73913 838.565217,141.439902 838.565217,142.304348 C838.565217,143.168794 837.864446,143.869565 837,143.869565 Z M839.530209,130.818348 L837.718242,139.084588 C837.630713,139.445296 837.338309,139.695652 837.004549,139.695652 C836.670788,139.695652 836.378384,139.445296 836.290855,139.084588 L834.464097,130.801782 C834.276088,129.926165 834.456738,129.002343 834.954312,128.294875 C835.451887,127.587407 836.211509,127.174321 837.015642,127.173913 L837.015642,127.173913 C837.817624,127.182516 838.571842,127.602319 839.062234,128.313058 C839.552627,129.023798 839.725087,129.947057 839.530209,130.818348 L839.530209,130.818348 Z" id="Shape"></path>
        </g>
    </g>
</svg>