<?xml version="1.0" encoding="UTF-8"?>
<svg width="48px" height="40px" viewBox="0 0 48 40" version="1.1" xmlns="http://www.w3.org/2000/svg" xmlns:xlink="http://www.w3.org/1999/xlink">
    <!-- Generator: Sketch 59 (86127) - https://sketch.com -->
    <title>Group 7</title>
    <desc>Created with Sketch.</desc>
    <g id="Page-1" stroke="none" stroke-width="1" fill="none" fill-rule="evenodd">
        <g id="Authenticator-Page-v2" transform="translate(-894.000000, -759.000000)">
            <g id="Group-7" transform="translate(894.000000, 759.000000)">
                <g id="Group" fill="#DCDCDC" fill-rule="nonzero">
                    <path d="M0,0 L0,11.6665 L11.6665,11.6665 L11.6665,0 L0,0 Z M8.3335,8.3335 L3.3335,8.3335 L3.3335,3.3335 L8.3335,3.3335 L8.3335,8.3335 Z" id="Shape"></path>
                    <path d="M0,28.333 L0,40 L11.6665,40 L11.6665,28.333 L0,28.333 Z M8.3335,36.667 L3.3335,36.667 L3.3335,31.667 L8.3335,31.667 L8.3335,36.667 Z" id="Shape"></path>
                    <path d="M28.3335,0 L28.3335,11.6665 L40,11.6665 L40,0 L28.3335,0 Z M36.6665,8.3335 L31.6665,8.3335 L31.6665,3.3335 L36.6665,3.3335 L36.6665,8.3335 Z" id="Shape"></path>
                    <polygon id="Path" points="36.6665 15 36.6665 25 28.3335 25 28.3335 28.333 40 28.333 40 15"></polygon>
                    <polygon id="Path" points="28.3335 31.667 28.3335 40 31.6665 40 31.6665 35 36.6665 35 36.6665 40 40 40 40 31.667"></polygon>
                    <polygon id="Path" points="15 0 15 3.3335 21.6665 3.3335 21.6665 11.6665 25 11.6665 25 0"></polygon>
                    <polygon id="Path" points="21.6665 15 21.6665 21.667 15 21.667 15 31.667 21.6665 31.667 21.6665 40 25 40 25 28.333 18.3335 28.333 18.3335 25 25 25 25 18.3335 28.3335 18.3335 28.3335 21.667 31.6665 21.667 31.6665 15"></polygon>
                    <rect id="Rectangle" x="15" y="35" width="3.3335" height="5"></rect>
                    <rect id="Rectangle" x="6.6665" y="21.667" width="5" height="3.333"></rect>
                    <polygon id="Path" points="15 6.6665 15 15 0 15 0 25 3.3335 25 3.3335 18.3335 18.3335 18.3335 18.3335 6.6665"></polygon>
                </g>
                <g id="Group-3-Copy" transform="translate(33.000000, 19.000000)">
                    <circle id="Oval" fill="#FFFFFF" cx="7.5" cy="7.5" r="7.5"></circle>
                    <path d="M7.5,0 C3.358125,0 0,3.358125 0,7.5 C0,11.641875 3.358125,15 7.5,15 C11.641875,15 15,11.641875 15,7.5 C15,3.358125 11.641875,0 7.5,0 Z M6.796875,11.25 L3.515625,7.5 L4.921875,6.5625 L6.796875,8.4375 L10.078125,3.75 L11.484375,5.15625 L6.796875,11.25 Z" id="Shape" fill="#90BC50" fill-rule="nonzero"></path>
                </g>
            </g>
        </g>
    </g>
</svg>