<?xml version="1.0" encoding="UTF-8"?>
<svg width="60px" height="44px" viewBox="0 0 60 44" version="1.1" xmlns="http://www.w3.org/2000/svg" xmlns:xlink="http://www.w3.org/1999/xlink">
    <title>undraw_chat_1wo5</title>
    <g id="Page-1" stroke="none" stroke-width="1" fill="none" fill-rule="evenodd">
        <g id="Support-Page-/-Documentation-Hover" transform="translate(-595.000000, -347.000000)" fill-rule="nonzero">
            <g id="undraw_chat_1wo5" transform="translate(595.000000, 347.000000)">
                <path d="M57.513477,11.25 L27.7871853,11.25 C24.8673312,11.25 22.5,13.6158063 22.5,16.5340206 L22.5,34.823497 C22.496734,35.4794651 22.7568744,36.1098522 23.2232035,36.5759303 C23.6895326,37.0420084 24.3238358,37.3055834 24.986523,37.3086507 L43.864296,37.3086507 C44.4926364,39.4609957 46.0689994,42.4276309 50.0402214,43.75 L48.9192675,37.3086507 L57.513477,37.3086507 C58.1761642,37.3055834 58.8104674,37.0420084 59.2767965,36.5759303 C59.7431256,36.1098522 60.003266,35.4794651 60,34.823497 L60,13.7351537 C60.003266,13.0791857 59.7431256,12.4487985 59.2767965,11.9827204 C58.8104674,11.5166423 58.1761642,11.2530673 57.513477,11.25 L57.513477,11.25 Z" id="Path" fill="#FFFFFF"></path>
                <rect id="Rectangle" fill="#E0E0E0" x="34.375" y="16.25" width="15" height="1.875"></rect>
                <rect id="Rectangle" fill="#E0E0E0" x="43.75" y="20" width="5.625" height="1.875"></rect>
                <rect id="Rectangle" fill="#E0E0E0" x="38.75" y="23.125" width="10.625" height="1.875"></rect>
                <rect id="Rectangle" fill="#E0E0E0" x="35.625" y="26.875" width="13.75" height="1.875"></rect>
                <rect id="Rectangle" fill="#E0E0E0" x="41.875" y="30" width="6.875" height="1.875"></rect>
                <path d="M2.44166776,0 L34.4299329,0 C35.7805803,0 36.875,1.11237761 36.875,2.48492457 L36.875,23.5736647 C36.875,24.9462117 35.7805803,26.0585893 34.4299329,26.0585893 L15.8663673,26.0585893 C15.248286,28.2109615 13.6959273,31.1800332 9.7925426,32.5 L10.8951398,26.0585893 L2.44507505,26.0585893 C1.09442761,26.0585893 0,24.9462117 0,23.5736647 L0,2.48355885 C-0.00339934971,1.11237761 1.09102032,0 2.44166776,0 Z" id="Path" fill="#91ADFA"></path>
                <rect id="Rectangle" fill="#FFFFFF" x="11.25" y="5" width="15" height="1.875"></rect>
                <rect id="Rectangle" fill="#FFFFFF" x="11.25" y="8.125" width="5.625" height="1.875"></rect>
                <rect id="Rectangle" fill="#FFFFFF" x="11.875" y="11.875" width="10.625" height="1.875"></rect>
                <rect id="Rectangle" fill="#FFFFFF" x="11.25" y="15" width="13.75" height="1.875"></rect>
                <rect id="Rectangle" fill="#FFFFFF" x="11.875" y="18.75" width="6.875" height="1.875"></rect>
            </g>
        </g>
    </g>
</svg>