<?xml version="1.0" encoding="UTF-8"?>
<svg width="18px" height="16px" viewBox="0 0 18 16" version="1.1" xmlns="http://www.w3.org/2000/svg" xmlns:xlink="http://www.w3.org/1999/xlink">
    <!-- Generator: Sketch 59 (86127) - https://sketch.com -->
    <title>Shape</title>
    <desc>Created with Sketch.</desc>
    <g id="Page-1" stroke="none" stroke-width="1" fill="none" fill-rule="evenodd">
        <g id="Plan-Page---Sub-Section-/-Menu-Drop-Down" transform="translate(-399.000000, -253.000000)" fill="#6D8086" fill-rule="nonzero">
            <path d="M403.515741,253 L412.526021,253 L412.526021,255.27957 L403.515741,255.27957 L403.515741,253 Z M415.896926,256.44086 L400.123635,256.44086 C399.508816,256.44086 399,256.956989 399,257.580645 L399,263.301075 C399,263.924731 399.508816,264.44086 400.123635,264.44086 L403.49454,264.44086 L403.49454,269 L412.504821,269 L412.504821,264.419355 L415.875726,264.419355 C416.490545,264.419355 416.999361,263.903226 416.999361,263.27957 L416.999361,257.580645 C417.020561,256.935484 416.511745,256.44086 415.896926,256.44086 Z M411.381186,267.860215 L404.639376,267.860215 L404.639376,262.139785 L411.402386,262.139785 L411.402386,267.860215 L411.381186,267.860215 Z M416.151334,258.139785 C416.151334,258.591398 415.790923,258.978495 415.324508,258.978495 C414.879295,258.978495 414.497683,258.612903 414.497683,258.139785 C414.497683,257.666667 414.858094,257.301075 415.324508,257.301075 C415.790923,257.301075 416.151334,257.688172 416.151334,258.139785 Z" id="Shape"></path>
        </g>
    </g>
</svg>