<?xml version="1.0" encoding="UTF-8"?>
<svg width="30px" height="39px" viewBox="0 0 30 39" version="1.1" xmlns="http://www.w3.org/2000/svg" xmlns:xlink="http://www.w3.org/1999/xlink">
    <!-- Generator: Sketch 59 (86127) - https://sketch.com -->
    <title>MFA Lock icon</title>
    <desc>Created with Sketch.</desc>
    <g id="Page-1" stroke="none" stroke-width="1" fill="none" fill-rule="evenodd">
        <g id="Authenticator-Page-v2" transform="translate(-203.000000, -107.000000)" fill-rule="nonzero">
            <g id="MFA-Lock-icon" transform="translate(203.000000, 107.000000)">
                <path d="M26.2514552,13.383924 L23.9980043,13.383924 L23.9980043,9.04370889 C23.9980043,4.14612569 20.0598703,0.07470046 15.1205721,0.000494653888 C12.7149451,-0.0245664134 10.3987454,0.903543847 8.68610264,2.57881173 C6.97345987,4.25407962 6.0060714,6.53789998 5.99866955,8.92333058 L5.99866955,13.383924 L3.75020788,13.383924 C1.68167847,13.3902615 0.00639144096,15.0513998 0,17.1024594 L0,34.9481313 C0.00639144096,36.9991909 1.68167847,38.6603292 3.75020788,38.6666667 L26.2514552,38.6666667 C28.3197129,38.6603246 29.9945213,36.9989241 30,34.9481313 L30,17.1024594 C29.9945213,15.0516666 28.3197129,13.3902661 26.2514552,13.383924 L26.2514552,13.383924 Z M16.3148706,24.9566764 L16.3148706,31.3300547 C16.3193916,32.0303525 15.7728648,32.6141821 15.0649936,32.6652413 C14.7051176,32.6818691 14.3540253,32.5524396 14.0933646,32.3070522 C13.8327038,32.0616648 13.6851905,31.7217042 13.6851294,31.3662297 L13.6851294,24.9533877 C12.4297143,24.3492963 11.7629918,22.970203 12.0771633,21.6273631 C12.3913347,20.2845232 13.6032513,19.3333333 15,19.3333333 C16.3967487,19.3333333 17.6086653,20.2845232 17.9228367,21.6273631 C18.2370082,22.970203 17.5702857,24.3492963 16.3148706,24.9533877 L16.3148706,24.9566764 Z M21.3333333,13.3333333 L8.66666667,13.3333333 L8.66666667,8.92015907 C8.66666667,5.46645058 11.5010874,2.66666667 14.9975225,2.66666667 C18.4939576,2.66666667 21.3283783,5.46645058 21.3283783,8.92015907 L21.3333333,13.3333333 Z" id="Shape" fill="#3F3D56"></path>
                <path d="M23.7471944,13.383924 L23.7471944,9.04370889 C23.7471944,4.14612569 19.8090604,0.07470046 14.8697622,0.000405701807 C14.851659,0.000405701807 14.851659,12.8891594 14.8697622,38.6666667 L26.0006453,38.6666667 C28.068903,38.6603246 29.7437115,36.9989241 29.7491901,34.9481313 L29.7491901,17.1024594 C29.7437115,15.0516666 28.068903,13.3902661 26.0006453,13.383924 L23.7471944,13.383924 Z M16.0640607,24.9566764 L16.0640607,31.3300547 C16.0685817,32.0303525 15.5237032,32.6141821 14.8158319,32.6653494 C14.455956,32.6818691 14.8768482,19.3333333 14.7508383,19.3333333 C16.147587,19.3333333 17.3578554,20.2845232 17.6720268,21.6273631 C17.9861983,22.970203 17.3194759,24.3492963 16.0640607,24.9533877 L16.0640607,24.9566764 Z M21.0825234,13.3333333 L14.8598792,13.3333333 C14.8366427,6.22222222 14.7989205,2.66666667 14.7467126,2.66666667 C18.2431477,2.66666667 21.0775684,5.46645058 21.0775684,8.92015907 L21.0825234,13.3333333 Z" id="Shape-Copy" fill="#6C63FF" opacity="0.201729911"></path>
            </g>
        </g>
    </g>
</svg>