<?xml version="1.0" encoding="UTF-8"?>
<svg width="161px" height="160px" viewBox="0 0 161 160" version="1.1" xmlns="http://www.w3.org/2000/svg" xmlns:xlink="http://www.w3.org/1999/xlink">
    <!-- Generator: Sketch 59 (86127) - https://sketch.com -->
    <title>Group 2</title>
    <desc>Created with Sketch.</desc>
    <g id="Page-1" stroke="none" stroke-width="1" fill="none" fill-rule="evenodd">
        <g id="Admin-/-Versionning-Copy-13" transform="translate(-640.000000, -257.000000)">
            <g id="Group-2" transform="translate(640.151675, 257.000000)">
                <circle id="Oval" fill="#F1F1F1" cx="80" cy="80" r="80"></circle>
                <g id="undraw_No_data_re_kwbl-2" transform="translate(52.848325, 45.141466)" fill-rule="nonzero">
                    <g id="undraw_No_data_re_kwbl" transform="translate(0.000000, 0.587031)">
                        <path d="M47.3995667,62.3187527 L5.6711716,62.3187527 C5.09189021,62.3180812 4.62245629,61.8457379 4.62178889,61.2628663 L4.62178889,10.9529866 C4.62243593,10.3701066 5.09188176,9.89775133 5.6711716,9.89710028 L47.3995667,9.89710028 C47.9788478,9.89777251 48.4482813,10.3701154 48.4489494,10.9529866 L48.4489494,61.2628663 C48.4482603,61.8457288 47.9788391,62.3180593 47.3995667,62.3187527 Z" id="Path" fill="#E6E6E6"></path>
                        <path d="M52.7081802,66.4180762 C52.7069368,67.4466456 51.8785624,68.2801539 50.8563284,68.2814051 L2.21435309,68.2814051 C1.19211906,68.2801539 0.363744725,67.4466456 0.362501235,66.4180762 L0.362501235,9.52443451 C0.363744725,8.49586509 1.19211906,7.66235683 2.21435309,7.66110563 L50.8563284,7.66110563 C51.8785624,7.66235683 52.7069368,8.49586509 52.7081802,9.52443451 L52.7081802,66.4180762 Z" id="Path" fill="#FFFFFF"></path>
                        <path d="M28.2020074,7.41266178 L2.21435309,7.41266178 C1.05591671,7.41431139 0.117227104,8.35881861 0.115587654,9.52443451 L0.115587654,60.1821356 L0.362501235,60.1063602 L0.362501235,9.52443451 C0.363744725,8.49586509 1.19211906,7.66235683 2.21435309,7.66110563 L28.2785654,7.66110563 L28.2020074,7.41266178 Z M50.8563284,7.41266178 L2.21435309,7.41266178 C1.05591671,7.41431139 0.117227104,8.35881861 0.115587654,9.52443451 L0.115587654,66.4180762 C0.117226426,67.5836924 1.05591643,68.5282 2.21435309,68.529849 L50.8563284,68.529849 C52.0147651,68.5282 52.9534551,67.5836924 52.9550938,66.4180762 L52.9550938,9.52443451 C52.9534544,8.35881861 52.0147648,7.41431139 50.8563284,7.41266178 L50.8563284,7.41266178 Z" id="Shape" fill="#FFFFFF"></path>
                        <path d="M37.8933938,12.8784265 L15.1773444,12.8784265 C14.563981,12.8777316 14.0669239,12.377594 14.0662333,11.7604292 L14.0662333,6.29466445 C14.0669246,5.67749991 14.5639813,5.17736266 15.1773444,5.17666713 L37.8933938,5.17666713 C38.506757,5.17736266 39.0038137,5.67749991 39.0045049,6.29466445 L39.0045049,11.7604292 C39.0038144,12.377594 38.5067573,12.8777316 37.8933938,12.8784265 Z" id="Path" fill="#3B3B3B"></path>
                        <ellipse id="Oval" fill="#3B3B3B" cx="26.5353407" cy="3.06489564" rx="2.4691358" ry="2.4844385"></ellipse>
                        <ellipse id="Oval" fill="#FFFFFF" cx="26.5353407" cy="3.06489564" rx="1.50393457" ry="1.51325534"></ellipse>
                    </g>
                </g>
            </g>
        </g>
    </g>
</svg>