<?xml version="1.0" encoding="UTF-8"?>
<svg width="31px" height="43px" viewBox="0 0 31 43" version="1.1" xmlns="http://www.w3.org/2000/svg" xmlns:xlink="http://www.w3.org/1999/xlink">
    <!-- Generator: Sketch 59 (86127) - https://sketch.com -->
    <title>Group 6</title>
    <desc>Created with Sketch.</desc>
    <g id="Page-1" stroke="none" stroke-width="1" fill="none" fill-rule="evenodd">
        <g id="Authenticator-Page-v2" transform="translate(-549.000000, -757.000000)">
            <g id="Group-6" transform="translate(549.000000, 757.000000)">
                <path d="M4.20430108,4.61852778e-14 L18.672043,4.61852778e-14 C21.0215054,4.61852778e-14 23,1.82622505 23,4.13944344 L23,38.1072293 C23,40.4204477 21.0215054,42.3684211 18.672043,42.3684211 L4.20430108,42.3684211 C1.85483871,42.3684211 0,40.4204477 0,38.1072293 L0,4.13944344 C0,1.82622505 1.85483871,4.61852778e-14 4.20430108,4.61852778e-14 Z M12.1052632,37.5263158 C12.7655502,37.5263158 13.3157895,38.076555 13.3157895,38.7368421 C13.3157895,39.3971292 12.7655502,39.9473684 12.1052632,39.9473684 C11.4449761,39.9473684 10.8947368,39.3971292 10.8947368,38.7368421 C10.8947368,38.076555 11.4449761,37.5263158 12.1052632,37.5263158 Z M10.1217502,3.63157895 C9.53836398,3.63157895 9.53836398,2.42105263 10.1217502,2.42105263 L14.0887762,2.42105263 C14.6721623,2.42105263 14.6721623,3.63157895 14.0887762,3.63157895 L10.1217502,3.63157895 Z M7.86842105,2.42105263 C8.17105263,2.42105263 8.47368421,2.57236842 8.47368421,3.02631579 C8.47368421,3.32894737 8.17105263,3.63157895 7.86842105,3.63157895 C7.56578947,3.63157895 7.26315789,3.32894737 7.26315789,3.02631579 C7.26315789,2.57236842 7.56578947,2.42105263 7.86842105,2.42105263 Z M21.7894737,4.84210526 L21.7894737,36.3157895 L1.21052632,36.3157895 L1.21052632,4.84210526 L21.7894737,4.84210526 Z" id="Shape" fill="#DCDCDC"></path>
                <g id="Group-3" transform="translate(16.000000, 21.000000)">
                    <circle id="Oval" fill="#FFFFFF" cx="7.5" cy="7.5" r="7.5"></circle>
                    <path d="M7.5,0 C3.358125,0 0,3.358125 0,7.5 C0,11.641875 3.358125,15 7.5,15 C11.641875,15 15,11.641875 15,7.5 C15,3.358125 11.641875,0 7.5,0 Z M6.796875,11.25 L3.515625,7.5 L4.921875,6.5625 L6.796875,8.4375 L10.078125,3.75 L11.484375,5.15625 L6.796875,11.25 Z" id="Shape" fill="#90BC50" fill-rule="nonzero"></path>
                </g>
            </g>
        </g>
    </g>
</svg>