<?xml version="1.0" encoding="UTF-8"?>
<svg width="12px" height="13px" viewBox="0 0 12 13" version="1.1" xmlns="http://www.w3.org/2000/svg" xmlns:xlink="http://www.w3.org/1999/xlink">
    <title>Group 3 Copy</title>
    <defs>
        <path d="M391,463 L567,463 C569.209139,463 571,464.790861 571,467 L571,489 C571,491.209139 569.209139,493 567,493 L391,493 C388.790861,493 387,491.209139 387,489 L387,467 C387,464.790861 388.790861,463 391,463 Z" id="path-1"></path>
    </defs>
    <g id="Rezilio-Section-Edit-Buttons" stroke="none" stroke-width="1" fill="none" fill-rule="evenodd">
        <g id="Edit-Buttons-Style" transform="translate(-398.000000, -472.000000)">
            <mask id="mask-2" fill="white">
                <use xlink:href="#path-1"></use>
            </mask>
            <use id="Style-Copy-2" fill="#414040" xlink:href="#path-1"></use>
            <g id="Group-3-Copy" mask="url(#mask-2)">
                <g transform="translate(398.000000, 472.000000)">
                    <path d="M3.98553515,4.59837239 L8.30790724,4.59544211 C8.60344212,4.59530257 8.9073491,4.31176769 8.9073491,4.01637234 L8.90497701,0.615907223 L3.41051189,0.619953734 L3.41274445,4.02013978 C3.41274445,4.31567466 3.69000026,4.59851187 3.98553515,4.59837239 Z M6.82618631,1.1386049 L7.9533491,1.13804589 C8.13948863,1.13762815 8.28962817,1.28818629 8.29004677,1.47390722 L8.29158166,3.73813978 C8.29144212,3.92386071 8.14116305,4.07469792 7.95544212,4.07469792 L6.82772119,4.07539646 C6.64227933,4.0758142 6.49172119,3.92511652 6.49144212,3.73939559 L6.49004639,1.47474443 C6.4897677,1.28944211 6.64018631,1.1386049 6.82618631,1.1386049 Z" id="Shape" fill="none"></path>
                    <path d="M9.64897701,6.14093048 L2.29493049,6.14093048 C1.95209329,6.14093048 1.6741398,6.4310235 1.6741398,6.78893048 L1.6741398,11.5392561 L10.2701863,11.5392561 L10.2701863,6.78879094 C10.2700468,6.4310235 9.99209329,6.14093048 9.64897701,6.14093048 Z" id="Path" fill="none"></path>
                    <path d="M6.82772119,4.07539598 L7.95544212,4.07469792 C8.14116305,4.07469792 8.29144212,3.92386071 8.29158166,3.73813978 L8.29004677,1.47390722 C8.28962817,1.28818629 8.1393491,1.13748862 7.9533491,1.13804521 L6.82618631,1.1386049 C6.64018631,1.1386049 6.4897677,1.28944211 6.48990714,1.47474443 L6.49130259,3.73939559 C6.49172119,3.92511652 6.64227933,4.07567466 6.82772119,4.07539598 Z" id="Path" fill="#4BEC7A" fill-rule="nonzero"></path>
                    <path d="M11.9380468,2.40948862 C11.9377677,2.19251187 11.8855817,2.01446536 11.7457677,1.87507001 C11.6557677,1.78520955 10.6712096,0.801767688 10.1652561,0.295814199 C9.98679096,0.118465362 9.6517677,-0.000139289129 9.40227933,1.22768129e-07 C9.15265143,0.000139780638 0.994186309,0.0055816411 0.994186309,0.0055816411 C0.444697937,0.00627931552 -0.000278807504,0.451674664 1.31070106e-07,1.00088397 L0.00711654133,11.5640933 C0.00753514598,12.1137212 0.453209565,12.5584189 1.0025584,12.5582793 L10.9500003,12.5515816 C11.4993491,12.5514421 11.9444654,12.1054886 11.9443259,11.5565584 C11.9441863,11.5564189 11.9380468,2.54358164 11.9380468,2.40948862 Z M8.90497701,0.616046757 L8.9073491,4.01651187 C8.9073491,4.31190722 8.60344212,4.59530257 8.30790724,4.59558164 L3.98553515,4.59851193 C3.6901398,4.59865141 3.41288398,4.3158142 3.41288398,4.02027932 L3.41051189,0.619953734 L8.90497701,0.616046757 Z M10.2700468,11.5392561 L1.6741398,11.5392561 L1.6741398,6.78879094 C1.6741398,6.4310235 1.95209329,6.14079094 2.29493049,6.14079094 L9.64897701,6.14079094 C9.99209329,6.14079094 10.2700468,6.43088397 10.2700468,6.78879094 L10.2700468,11.5392561 L10.2700468,11.5392561 Z" id="Shape" fill="#4BEC7A" fill-rule="nonzero"></path>
                </g>
            </g>
        </g>
    </g>
</svg>