<?xml version="1.0" encoding="UTF-8"?>
<svg width="24px" height="24px" viewBox="0 0 24 24" version="1.1" xmlns="http://www.w3.org/2000/svg" xmlns:xlink="http://www.w3.org/1999/xlink">
    <title>Shape</title>
    <g id="Page-1" stroke="none" stroke-width="1" fill="none" fill-rule="evenodd">
        <g id="Plan-Page---Index-Copy-167" transform="translate(-475.000000, -141.000000)" fill="#FF524E" fill-rule="nonzero">
            <path d="M487,141 C480.372583,141 475,146.372583 475,153 C475,159.627417 480.372583,165 487,165 C493.627417,165 499,159.627417 499,153 C499,146.372583 493.627417,141 487,141 Z M487,161.869565 C486.135554,161.869565 485.434783,161.168794 485.434783,160.304348 C485.434783,159.439902 486.135554,158.73913 487,158.73913 C487.864446,158.73913 488.565217,159.439902 488.565217,160.304348 C488.565217,161.168794 487.864446,161.869565 487,161.869565 Z M489.530209,148.818348 L487.718242,157.084588 C487.630713,157.445296 487.338309,157.695652 487.004549,157.695652 C486.670788,157.695652 486.378384,157.445296 486.290855,157.084588 L484.464097,148.801782 C484.276088,147.926165 484.456738,147.002343 484.954312,146.294875 C485.451887,145.587407 486.211509,145.174321 487.015642,145.173913 L487.015642,145.173913 C487.817624,145.182516 488.571842,145.602319 489.062234,146.313058 C489.552627,147.023798 489.725087,147.947057 489.530209,148.818348 L489.530209,148.818348 Z" id="Shape"></path>
        </g>
    </g>
</svg>