<?xml version="1.0" encoding="UTF-8"?>
<svg width="186px" height="93px" viewBox="0 0 186 93" version="1.1" xmlns="http://www.w3.org/2000/svg" xmlns:xlink="http://www.w3.org/1999/xlink">
    <!-- Generator: Sketch 59 (86127) - https://sketch.com -->
    <title>Group 4</title>
    <desc>Created with Sketch.</desc>
    <g id="Page-1" stroke="none" stroke-width="1" fill="none" fill-rule="evenodd">
        <g id="Group-4" transform="translate(-1.000000, -1.000000)" fill-rule="nonzero">
            <g id="undraw_No_data_re_kwbl-2" transform="translate(53.000000, 0.000000)">
                <g id="undraw_No_data_re_kwbl" transform="translate(0.000000, 1.000000)">
                    <path d="M51.3932537,17.7436521 L29.5795325,17.7436521 C28.5445206,17.7449091 27.7057915,18.5823132 27.7045325,19.61569 L27.7045325,68.0203504 L27.4545325,68.0964861 L22.103275,69.7326473 C21.5752121,69.8934044 21.016497,69.5968911 20.8545575,69.0699459 L4.93701625,17.1583282 C4.77571502,16.6310613 5.07280279,16.0730227 5.60077375,15.911551 L13.8470513,13.3905399 L37.7533012,6.08459997 L45.9995163,3.56358891 C46.2529676,3.48570802 46.5270368,3.51167081 46.7612954,3.63575286 C46.9955541,3.75983492 47.1707648,3.97184656 47.2482963,4.22504231 L51.3170213,17.494047 L51.3932537,17.7436521 Z" id="Path" fill="#F2F2F2"></path>
                    <path d="M56.1532663,17.494047 L51.2495163,1.50185115 C51.0847458,0.963707018 50.712523,0.513002833 50.214798,0.248967574 C49.717073,-0.0150676856 49.1346531,-0.0707864221 48.5957663,0.0940786414 L37.0020163,3.6372224 L13.09705,10.9444129 L1.5033,14.4888047 C0.381868052,14.8326135 -0.249002457,16.0180648 0.093265,17.1383623 L16.853275,71.7931333 C17.1273917,72.6846868 17.9517175,73.293593 18.8858075,73.2945079 C19.0964102,73.2945079 19.3058278,73.2630503 19.5070225,73.2009058 L27.4545325,70.7722486 L27.7045325,70.694871 L27.7045325,70.4340337 L27.4545325,70.5101633 L19.4332925,72.962533 C18.4434504,73.263789 17.3961419,72.7083028 17.0920425,71.7207478 L0.33331375,17.0647288 C0.187164175,16.5900841 0.236156017,16.0768868 0.469481145,15.6383539 C0.702806273,15.1998209 1.1012918,14.8719876 1.5770275,14.7271775 L13.1707775,11.1827857 L37.0758075,3.87684575 L48.6695575,0.332453965 C48.8482211,0.278014981 49.0339666,0.250258105 49.220765,0.250084297 C50.043674,0.251929087 50.7694021,0.788775396 51.010805,1.57423912 L55.89203,17.4940495 L55.969545,17.7436546 L56.229555,17.7436546 L56.1532663,17.494047 Z" id="Path" fill="#3F3D56"></path>
                    <path d="M15.335115,15.9523589 C14.8405541,15.9520072 14.4040109,15.6297632 14.2586987,15.1577787 L12.6486525,9.90711419 C12.5612746,9.62226769 12.5908286,9.31443019 12.730811,9.05134255 C12.8707934,8.7882549 13.1097339,8.59147501 13.3950525,8.50430507 L35.3874275,1.78197043 C35.9814665,1.60098481 36.6101141,1.93437417 36.7925175,2.52712888 L38.4025638,7.77785452 C38.5837157,8.37094355 38.2498421,8.99851673 37.6562263,9.18072479 L15.66379,15.9030594 C15.5572905,15.9356926 15.4465171,15.9523589 15.335115,15.9523589 L15.335115,15.9523589 Z" id="Path" fill="#3B3B3B"></path>
                    <ellipse id="Oval" fill="#3B3B3B" cx="23.7691888" cy="3.1144034" rx="2.5" ry="2.49605055"></ellipse>
                    <ellipse id="Oval" fill="#FFFFFF" cx="23.7691888" cy="3.1144034" rx="1.5830775" ry="1.58057659"></ellipse>
                    <path d="M75.3295612,72.6567643 L33.0795612,72.6567643 C32.4930388,72.6560896 32.017737,72.1815386 32.0170612,71.5959428 L32.0170612,21.0509191 C32.0177164,20.4653147 32.4930303,19.9907517 33.0795612,19.9900976 L75.3295612,19.9900976 C75.9160834,19.990773 76.3913848,20.4653235 76.3920613,21.0509191 L76.3920613,71.5959428 C76.3913635,72.1815295 75.9160745,72.6560676 75.3295612,72.6567643 Z" id="Path" fill="#E6E6E6"></path>
                    <path d="M55.8920325,17.494047 L29.5795325,17.494047 C28.4066157,17.4957044 27.4561924,18.4446261 27.4545325,19.61569 L27.4545325,70.5101608 L27.7045325,70.4340312 L27.7045325,19.61569 C27.7057915,18.5823132 28.5445206,17.7449091 29.5795325,17.7436521 L55.9695475,17.7436521 L55.8920325,17.494047 Z M78.8295325,17.494047 L29.5795325,17.494047 C28.4066157,17.4957044 27.4561924,18.4446261 27.4545325,19.61569 L27.4545325,76.7752477 C27.4561918,77.9463118 28.4066154,78.895234 29.5795325,78.8968906 L78.8295325,78.8968906 C80.0024496,78.895234 80.9528732,77.9463118 80.9545325,76.7752477 L80.9545325,19.61569 C80.9528726,18.4446261 80.0024493,17.4957044 78.8295325,17.494047 L78.8295325,17.494047 Z M80.7045325,76.7752477 C80.7032735,77.8086245 79.8645444,78.6460285 78.8295325,78.6472856 L29.5795325,78.6472856 C28.5445206,78.6460285 27.7057915,77.8086245 27.7045325,76.7752477 L27.7045325,19.61569 C27.7057915,18.5823132 28.5445206,17.7449091 29.5795325,17.7436521 L78.8295325,17.7436521 C79.8645444,17.7449091 80.7032735,18.5823132 80.7045325,19.61569 L80.7045325,76.7752477 Z" id="Shape" fill="#3F3D56"></path>
                    <path d="M65.7045612,22.9853583 L42.7045612,22.9853583 C42.0835308,22.9846602 41.5802605,22.4821849 41.5795613,21.8621355 L41.5795613,16.3708243 C41.5802611,15.7507752 42.083531,15.2483003 42.7045613,15.2476015 L65.7045612,15.2476015 C66.3255915,15.2483003 66.8288614,15.7507752 66.8295612,16.3708243 L66.8295612,21.8621355 C66.828862,22.4821849 66.3255917,22.9846602 65.7045612,22.9853583 Z" id="Path" fill="#3B3B3B"></path>
                    <ellipse id="Oval" fill="#3B3B3B" cx="54.2045325" cy="13.1259598" rx="2.5" ry="2.49605055"></ellipse>
                    <ellipse id="Oval" fill="#FFFFFF" cx="54.2045325" cy="13.1259598" rx="1.52273375" ry="1.52032817"></ellipse>
                </g>
            </g>
            <g id="Group-3" transform="translate(0.000000, 29.000000)">
                <path d="M100.534493,35 C88.3299993,35 75.6898291,33.7232698 62.7473124,31.1750822 C27.940551,24.3222873 9.13217353,11.0308161 8.10260366,10.4599015 L5,5.14803271 L5,5.14848592 L5,5.14837368 C5.29122138,5.30899676 30.0079565,18.8436369 63.9696008,25.5026861 C95.1357215,31.6131657 140.737933,33.0168049 181,5 L180.115244,11.3976502 C161.59061,24.2884384 144.518411,30.7388136 121.39727,33.6976338 C114.475738,34.5740738 107.508179,35.0089792 100.534493,35 Z" id="Path" fill="#FF524E"></path>
                <rect id="Rectangle" fill="#E0E0E0" x="6" y="2" width="4" height="57"></rect>
                <path d="M4.76150627,57 L11.2384977,57 C13.3159179,57 15,58.9246675 15,61.2988621 L15,65 L1,65 L1,61.2988621 C1,58.9246657 2.6840845,57 4.76150627,57 L4.76150627,57 Z" id="Path" fill="#E0E0E0"></path>
                <circle id="Oval" fill="#E0E0E0" cx="8" cy="4" r="4"></circle>
                <rect id="Rectangle" fill="#E0E0E0" x="177" y="2" width="4" height="57"></rect>
                <path d="M176.761506,57 L183.238496,57 C185.315917,57 187,58.9246661 187,61.2988621 L187,65 L173,65 L173,61.2988621 C173,58.9246657 174.684084,57 176.761506,57 L176.761506,57 Z" id="Path" fill="#E0E0E0"></path>
                <circle id="Oval" fill="#E0E0E0" cx="179" cy="4" r="4"></circle>
            </g>
        </g>
    </g>
</svg>