<?xml version="1.0" encoding="UTF-8"?>
<svg width="147px" height="118px" viewBox="0 0 147 118" version="1.1" xmlns="http://www.w3.org/2000/svg" xmlns:xlink="http://www.w3.org/1999/xlink">
    <title>undraw_Throw_away_re_x60k 2</title>
    <defs>
        <path d="M10,0 L28,0 C33.5228475,-1.01453063e-15 38,4.4771525 38,10 C38,15.5228475 33.5228475,20 28,20 L10,20 C4.4771525,20 6.76353751e-16,15.5228475 0,10 C-6.76353751e-16,4.4771525 4.4771525,1.01453063e-15 10,0 Z" id="path-1"></path>
        <path d="M11,5.32907052e-15 L23,5.32907052e-15 C29.0751322,4.21308683e-15 34,4.92486775 34,11 C34,17.0751322 29.0751322,22 23,22 L11,22 C4.92486775,22 7.43989126e-16,17.0751322 0,11 C-7.43989126e-16,4.92486775 4.92486775,6.44505421e-15 11,5.32907052e-15 Z" id="path-3"></path>
        <path d="M4,0 L416,0 C418.209139,-4.05812251e-16 420,1.790861 420,4 L420,188 C420,190.209139 418.209139,192 416,192 L4,192 C1.790861,192 2.705415e-16,190.209139 0,188 L0,4 C-2.705415e-16,1.790861 1.790861,4.05812251e-16 4,0 Z" id="path-5"></path>
        <filter x="-1.9%" y="-2.1%" width="103.8%" height="108.3%" filterUnits="objectBoundingBox" id="filter-7">
            <feMorphology radius="2" operator="erode" in="SourceAlpha" result="shadowSpreadOuter1"></feMorphology>
            <feOffset dx="0" dy="4" in="shadowSpreadOuter1" result="shadowOffsetOuter1"></feOffset>
            <feGaussianBlur stdDeviation="4" in="shadowOffsetOuter1" result="shadowBlurOuter1"></feGaussianBlur>
            <feColorMatrix values="0 0 0 0 0.101960784   0 0 0 0 0.101960784   0 0 0 0 0.101960784  0 0 0 0.2 0" type="matrix" in="shadowBlurOuter1"></feColorMatrix>
        </filter>
        <path d="M4,0 L416,0 C418.209139,-4.05812251e-16 420,1.790861 420,4 L420,188 C420,190.209139 418.209139,192 416,192 L4,192 C1.790861,192 2.705415e-16,190.209139 0,188 L0,4 C-2.705415e-16,1.790861 1.790861,4.05812251e-16 4,0 Z" id="path-8"></path>
    </defs>
    <g id="Page-1" stroke="none" stroke-width="1" fill="none" fill-rule="evenodd">
        <g id="Admin-/-Versionning-Copy-38" transform="translate(-727.000000, -242.000000)">
            <rect id="Rectangle-Copy-3" stroke="#F7F7F7" fill="#FFFFFF" x="202.5" y="304.5" width="1035" height="51" rx="8"></rect>
            <text id="Marie-Bouchard" font-family="Helvetica" font-size="12" font-weight="normal" line-spacing="16" fill="#6D8086">
                <tspan x="847" y="326">Marie Bouchard</tspan>
            </text>
            <g id="01-Components-/-06-Badges-&amp;-Tags-/-01-Light-/-03-Small-/-01-Plain-/-02-Gray-Copy-41" opacity="0.5" transform="translate(727.000000, 316.000000)">
                <g id="Base±±±±0B33F1CB-7384-4B7A-AFD9-56AC4920D8E1" transform="translate(0.000000, 1.000000)">
                    <mask id="mask-2" fill="white">
                        <use xlink:href="#path-1"></use>
                    </mask>
                    <use id="Style" stroke="#E2975D" stroke-width="2" xlink:href="#path-1"></use>
                </g>
                <text id="Badge-Text" font-family="Helvetica" font-size="12" font-weight="normal" line-spacing="16" letter-spacing="0.4" fill="#E2975D">
                    <tspan x="9.6" y="11">PM</tspan>
                    <tspan x="14.4669922" y="27">U</tspan>
                </text>
            </g>
            <g id="Group-10" transform="translate(203.000000, 251.000000)">
                <rect id="Rectangle" stroke="#F7F7F7" fill="#FFFFFF" x="-0.5" y="-0.5" width="1035" height="51" rx="8"></rect>
                <text id="David-Pelletier" font-family="Helvetica" font-size="12" font-weight="normal" line-spacing="16" fill="#6D8086">
                    <tspan x="644" y="21">David Pelletier</tspan>
                </text>
                <g id="Group-8" transform="translate(524.000000, 11.000000)" opacity="0.5">
                    <g id="Base">
                        <mask id="mask-4" fill="white">
                            <use xlink:href="#path-3"></use>
                        </mask>
                        <path stroke="#8A61E3" stroke-width="2" d="M23,1 C25.7614237,1 28.2614237,2.11928813 30.0710678,3.92893219 C31.8807119,5.73857625 33,8.23857625 33,11 C33,13.7614237 31.8807119,16.2614237 30.0710678,18.0710678 C28.2614237,19.8807119 25.7614237,21 23,21 L23,21 L11,21 C8.23857625,21 5.73857625,19.8807119 3.92893219,18.0710678 C2.11928813,16.2614237 1,13.7614237 1,11 C1,8.23857625 2.11928813,5.73857625 3.92893219,3.92893219 C5.73857625,2.11928813 8.23857625,1 11,1 L11,1 Z"></path>
                    </g>
                    <text id="Badge-Text" font-family="Helvetica" font-size="12" font-weight="normal" line-spacing="16" letter-spacing="0.4" fill="#8A61E3">
                        <tspan x="7.22910156" y="12">PPI</tspan>
                    </text>
                </g>
            </g>
            <rect id="Rectangle" fill-opacity="0.7" fill="#030303" x="0" y="0" width="1441" height="1712"></rect>
            <g id="Base" transform="translate(510.000000, 205.000000)">
                <g id="Shadow">
                    <mask id="mask-6" fill="white">
                        <use xlink:href="#path-5"></use>
                    </mask>
                    <g id="Style">
                        <use fill="black" fill-opacity="1" filter="url(#filter-7)" xlink:href="#path-5"></use>
                        <use fill="#FFFFFF" fill-rule="evenodd" xlink:href="#path-5"></use>
                    </g>
                </g>
                <g id="Fill">
                    <mask id="mask-9" fill="white">
                        <use xlink:href="#path-8"></use>
                    </mask>
                    <use id="Style" fill="#F1F1F1" xlink:href="#path-8"></use>
                    <g id="undraw_Throw_away_re_x60k-2" mask="url(#mask-9)">
                        <g transform="translate(217.000000, 37.000000)" id="undraw_Throw_away_re_x60k">
                            <path d="M101.353327,117.822187 L43.9479933,117.822187 L43.9369933,117.50052 L41.1959933,39.1071867 L104.104993,39.1071867 L101.353327,117.822187 Z M44.5919933,117.15552 L100.709327,117.15552 L103.414993,39.7738533 L41.8859933,39.7738533 L44.5919933,117.15552 Z" id="bca7d782-7e31-494e-97b0-f49b8df7894d" fill="#767676" fill-rule="nonzero"></path>
                            <g id="e7d5632f-8461-4dcf-9cd9-df8e3f64d5e2" transform="translate(53.000000, 53.333333)" fill="#767676" fill-rule="nonzero">
                                <rect id="ad932c98-7027-4b28-8e73-a76d8a4136e0" x="0.275323333" y="0.298856667" width="4.36633333" height="54.0323333"></rect>
                                <rect id="ae1e5d8b-7977-4a56-a24c-fbb057f76b38" x="17.46734" y="0.298856667" width="4.36633333" height="54.0323333"></rect>
                                <rect id="bffa0855-fc38-45cc-9e39-6daa1d3e4103" x="34.6593367" y="0.298856667" width="4.36633333" height="54.0323333"></rect>
                            </g>
                            <path d="M140.58315,62.1273733 L140.30125,61.9493133 L68.9965633,16.88828 L75.1817833,7.10100667 L75.4636867,7.27906667 L146.768047,52.33994 L140.58315,62.1273733 Z M69.9164833,16.6809233 L140.375483,61.2074533 L145.84815,52.5476233 L75.3894833,8.02060333 L69.9164833,16.6809233 Z" id="Shape" fill="#767676" fill-rule="nonzero"></path>
                            <path d="M123.367323,13.2565233 C119.134898,10.5779474 113.730088,10.6096756 109.529401,13.337757 C105.328715,16.0658384 103.1016,20.9905654 103.827323,25.9465233 L107.227323,28.09519 C105.473406,24.0227328 106.576428,19.2827259 109.948144,16.4030276 C113.31986,13.5233293 118.174063,13.1754202 121.921993,15.5448412 C125.669922,17.9142621 127.437646,22.4485177 126.282433,26.7294772 C125.12722,31.0104368 121.318439,34.0398773 116.887323,34.20219 L120.287323,36.3508567 C125.075635,34.8808995 128.569277,30.7568101 129.23206,25.7919921 C129.894843,20.827174 127.605361,15.9310611 123.370323,13.2565233 L123.367323,13.2565233 Z" id="b31113e7-cae2-4653-b248-af5e4acb0a6c" fill="#767676" fill-rule="nonzero"></path>
                            <g id="ff061cc6-72bd-494d-9c36-32e4a4020cd7" fill-rule="nonzero">
                                <path d="M28.5744333,53.1815533 L0.57391,33.5572567 C0.0322959941,33.1760966 -0.0991483222,32.4287403 0.27991,31.8856533 L22.2570233,0.52806 C22.6381834,-0.0135540059 23.3855397,-0.144998322 23.9286267,0.23406 L51.9291467,19.8583567 C52.4707623,20.2395156 52.6022069,20.9868734 52.2231467,21.52996 L30.2466033,52.8867367 C29.8656706,53.4289827 29.117838,53.5608314 28.5744333,53.1815533 Z" id="bc404282-8d4f-43f7-bc12-02f97785eba1" fill="#FF524E"></path>
                                <path d="M34.8714033,31.8878667 L18.4411733,20.3726633 C17.9242457,20.0103716 17.6398652,19.3998227 17.6951553,18.7710044 C17.7504453,18.1421861 18.137006,17.5906309 18.7092236,17.3241043 C19.2814413,17.0575778 19.9523824,17.1165716 20.46931,17.4788633 L36.89954,28.9940667 C37.6986407,29.5541212 37.892426,30.6559342 37.3323716,31.4550349 C36.7723171,32.2541357 35.6705041,32.447921 34.8714033,31.8878667 L34.8714033,31.8878667 Z" id="ae4af9f3-88ec-4cab-9b9e-a4fc234f7062" fill="#FFFFFF"></path>
                                <path d="M31.1006067,37.2681533 L14.6703767,25.75295 C14.1528368,25.3908976 13.8679198,24.7801196 13.9230597,24.1509224 C13.9781996,23.5217252 14.3650091,22.9698141 14.9376337,22.7032986 C15.5102583,22.436783 16.1815979,22.4962019 16.69851,22.85915 L33.12874,34.3743533 C33.9268669,34.9347555 34.1200319,36.0358304 33.560321,36.8344423 C33.0006101,37.6330542 31.8997029,37.8271725 31.1006067,37.2681533 L31.1006067,37.2681533 Z" id="fe48f3fd-992f-41c2-af3b-c30882e26a16" fill="#FFFFFF"></path>
                                <path d="M27.28925,42.70631 L10.8590233,31.1910933 C10.0599216,30.6310398 9.86613478,29.5292267 10.4261883,28.730125 C10.9862419,27.9310233 12.0880549,27.7372364 12.8871567,28.29729 L29.3173867,39.8124933 C30.1164883,40.3725469 30.3102751,41.4743599 29.7502216,42.2734616 C29.190168,43.0725633 28.0883551,43.2663501 27.2892533,42.7062967 L27.28925,42.70631 Z" id="e216638f-22ba-49ea-a46c-300c78c4e875" fill="#FFFFFF"></path>
                                <path d="M34.82522,21.24452 L28.4613167,16.7843467 C27.9437768,16.4222943 27.6588598,15.8115162 27.7139997,15.1823191 C27.7691396,14.5531219 28.1559491,14.0012108 28.7285737,13.7346952 C29.3011983,13.4681797 29.9725379,13.5275985 30.48945,13.8905467 L36.8533567,18.3507167 C37.6524583,18.9107712 37.8462444,20.0125849 37.2861899,20.8116866 C36.7261355,21.6107883 35.6243217,21.8045744 34.82522,21.24452 L34.82522,21.24452 Z" id="ee43e3d8-5f22-4b53-a964-043fec166479" fill="#FFFFFF"></path>
                            </g>
                        </g>
                    </g>
                </g>
            </g>
        </g>
    </g>
</svg>