<?xml version="1.0" encoding="UTF-8"?>
<svg width="80px" height="121px" viewBox="0 0 80 121" version="1.1" xmlns="http://www.w3.org/2000/svg" xmlns:xlink="http://www.w3.org/1999/xlink">
    <title>Group 4</title>
    <defs>
        <polygon id="path-1" points="1.13686838e-12 0 950 0 950 834 1.13686838e-12 834"></polygon>
        <polygon id="path-3" points="0 0 950 0 950 834 0 834"></polygon>
        <rect id="path-5" x="33" y="111" width="885" height="587" rx="1"></rect>
        <filter x="-2.3%" y="-2.7%" width="104.5%" height="106.8%" filterUnits="objectBoundingBox" id="filter-6">
            <feOffset dx="0" dy="4" in="SourceAlpha" result="shadowOffsetOuter1"></feOffset>
            <feGaussianBlur stdDeviation="6" in="shadowOffsetOuter1" result="shadowBlurOuter1"></feGaussianBlur>
            <feComposite in="shadowBlurOuter1" in2="SourceAlpha" operator="out" result="shadowBlurOuter1"></feComposite>
            <feColorMatrix values="0 0 0 0 0   0 0 0 0 0   0 0 0 0 0  0 0 0 0.151906687 0" type="matrix" in="shadowBlurOuter1"></feColorMatrix>
        </filter>
        <path d="M4,0 L416,0 C418.209139,-4.05812251e-16 420,1.790861 420,4 L420,188 C420,190.209139 418.209139,192 416,192 L4,192 C1.790861,192 2.705415e-16,190.209139 0,188 L0,4 C-2.705415e-16,1.790861 1.790861,4.05812251e-16 4,0 Z" id="path-7"></path>
        <filter x="-1.9%" y="-2.1%" width="103.8%" height="108.3%" filterUnits="objectBoundingBox" id="filter-9">
            <feMorphology radius="2" operator="erode" in="SourceAlpha" result="shadowSpreadOuter1"></feMorphology>
            <feOffset dx="0" dy="4" in="shadowSpreadOuter1" result="shadowOffsetOuter1"></feOffset>
            <feGaussianBlur stdDeviation="4" in="shadowOffsetOuter1" result="shadowBlurOuter1"></feGaussianBlur>
            <feColorMatrix values="0 0 0 0 0.101960784   0 0 0 0 0.101960784   0 0 0 0 0.101960784  0 0 0 0.2 0" type="matrix" in="shadowBlurOuter1"></feColorMatrix>
        </filter>
        <path d="M4,0 L416,0 C418.209139,-4.05812251e-16 420,1.790861 420,4 L420,188 C420,190.209139 418.209139,192 416,192 L4,192 C1.790861,192 2.705415e-16,190.209139 0,188 L0,4 C-2.705415e-16,1.790861 1.790861,4.05812251e-16 4,0 Z" id="path-10"></path>
    </defs>
    <g id="Page-1" stroke="none" stroke-width="1" fill="none" fill-rule="evenodd">
        <g id="Plan-Page-/-Sub-Section-/-Submit-draft-/-Pop-up-/-Validation" transform="translate(-748.000000, -251.000000)">
            <g id="Prise-de-contacts-..-/-Edit-text" transform="translate(475.000000, 15.000000)">
                <mask id="mask-2" fill="white">
                    <use xlink:href="#path-1"></use>
                </mask>
                <use id="Style" fill="#FFFFFF" xlink:href="#path-1"></use>
                <g id="Stroke" transform="translate(0.000000, 0.000000)">
                    <mask id="mask-4" fill="white">
                        <use xlink:href="#path-3"></use>
                    </mask>
                    <path stroke="#A3C3E9" d="M949.5,0.5 L949.5,833.5 L0.5,833.5 L0.5,0.5 L949.5,0.5 Z"></path>
                </g>
                <g id="Rectangle">
                    <use fill="black" fill-opacity="1" filter="url(#filter-6)" xlink:href="#path-5"></use>
                    <rect stroke="#D6D6D6" stroke-width="1" stroke-linejoin="square" fill="#FFFFFF" fill-rule="evenodd" x="33.5" y="111.5" width="884" height="586" rx="1"></rect>
                </g>
                <text id="Il-est-recommandé-de" font-family="Helvetica" font-size="16" font-weight="normal" line-spacing="28" letter-spacing="0.084" fill="#343434">
                    <tspan x="59" y="238">Il est recommandé de prendre contact auprès de la population vulnérable afin de:</tspan>
                    <tspan x="59" y="266"></tspan>
                    <tspan x="59" y="294">- l’informer des consignes à respecter;</tspan>
                    <tspan x="59" y="322">- l’informer des mesures mises à sa disposition;</tspan>
                    <tspan x="59" y="350">- s’enquérir d'éventuels besoins spécifiques.</tspan>
                    <tspan x="59" y="378"> </tspan>
                    <tspan x="59" y="406">La mission services aux sinistrés sera en charge de prendre contact avec le CISSS afin de </tspan>
                    <tspan x="59" y="434">s'assurer que la clientèle concernée est identifiée. En parallèle, la mission communication devra </tspan>
                    <tspan x="59" y="462">faire la promotion de la démarche voisins solidaires, sollicitée en support aux interventions </tspan>
                    <tspan x="59" y="490">municipales.</tspan>
                </text>
            </g>
            <rect id="Rectangle" fill-opacity="0.7" fill="#030303" x="0" y="0" width="1440" height="1877"></rect>
            <g id="Base" transform="translate(510.000000, 205.000000)">
                <g id="Shadow">
                    <mask id="mask-8" fill="white">
                        <use xlink:href="#path-7"></use>
                    </mask>
                    <g id="Style">
                        <use fill="black" fill-opacity="1" filter="url(#filter-9)" xlink:href="#path-7"></use>
                        <use fill="#FFFFFF" fill-rule="evenodd" xlink:href="#path-7"></use>
                    </g>
                </g>
                <g id="Fill">
                    <mask id="mask-11" fill="white">
                        <use xlink:href="#path-10"></use>
                    </mask>
                    <use id="Style" fill="#F1F1F1" xlink:href="#path-10"></use>
                </g>
            </g>
            <g id="Group-4" transform="translate(748.000000, 251.000000)" fill-rule="nonzero">
                <path d="M71.3319756,45.2625381 C70.8531574,44.1255885 69.743271,43.3830027 68.5096406,43.3742132 L12.1746152,43.3742132 C10.4884155,43.3751094 9.12170432,44.7418206 9.12080812,46.4280203 L9.12080812,117.697056 C9.12170432,119.383256 10.4884155,120.749967 12.1746152,120.750863 L68.5116711,120.750863 C70.1973147,120.748626 71.5632411,119.382699 71.5654951,117.697056 L71.5654951,46.4280203 C71.5668218,46.0279767 71.4881201,45.6317068 71.3340061,45.2625381 L71.3319756,45.2625381 Z M70.8852751,117.697056 C70.8837088,119.008433 69.821018,120.071124 68.5096406,120.07269 L12.1746152,120.07269 C10.8628399,120.07269 9.79898071,119.009237 9.79898071,117.697462 L9.79898071,46.4284264 C9.80077025,45.1171416 10.8633305,44.0545814 12.1746152,44.0527919 L68.5116711,44.0527919 C69.4821086,44.0564743 70.3537598,44.6472066 70.7167472,45.5472081 C70.7513004,45.6348857 70.7811234,45.7243544 70.8060873,45.8152284 C70.8599962,46.0151691 70.8873056,46.2213456 70.8873056,46.4284264 L70.8852751,117.697056 Z" id="f152a38b-6c6f-456c-96ce-4c801960ccf2" fill="#3F3D56"></path>
                <path d="M59.5756264,60.2006091 L42.6067127,60.2006091 C41.8569511,60.2006091 41.2491492,59.5928073 41.2491492,58.8430457 C41.2491492,58.0932841 41.8569511,57.4854822 42.6067127,57.4854822 L59.5756264,57.4854822 C60.325388,57.4854822 60.9331898,58.0932841 60.9331898,58.8430457 C60.9331898,59.5928073 60.325388,60.2006091 59.5756264,60.2006091 L59.5756264,60.2006091 Z" id="fabca9b7-6499-499c-b0ba-e512eedfa0e6" fill="#3F3D56"></path>
                <path d="M59.5756264,67.3275208 L42.6067127,67.3275208 C41.8569511,67.3275208 41.2491492,66.719719 41.2491492,65.9699574 C41.2491492,65.2201958 41.8569511,64.6123939 42.6067127,64.6123939 L59.5756264,64.6123939 C60.325388,64.6123939 60.9331898,65.2201958 60.9331898,65.9699574 C60.9331898,66.719719 60.325388,67.3275208 59.5756264,67.3275208 L59.5756264,67.3275208 Z" id="b1b2178d-f6c7-4a19-857a-cc93cc70df69" fill="#3F3D56"></path>
                <path d="M33.9001015,71.3855838 L21.4992893,71.3855838 C20.6561506,71.3846885 19.972875,70.7014128 19.9719797,69.8582741 L19.9719797,55.2243655 C19.972875,54.3812268 20.6561506,53.6979511 21.4992893,53.6970558 L33.9001015,53.6970558 C34.7432402,53.6979511 35.4265159,54.3812268 35.4274112,55.2243655 L35.4274112,69.8582741 C35.4265159,70.7014128 34.7432402,71.3846885 33.9001015,71.3855838 L33.9001015,71.3855838 Z" id="bd84b5e9-e9c5-4886-bcfd-3c769a5bd20c" fill="#0C64CE"></path>
                <path d="M59.457868,81.9208203 L21.1082234,81.9208203 C20.3584618,81.9208203 19.7506601,81.3130184 19.7506601,80.5632569 C19.7506601,79.8134954 20.3584618,79.2056934 21.1082234,79.2056934 L59.457868,79.2056934 C60.2076296,79.2056934 60.8154315,79.8134953 60.8154315,80.5632569 C60.8154315,81.3130184 60.2076296,81.9208203 59.457868,81.9208203 Z" id="ad20b6ae-6256-4ad3-9ba5-bff6ef303c78" fill="#CCCCCC"></path>
                <path d="M59.457868,89.0477198 L21.1082234,89.0477198 C20.3584618,89.0477198 19.7506599,88.4399179 19.7506599,87.6901563 C19.7506599,86.9403948 20.3584618,86.3325929 21.1082234,86.3325929 L59.457868,86.3325929 C60.2076296,86.3325929 60.8154315,86.9403948 60.8154315,87.6901563 C60.8154315,88.4399179 60.2076296,89.0477198 59.457868,89.0477198 Z" id="f5b31b5a-d389-4394-a0c3-430493f21651" fill="#CCCCCC"></path>
                <path d="M59.457868,96.1746193 L21.1082234,96.1746193 C20.3584618,96.1746193 19.7506599,95.5668174 19.7506599,94.8170558 C19.7506599,94.0672942 20.3584618,93.4594924 21.1082234,93.4594924 L59.457868,93.4594924 C60.2076296,93.4594924 60.8154315,94.0672942 60.8154315,94.8170558 C60.8154315,95.5668174 60.2076296,96.1746193 59.457868,96.1746193 Z" id="e6b00d4f-f233-434b-82e7-f520ed55a592" fill="#CCCCCC"></path>
                <path d="M59.457868,103.301531 L21.1082234,103.301531 C20.3584618,103.301531 19.7506599,102.693729 19.7506599,101.943968 C19.7506599,101.194206 20.3584618,100.586404 21.1082234,100.586404 L59.457868,100.586404 C60.2076296,100.586404 60.8154315,101.194206 60.8154315,101.943968 C60.8154315,102.693729 60.2076296,103.301531 59.457868,103.301531 Z" id="f83e6214-6629-4e95-ad35-3c9b0c78a3d6" fill="#CCCCCC"></path>
                <path d="M59.457868,110.42843 L21.1082234,110.42843 C20.3584618,110.42843 19.7506599,109.820629 19.7506599,109.070867 C19.7506599,108.321105 20.3584618,107.713304 21.1082234,107.713304 L59.457868,107.713304 C60.2076296,107.713304 60.8154315,108.321105 60.8154315,109.070867 C60.8154315,109.820629 60.2076296,110.42843 59.457868,110.42843 Z" id="b83f14e7-a754-4235-a578-aebf681d4a1c" fill="#CCCCCC"></path>
                <circle id="af1d3ae0-b86a-44f8-8168-f2f371efc620" fill="#0C64CE" cx="41.2962477" cy="13.1013198" r="13.1013198"></circle>
                <path d="M39.9979777,18.0990882 C39.703237,18.0995849 39.4163258,18.0042329 39.1805157,17.8274112 L39.1658964,17.8164467 L36.0869117,15.4611168 C35.6983665,15.1639007 35.4980539,14.6818637 35.5615236,14.1968109 C35.6249933,13.711758 35.9425886,13.2974898 36.3945251,13.1102518 C36.8464616,12.9230138 37.3639774,12.9912941 37.7518863,13.2893401 L39.746201,14.8186802 L44.4588914,8.67045685 C44.9184734,8.07100135 45.7769884,7.95760173 46.3764548,8.41716954 L46.3768609,8.41747005 L46.3476223,8.45807919 L46.3776731,8.41747005 C46.9764537,8.87765269 47.0896409,9.73573114 46.630668,10.3354396 L41.0875208,17.563866 C40.8275874,17.9014496 40.4252552,18.0987125 39.9991959,18.0974701 L39.9979777,18.0990882 Z" id="b4906b3b-71df-4c7e-84d8-52e6769e6d26" fill="#FFFFFF"></path>
                <path d="M0.406091371,120.994254 L79.5939086,120.994254 C79.8181867,120.994254 80,120.812441 80,120.588162 C80,120.363884 79.8181867,120.182071 79.5939086,120.182071 L0.406091371,120.182071 C0.1818133,120.182071 0,120.363884 0,120.588162 C0,120.812441 0.1818133,120.994254 0.406091371,120.994254 Z" id="b01c4841-6b77-41d3-9bc6-bba4643c130f" fill="#3F3D56"></path>
            </g>
        </g>
    </g>
</svg>