<?xml version="1.0" encoding="UTF-8"?>
<svg width="20px" height="20px" viewBox="0 0 20 20" version="1.1" xmlns="http://www.w3.org/2000/svg" xmlns:xlink="http://www.w3.org/1999/xlink">
    <!-- Generator: Sketch 59 (86127) - https://sketch.com -->
    <title>Icon Color</title>
    <desc>Created with Sketch.</desc>
    <g id="Symbols" stroke="none" stroke-width="1" fill="none" fill-rule="evenodd">
        <g id="02-Icons-/-24x24-/-ic24-apps" transform="translate(-2.000000, -2.000000)" fill="#2C5DE5">
            <path d="M4,18 C5.1045695,18 6,18.8954305 6,20 C6,21.1045695 5.1045695,22 4,22 C2.8954305,22 2,21.1045695 2,20 C2,18.8954305 2.8954305,18 4,18 Z M12,18 C13.1045695,18 14,18.8954305 14,20 C14,21.1045695 13.1045695,22 12,22 C10.8954305,22 10,21.1045695 10,20 C10,18.8954305 10.8954305,18 12,18 Z M20,18 C21.1045695,18 22,18.8954305 22,20 C22,21.1045695 21.1045695,22 20,22 C18.8954305,22 18,21.1045695 18,20 C18,18.8954305 18.8954305,18 20,18 Z M4,10 C5.1045695,10 6,10.8954305 6,12 C6,13.1045695 5.1045695,14 4,14 C2.8954305,14 2,13.1045695 2,12 C2,10.8954305 2.8954305,10 4,10 Z M12,10 C13.1045695,10 14,10.8954305 14,12 C14,13.1045695 13.1045695,14 12,14 C10.8954305,14 10,13.1045695 10,12 C10,10.8954305 10.8954305,10 12,10 Z M20,10 C21.1045695,10 22,10.8954305 22,12 C22,13.1045695 21.1045695,14 20,14 C18.8954305,14 18,13.1045695 18,12 C18,10.8954305 18.8954305,10 20,10 Z M4,2 C5.1045695,2 6,2.8954305 6,4 C6,5.1045695 5.1045695,6 4,6 C2.8954305,6 2,5.1045695 2,4 C2,2.8954305 2.8954305,2 4,2 Z M12,2 C13.1045695,2 14,2.8954305 14,4 C14,5.1045695 13.1045695,6 12,6 C10.8954305,6 10,5.1045695 10,4 C10,2.8954305 10.8954305,2 12,2 Z M20,2 C21.1045695,2 22,2.8954305 22,4 C22,5.1045695 21.1045695,6 20,6 C18.8954305,6 18,5.1045695 18,4 C18,2.8954305 18.8954305,2 20,2 Z" id="Icon-Color"></path>
        </g>
    </g>
</svg>