<svg xmlns="http://www.w3.org/2000/svg" viewBox="0 0 772.99 839.07"><defs><style>.cls-1{fill:#093b54;}.cls-2{fill:#a2cb0d;}</style></defs><g id="Layer_2" data-name="Layer 2"><g id="Layer_1-2" data-name="Layer 1"><path class="cls-1" d="M462.82,167a5.06,5.06,0,0,1-5.11,5.12H315.28a5.1,5.1,0,0,1-5.12-5.12,63.62,63.62,0,0,1,63.72-63.66h25.23A63.68,63.68,0,0,1,462.82,167Z"/><path class="cls-1" d="M429.05,43.3c0,24.61-19,54.35-42.53,54.35S343.94,67.91,343.94,43.3C343.94,19.45,363,0,386.52,0S429.05,19.45,429.05,43.3Z"/><path class="cls-1" d="M462.82,794a5.07,5.07,0,0,1-5.11,5.12H315.28a5.11,5.11,0,0,1-5.12-5.12,63.62,63.62,0,0,1,63.72-63.67h25.23A63.68,63.68,0,0,1,462.82,794Z"/><path class="cls-1" d="M429.05,670.25c0,24.62-19,54.35-42.53,54.35s-42.58-29.73-42.58-54.35c0-23.84,19.09-43.29,42.58-43.29S429.05,646.41,429.05,670.25Z"/><path class="cls-1" d="M773,503a5.07,5.07,0,0,1-5.12,5.12H625.45a5.1,5.1,0,0,1-5.12-5.12A63.62,63.62,0,0,1,684,439.29h25.23A63.69,63.69,0,0,1,773,503Z"/><path class="cls-1" d="M739.21,379.26c0,24.62-19,54.35-42.53,54.35s-42.58-29.73-42.58-54.35c0-23.85,19.09-43.29,42.58-43.29S739.21,355.41,739.21,379.26Z"/><path class="cls-1" d="M152.66,503a5.07,5.07,0,0,1-5.12,5.12H5.12A5.1,5.1,0,0,1,0,503a63.62,63.62,0,0,1,63.71-63.67H88.94A63.69,63.69,0,0,1,152.66,503Z"/><path class="cls-1" d="M118.88,379.26c0,24.62-19,54.35-42.52,54.35s-42.58-29.73-42.58-54.35c0-23.85,19.08-43.29,42.58-43.29S118.88,355.41,118.88,379.26Z"/><path class="cls-2" d="M99.56,314.54a12.53,12.53,0,0,1-4.8-1,12.66,12.66,0,0,1-6.9-16.52,325.44,325.44,0,0,1,174-175.18,12.66,12.66,0,1,1,9.79,23.35A299.93,299.93,0,0,0,111.28,306.69,12.66,12.66,0,0,1,99.56,314.54Z"/><path class="cls-2" d="M673.42,314.54a12.67,12.67,0,0,1-11.72-7.85A300,300,0,0,0,501.85,145.42a12.66,12.66,0,1,1,9.82-23.33,325.53,325.53,0,0,1,173.46,175,12.68,12.68,0,0,1-11.71,17.48Z"/><path class="cls-2" d="M266.74,718.57a12.64,12.64,0,0,1-4.89-1c-76.63-32.1-139.37-94.33-172.14-170.7a12.66,12.66,0,0,1,23.28-10A300.45,300.45,0,0,0,271.64,694.23a12.66,12.66,0,0,1-4.9,24.34Z"/><path class="cls-2" d="M506.77,718.37A12.66,12.66,0,0,1,501.85,694c70.39-29.64,128-86.92,158.15-157.14a12.66,12.66,0,1,1,23.27,10C650.59,623.07,588,685.21,511.67,717.37A12.71,12.71,0,0,1,506.77,718.37Z"/><path class="cls-1" d="M313.13,425.83a11,11,0,1,1,15.53-15.53l3.17,3.28,25-25.15A11,11,0,0,1,372.39,404l-32.8,32.8a10.92,10.92,0,0,1-15.46.06l-.07-.06Zm10.93-76.54a10.94,10.94,0,0,0,15.47.07l.06-.07,32.8-32.8A11,11,0,0,0,356.86,301l-25,25.14-3.17-3.28a11,11,0,0,0-15.53,15.53ZM372.39,475.9a10.94,10.94,0,0,0-15.46-.06l-.07.06-25,25.15-3.17-3.28a11,11,0,1,0-15.53,15.52l10.93,10.94a10.94,10.94,0,0,0,15.47.06l.06-.06,32.8-32.8a10.92,10.92,0,0,0,.06-15.46ZM506.76,297.8V538.33a32.79,32.79,0,0,1-32.8,32.8H299a32.79,32.79,0,0,1-32.8-32.8V297.8A32.79,32.79,0,0,1,299,265H474A32.79,32.79,0,0,1,506.76,297.8Zm-21.87,0A10.93,10.93,0,0,0,474,286.86H299a10.94,10.94,0,0,0-10.94,10.94V538.33A10.94,10.94,0,0,0,299,549.27H474a10.93,10.93,0,0,0,10.93-10.94Zm-32.8,21.86h-65.6a10.94,10.94,0,0,0,0,21.87h65.6a10.94,10.94,0,1,0,0-21.87Zm0,174.94h-65.6a10.94,10.94,0,0,0,0,21.87h65.6a10.94,10.94,0,1,0,0-21.87Zm0-87.47h-65.6a10.94,10.94,0,0,0,0,21.87h65.6a10.94,10.94,0,1,0,0-21.87Z"/></g></g></svg>