<?xml version="1.0" encoding="UTF-8"?>
<svg width="70px" height="11px" viewBox="0 0 70 11" version="1.1" xmlns="http://www.w3.org/2000/svg" xmlns:xlink="http://www.w3.org/1999/xlink">
    <!-- Generator: Sketch 59 (86127) - https://sketch.com -->
    <title>Group 24</title>
    <desc>Created with Sketch.</desc>
    <g id="REZILIO-PLANS-v3" stroke="none" stroke-width="1" fill="none" fill-rule="evenodd">
        <g id="Group-24" transform="translate(0.000000, 1.000000)">
            <g id="Group-11" transform="translate(0.029167, 0.000000)">
                <path d="M13.2983088,5.74893333 C12.7346014,6.92063704 11.3359841,7.40982222 10.1738977,6.84152593 C9.01195815,6.27337778 8.52684951,4.86285926 9.09041,3.69115556 C9.65382358,2.51945185 11.0527347,2.03026667 12.2145273,2.59841481 C13.3764668,3.16671111 13.8618693,4.57722963 13.2983088,5.74893333" id="Fill-1" fill="#656565"></path>
                <path d="M14.2206763,4.72 C14.2206763,6.40548148 12.8655454,7.7717037 11.1942565,7.7717037 C9.52282074,7.7717037 8.1679837,6.40548148 8.1679837,4.72 C8.1679837,3.03451852 9.52282074,1.6682963 11.1942565,1.6682963 C12.8655454,1.6682963 14.2206763,3.03451852 14.2206763,4.72 Z" id="Stroke-3" stroke="#656565" stroke-width="1.568"></path>
                <path d="M15.0119088,4.72 C15.0119088,6.84607407 13.3027162,8.56977778 11.1943594,8.56977778 C9.08585568,8.56977778 7.37666309,6.84607407 7.37666309,4.72 C7.37666309,2.59377778 9.08585568,0.870222222 11.1943594,0.870222222 C13.3027162,0.870222222 15.0119088,2.59377778 15.0119088,4.72 Z" id="Stroke-5" stroke="#656565" stroke-width="0.784"></path>
                <path d="M15.7404532,4.72 C15.7404532,7.25185185 13.7051125,9.3042963 11.1943594,9.3042963 C8.6836063,9.3042963 6.64811864,7.25185185 6.64811864,4.72 C6.64811864,2.18814815 8.6836063,0.135703704 11.1943594,0.135703704 C13.7051125,0.135703704 15.7404532,2.18814815 15.7404532,4.72 Z" id="Stroke-7" stroke="#656565" stroke-width="0.392"></path>
                <path d="M6.61660568,8.69946667 L4.06618593,8.69946667 C2.57501309,8.69946667 1.76199333,8.46331852 1.12130321,7.82968889 C0.418762469,7.13383704 5.87654321e-05,5.9288 5.87654321e-05,4.61176296 C5.87654321e-05,3.10820741 0.554363704,1.70420741 1.41689333,1.03339259 C1.98383284,0.59842963 2.7601242,0.412059259 3.99214148,0.412059259 L6.61660568,0.412059259 L6.61660568,1.46820741 L4.06618593,1.46820741 C2.94479457,1.46820741 2.46424025,1.61724444 2.08241185,2.07694815 C1.65092667,2.59887407 1.39221185,3.56791111 1.39221185,4.64894815 C1.39221185,5.64287407 1.63873284,6.47546667 2.10709333,6.99724444 C2.53813778,7.49413333 3.01883901,7.64346667 4.17695877,7.64346667 L6.61660568,7.64346667 L6.61660568,8.69946667 Z" id="Fill-9" fill="#656565"></path>
            </g>
            <polygon id="Fill-12" fill="#656565" points="20.6704567 6.8509126 23.235526 0 25.2291667 0 25.2291667 8.4 23.9212705 8.4 23.9212705 1.25927171 21.2798897 8.4 19.9339891 8.4 17.2037295 1.25927171 17.2037295 8.4 15.8958333 8.4 15.8958333 0 17.889474 0"></polygon>
            <path d="M28.6334949,0 L30.360441,0 L33.6291667,8.4 L32.2353438,8.4 L31.3964321,6.20855202 L27.4986698,6.20855202 L26.6229895,8.4 L25.2291667,8.4 L28.6334949,0 Z M27.8934171,5.13820522 L30.9771234,5.13820522 L29.4722594,1.00742939 L27.8934171,5.13820522 Z" id="Fill-13" fill="#656565"></path>
            <g id="Group-20" transform="translate(34.562500, 0.000000)" fill="#656565">
                <path d="M1.43821333,0.11508 L1.43821333,4.91059579 C1.43821333,5.96118526 1.54894667,6.44308 1.8194,6.75225895 C2.22537333,7.14764842 2.7544,7.32080632 3.59069333,7.30857474 L5.34981333,7.30857474 L5.34981333,8.35886947 L3.33256,8.35886947 C1.05688,8.39585895 0.0604266667,7.37002737 0.12188,5.07122737 L0.12188,0.11508 L1.43821333,0.11508 Z" id="Fill-14"></path>
                <path d="M12.1142267,1.16572842 L9.72796,1.16572842 C8.09189333,1.09160211 7.29256,1.89490737 7.21849333,3.68705474 L12.1142267,3.68705474 L12.1142267,4.73764421 L7.20632,4.73764421 C7.24328,6.48012842 8.11668,7.39484421 9.65433333,7.30848632 L12.1142267,7.30848632 L12.1142267,8.35892842 L9.42054667,8.35892842 C8.0058,8.35892842 7.23081333,8.06212842 6.61584,7.29596 C6.02550667,6.54202316 5.76708,5.66444421 5.76708,4.40385474 C5.76708,2.76010737 6.20986667,1.59825474 7.13254667,0.81956 C7.72302667,0.325286316 8.52236,0.115138947 9.80173333,0.115138947 L12.1142267,0.115138947 L12.1142267,1.16572842 Z" id="Fill-16"></path>
                <path d="M14.8812693,8.35894316 L13.5650827,8.35894316 L13.5650827,0.115153684 L17.3043493,0.115153684 C18.4360293,0.115153684 19.1249227,0.251174737 19.5677093,0.560058947 C20.1458693,0.943216842 20.4779227,1.63540632 20.4779227,2.40157474 C20.4779227,3.09376421 20.231816,3.68706947 19.789176,4.07022737 C19.506256,4.31736421 19.2601493,4.42862737 18.7682293,4.56464842 C19.863096,5.04669053 20.1826827,5.57795368 20.281096,7.11073263 C20.3425493,8.08704842 20.3425493,8.08704842 20.502416,8.35894316 L19.1497093,8.35894316 C19.1127493,8.27243789 19.0881093,8.19831158 19.0634693,8.04991158 C19.0511493,7.97578526 19.0388293,7.82738526 19.014336,7.59262737 L18.977376,7.17248 C18.8050427,5.42970105 18.153256,4.88591158 16.185136,4.87353263 L14.8812693,4.87353263 L14.8812693,8.35894316 Z M17.2184027,3.82294316 C17.9564293,3.82294316 18.3744293,3.74881684 18.608216,3.57580632 C18.928096,3.32866947 19.0881093,2.97012211 19.0881093,2.48822737 C19.0881093,1.96904842 18.9036027,1.54890105 18.5590827,1.35113263 C18.349936,1.21511158 17.9933893,1.16574316 17.2184027,1.16574316 L14.8812693,1.16574316 L14.8812693,3.82294316 L17.2184027,3.82294316 Z" id="Fill-18"></path>
            </g>
            <polygon id="Fill-21" fill="#656565" points="56.0291667 1.07049696 56.0291667 0 62.5625 0 62.5625 1.07049696 59.9168278 1.07049696 59.9168278 8.4 58.686222 8.4 58.686222 1.07049696"></polygon>
            <path d="M69.0958333,1.07049696 L66.6395114,1.07049696 C64.9554135,0.994966035 64.1326136,1.81349303 64.0565235,3.63959957 L69.0958333,3.63959957 L69.0958333,4.71009653 L64.0438418,4.71009653 C64.0818869,6.48559886 64.9809279,7.41764748 66.5637232,7.3296532 L69.0958333,7.3296532 L69.0958333,8.4 L66.3230731,8.4 C64.8669437,8.4 64.0690542,8.09757597 63.4361776,7.31688952 C62.8283625,6.54866643 62.5625,5.65445835 62.5625,4.36998212 C62.5625,2.69508759 63.0181349,1.51121916 63.9679027,0.717769038 C64.5758688,0.214129424 65.3985177,0 66.7154505,0 L69.0958333,0 L69.0958333,1.07049696 Z" id="Fill-22" fill="#656565"></path>
        </g>
    </g>
</svg>