<?xml version="1.0" encoding="UTF-8"?>
<svg width="19px" height="22px" viewBox="0 0 19 22" version="1.1" xmlns="http://www.w3.org/2000/svg" xmlns:xlink="http://www.w3.org/1999/xlink">
    <!-- Generator: Sketch 59 (86127) - https://sketch.com -->
    <title>Group 2</title>
    <desc>Created with Sketch.</desc>
    <g id="REZILIO-PLANS-v3" stroke="none" stroke-width="1" fill="none" fill-rule="evenodd">
        <g id="Group-2" fill="#656565" fill-rule="nonzero">
            <path d="M17.923426,9.44612477 L10.9457617,9.44612477 C9.6245073,9.44612477 8.55341897,8.40257735 8.55341897,7.11529637 L8.55341897,0.317040644 C8.5534201,0.265526346 8.53241654,0.216121624 8.49502909,0.179695515 C8.45764164,0.143269406 8.40693304,0.122807018 8.3540592,0.122807018 L3.76873771,0.122807018 C2.00706681,0.122807018 0.578947368,1.51420105 0.578947368,3.23057407 L0.578947368,18.7694218 C0.578947368,20.4857964 2.00706515,21.877193 3.76873771,21.877193 L14.9330167,21.877193 C16.6946892,21.877193 18.122807,20.4857964 18.122807,18.7694218 L18.122807,9.6403501 C18.122807,9.58883398 18.1017969,9.53942889 18.0644054,9.50300422 C18.0270138,9.46657954 17.9763017,9.44611927 17.923426,9.44612477 Z M13.0935673,16.9649123 L4.90643275,16.9649123 C4.4542698,16.9649123 4.0877193,16.6507261 4.0877193,16.2631579 C4.0877193,15.8755896 4.4542698,15.5614035 4.90643275,15.5614035 L13.0935673,15.5614035 C13.5457302,15.5614035 13.9122807,15.8755896 13.9122807,16.2631579 C13.9122807,16.6507261 13.5457302,16.9649123 13.0935673,16.9649123 Z M13.0935673,13.4561404 L4.90643275,13.4561404 C4.4542698,13.4561404 4.0877193,13.1419542 4.0877193,12.754386 C4.0877193,12.3668177 4.4542698,12.0526316 4.90643275,12.0526316 L13.0935673,12.0526316 C13.5457302,12.0526316 13.9122807,12.3668177 13.9122807,12.754386 C13.9122807,13.1419542 13.5457302,13.4561404 13.0935673,13.4561404 Z" id="Shape"></path>
            <path d="M17.1331277,7.66402609 L9.96717021,0.153185516 C9.93867557,0.123496276 9.89595824,0.11464499 9.85882871,0.130736506 C9.82169918,0.146828023 9.7974201,0.184714792 9.79725106,0.226826543 L9.79725106,7.00646627 C9.79725106,7.46797694 10.1542001,7.84210526 10.5945191,7.84210526 L17.0628511,7.84210526 C17.1030291,7.8419281 17.1391762,7.81648051 17.1545288,7.77756401 C17.1698815,7.73864751 17.1614366,7.69387428 17.1331106,7.66400825 L17.1331277,7.66402609 Z" id="Path"></path>
        </g>
    </g>
</svg>