<?xml version="1.0" encoding="UTF-8"?>
<svg width="40px" height="21px" viewBox="0 0 40 21" version="1.1" xmlns="http://www.w3.org/2000/svg" xmlns:xlink="http://www.w3.org/1999/xlink">
    <!-- Generator: Sketch 59 (86127) - https://sketch.com -->
    <title>undraw_Graduation_ktn0</title>
    <desc>Created with Sketch.</desc>
    <g id="REZILIO-PLANS-v3" stroke="none" stroke-width="1" fill="none" fill-rule="evenodd">
        <g id="undraw_Graduation_ktn0" fill-rule="nonzero">
            <path d="M10.4666842,16.7572802 L9.13580247,18.6936053 C9.13580247,18.6936053 9.57942971,20.6837172 19.3946823,20.6299304 C29.2099349,20.5761436 29.9862826,18.6936053 29.9862826,18.6936053 L28.1563202,16.1118385 L22.5555264,12.4005487 L10.4666842,16.7572802 Z" id="Path" fill="#656565" opacity="0.15"></path>
            <polygon id="Path" fill="#656565" points="39.3141289 9.13772933 21.7581848 16.7901235 0.356652949 9.13772933 19.9747238 0.329218107 29.6048558 4.71530616 29.9498441 4.8727583"></polygon>
            <polygon id="Path" fill="#F5F5F5" points="29.9862826 11.2823641 29.4682368 11.303155 28.8888889 4.71879287 29.4233395 4.88396501"></polygon>
            <path d="M10.6884978,9.67511424 L9.13580247,18.9849108 C9.13580247,18.9849108 20.2819368,15.4252827 29.9862826,18.9849108 L28.5444941,9.12747915 C28.5444941,9.12747915 15.512944,7.53933738 10.6884978,9.67511424 Z" id="Path" fill="#656565"></path>
            <circle id="Oval" fill="#F5F5F5" cx="29.5198903" cy="11.0013717" r="1.37174211"></circle>
        </g>
    </g>
</svg>