<?xml version="1.0" encoding="UTF-8"?>
<svg width="12px" height="11px" viewBox="0 0 12 11" version="1.1" xmlns="http://www.w3.org/2000/svg" xmlns:xlink="http://www.w3.org/1999/xlink">
    <!-- Generator: Sketch 59 (86127) - https://sketch.com -->
    <title>Path</title>
    <desc>Created with Sketch.</desc>
    <g id="REZILIO-PLANS-v3" stroke="none" stroke-width="1" fill="none" fill-rule="evenodd">
        <g id="Onboarding-03-/-Sorting" transform="translate(-213.000000, -523.000000)" fill="#AAC4CC" fill-rule="nonzero">
            <path d="M223.645454,529.911341 L225,525.693224 L223.318284,526.262397 C222.379098,524.11154 220.201789,522.809046 217.902908,523.02285 C215.604026,523.236654 213.693578,524.919325 213.151265,527.207966 C212.608953,529.496607 213.555087,531.883486 215.504479,533.144581 C217.453871,534.405675 219.974049,534.261212 221.772633,532.785274 C221.987096,532.611174 222.093755,532.333281 222.052176,532.056943 C222.010597,531.780605 221.827144,531.548125 221.571365,531.447637 C221.315585,531.347148 221.026635,531.394033 220.814055,531.570519 C220.128937,532.135588 219.273454,532.44187 218.392383,532.437533 C216.488615,532.434465 214.871287,531.01621 214.582768,529.096832 C214.294248,527.177455 215.420693,525.330113 217.23611,524.745417 C219.051526,524.160721 221.013801,525.013272 221.858248,526.753601 L220.081744,527.35552 L223.645454,529.911341 Z" id="Path"></path>
        </g>
    </g>
</svg>