<?xml version="1.0" encoding="UTF-8"?>
<svg width="2px" height="10px" viewBox="0 0 2 10" version="1.1" xmlns="http://www.w3.org/2000/svg" xmlns:xlink="http://www.w3.org/1999/xlink">
    <title>Icon Color</title>
    <g id="REZILIO-PLANS-v4" stroke="none" stroke-width="1" fill="none" fill-rule="evenodd">
        <g id="Plan-Page---Index-Copy-80" transform="translate(-1138.000000, -171.000000)" fill="#1C1C1C">
            <g id="02-Icons-/-16x16-/-ic16-more-ver" transform="translate(1138.000000, 171.000000)">
                <path d="M1,8 C1.55228475,8 2,8.44771525 2,9 C2,9.55228475 1.55228475,10 1,10 C0.44771525,10 0,9.55228475 0,9 C0,8.44771525 0.44771525,8 1,8 Z M1,4 C1.55228475,4 2,4.44771525 2,5 C2,5.55228475 1.55228475,6 1,6 C0.44771525,6 0,5.55228475 0,5 C0,4.44771525 0.44771525,4 1,4 Z M1,0 C1.55228475,0 2,0.44771525 2,1 C2,1.55228475 1.55228475,2 1,2 C0.44771525,2 0,1.55228475 0,1 C0,0.44771525 0.44771525,0 1,0 Z" id="Icon-Color"></path>
            </g>
        </g>
    </g>
</svg>