<?xml version="1.0" encoding="UTF-8"?>
<svg width="16px" height="16px" viewBox="0 0 16 16" version="1.1" xmlns="http://www.w3.org/2000/svg" xmlns:xlink="http://www.w3.org/1999/xlink">
    <title>02 Icons / 16x16 / ic16-drag-indicator</title>
    <g id="02-Icons-/-16x16-/-ic16-drag-indicator" stroke="none" stroke-width="1" fill="none" fill-rule="evenodd">
        <path d="M6,12 C6.55228475,12 7,12.4477153 7,13 C7,13.5522847 6.55228475,14 6,14 C5.44771525,14 5,13.5522847 5,13 C5,12.4477153 5.44771525,12 6,12 Z" id="Path" fill="#9C9C9C"></path>
        <path d="M10,12 C10.5522847,12 11,12.4477153 11,13 C11,13.5522847 10.5522847,14 10,14 C9.44771525,14 9,13.5522847 9,13 C9,12.4477153 9.44771525,12 10,12 Z" id="Path" fill="#9C9C9C"></path>
        <path d="M6,7 C6.55228475,7 7,7.44771525 7,8 C7,8.55228475 6.55228475,9 6,9 C5.44771525,9 5,8.55228475 5,8 C5,7.44771525 5.44771525,7 6,7 Z" id="Path" fill="#9C9C9C"></path>
        <path d="M10,7 C10.5522847,7 11,7.44771525 11,8 C11,8.55228475 10.5522847,9 10,9 C9.44771525,9 9,8.55228475 9,8 C9,7.44771525 9.44771525,7 10,7 Z" id="Path" fill="#9C9C9C"></path>
        <path d="M6,2 C6.55228475,2 7,2.44771525 7,3 C7,3.55228475 6.55228475,4 6,4 C5.44771525,4 5,3.55228475 5,3 C5,2.44771525 5.44771525,2 6,2 Z" id="Path" fill="#9C9C9C"></path>
        <path d="M10,2 C10.5522847,2 11,2.44771525 11,3 C11,3.55228475 10.5522847,4 10,4 C9.44771525,4 9,3.55228475 9,3 C9,2.44771525 9.44771525,2 10,2 Z" id="Path" fill="#9C9C9C"></path>
    </g>
</svg>