<?xml version="1.0" encoding="UTF-8"?>
<svg width="22px" height="22px" viewBox="0 0 22 22" version="1.1" xmlns="http://www.w3.org/2000/svg" xmlns:xlink="http://www.w3.org/1999/xlink">
    <title>Rectangle</title>
    <defs>
        <polygon id="path-1" points="0 0 950 0 950 539 0 539"></polygon>
        <polygon id="path-3" points="0 0 950 0 950 539 0 539"></polygon>
        <path d="M79,43 L211,43 C213.209139,43 215,44.790861 215,47 L215,63 C215,65.209139 213.209139,67 211,67 L79,67 C76.790861,67 75,65.209139 75,63 L75,47 C75,44.790861 76.790861,43 79,43 Z" id="path-5"></path>
        <mask id="mask-6" maskContentUnits="userSpaceOnUse" maskUnits="objectBoundingBox" x="0" y="0" width="140" height="24" fill="white">
            <use xlink:href="#path-5"></use>
        </mask>
        <mask id="mask-8" maskContentUnits="userSpaceOnUse" maskUnits="objectBoundingBox" x="0" y="0" width="140" height="24" fill="white">
            <use xlink:href="#path-5"></use>
        </mask>
    </defs>
    <g id="Page-1" stroke="none" stroke-width="1" fill="none" fill-rule="evenodd">
        <g id="Plan-Page---Index-Copy-156" transform="translate(-1391.000000, -261.000000)">
            <g id="Prise-de-contact-..-/-Text" transform="translate(475.000000, 235.000000)">
                <g id="01-Components-/-03-Dropdown-Menus-/-999-Primitives-/-01-Base">
                    <g id="Fill">
                        <mask id="mask-2" fill="white">
                            <use xlink:href="#path-1"></use>
                        </mask>
                        <use id="Style" fill="#FFFFFF" xlink:href="#path-1"></use>
                    </g>
                    <g id="Stroke">
                        <mask id="mask-4" fill="white">
                            <use xlink:href="#path-3"></use>
                        </mask>
                        <path stroke="#E8E8E8" d="M949.5,0.5 L949.5,538.5 L0.5,538.5 L0.5,0.5 L949.5,0.5 Z"></path>
                    </g>
                </g>
                <path d="M889,26 C882.933276,26 878,30.9332635 878,37 C878,42.9552813 882.754345,47.8121479 888.667339,47.989 C888.775132,48 888.889436,48 889,48 C889.110564,48 889.224868,48 889.332661,47.989 C895.245658,47.8121479 900,42.9552813 900,37 C900,30.9332635 895.066727,26 889,26 Z M888.12,27.32 L888.12,30.84 L885.48,30.84 C885.606981,30.4976259 885.736771,30.1631661 885.881739,29.8622406 C886.541469,28.4926707 887.334064,27.6483861 888.12,27.32 Z M889.88,27.32 C890.665936,27.6483861 891.458531,28.4926707 892.118261,29.8622406 C892.263229,30.1631661 892.393019,30.4976259 892.52,30.84 L889.88,30.84 L889.88,27.32 Z M885.48,27.76 C885.187396,28.2002964 884.91815,28.6859823 884.681613,29.2189474 C884.460146,29.7179352 884.261294,30.2658324 884.085484,30.84 L881.52,30.84 C882.550492,29.4604564 883.917028,28.3862265 885.48,27.76 Z M892.52,27.76 C894.082972,28.3862265 895.449511,29.4604564 896.48,30.84 L893.914516,30.84 C893.738706,30.2658324 893.539854,29.7179352 893.318387,29.2189474 C893.08185,28.6859823 892.812604,28.2002964 892.52,27.76 Z M880.475556,32.16 L883.72,32.16 C883.438603,33.3797575 883.264231,34.7120516 883.22,36.12 L879.32,36.12 C879.423584,34.6933315 879.831001,33.3481134 880.475556,32.16 Z M885.14069,32.16 L888.12,32.16 L888.12,36.12 L884.6,36.12 C884.648975,34.6924675 884.844065,33.3496614 885.14069,32.16 Z M889.88,32.16 L892.85931,32.16 C893.155935,33.3496614 893.351025,34.6924675 893.4,36.12 L889.88,36.12 L889.88,32.16 Z M894.28,32.16 L897.524444,32.16 C898.168999,33.3481134 898.576416,34.6933315 898.68,36.12 L894.78,36.12 C894.735769,34.7120516 894.561397,33.3797575 894.28,32.16 Z M879.32,37.88 L883.22,37.88 C883.264167,39.285944 883.439324,40.621688 883.72,41.84 L880.475556,41.84 C879.832,40.65092 879.422023,39.307436 879.32,37.88 Z M884.6,37.88 L888.12,37.88 L888.12,41.84 L885.14069,41.84 C884.843712,40.65128 884.648523,39.30902 884.6,37.88 Z M889.88,37.88 L893.4,37.88 C893.351477,39.30902 893.156288,40.65128 892.85931,41.84 L889.88,41.84 L889.88,37.88 Z M894.78,37.88 L898.68,37.88 C898.577977,39.307436 898.168,40.65092 897.524444,41.84 L894.28,41.84 C894.560676,40.621688 894.735833,39.285944 894.78,37.88 Z M881.52,43.16 L884.082353,43.16 C884.257941,43.7356312 884.453765,44.2750502 884.675294,44.7749716 C884.911722,45.3085213 885.187263,45.7997311 885.48,46.24 C883.91675,45.6147199 882.548113,44.5431909 881.52,43.16 L881.52,43.16 Z M885.48,43.16 L888.12,43.16 L888.12,46.68 C887.334064,46.3494932 886.541469,45.4882236 885.881739,44.123122 C885.736771,43.8231783 885.606981,43.5007434 885.48,43.16 L885.48,43.16 Z M889.88,43.16 L892.52,43.16 C892.393019,43.5007434 892.263229,43.8231783 892.118261,44.123122 C891.458531,45.4882236 890.665936,46.3494932 889.88,46.68 L889.88,43.16 L889.88,43.16 Z M893.917647,43.16 L896.48,43.16 C895.451887,44.5431909 894.08325,45.6147199 892.52,46.24 C892.812737,45.7997311 893.088278,45.3085213 893.324706,44.7749716 C893.546235,44.2750502 893.742059,43.7356312 893.917647,43.16 L893.917647,43.16 Z" id="Shape" fill="#DCDCDC" fill-rule="nonzero"></path>
                <path d="M927,41 C928.104569,41 929,41.8954305 929,43 C929,44.1045695 928.104569,45 927,45 C925.895431,45 925,44.1045695 925,43 C925,41.8954305 925.895431,41 927,41 Z M927,35 C928.104569,35 929,35.8954305 929,37 C929,38.1045695 928.104569,39 927,39 C925.895431,39 925,38.1045695 925,37 C925,35.8954305 925.895431,35 927,35 Z M927,29 C928.104569,29 929,29.8954305 929,31 C929,32.1045695 928.104569,33 927,33 C925.895431,33 925,32.1045695 925,31 C925,29.8954305 925.895431,29 927,29 Z" id="Icon-Color" fill="#DCDCDC"></path>
                <rect id="Rectangle" fill="#D8D8D8" x="925" y="98" width="4" height="89" rx="1.5"></rect>
                <rect id="Rectangle" fill="#F1F1F1" x="0" y="73" width="949" height="1"></rect>
                <text id="Il-est-recommandé-de" font-family="Helvetica" font-size="16" font-weight="normal" line-spacing="28" letter-spacing="0.084" fill="#202124">
                    <tspan x="47" y="103">Il est recommandé de prendre contact auprès de la population vulnérable afin de:</tspan>
                    <tspan x="47" y="131"></tspan>
                    <tspan x="47" y="159">- l’informer des consignes à respecter;</tspan>
                    <tspan x="47" y="187">- l’informer des mesures mises à sa disposition;</tspan>
                    <tspan x="47" y="215">- s’enquérir d'éventuels besoins spécifiques.</tspan>
                </text>
                <path d="M50.2921618,25.2925647 L50.3863819,25.2093726 C50.7460312,24.9297545 51.2526985,24.9297545 51.6123477,25.2093726 L51.7065679,25.2925647 L51.7897678,25.3867761 C52.0694121,25.7463917 52.0694121,26.2530116 51.7897678,26.6126272 L51.7065679,26.7068386 L50.4141483,28.0001485 L60.0005776,27.9997869 C60.5134899,27.9997869 60.9362242,28.3858156 60.993998,28.8831395 L61.0007267,28.9997572 L60.993998,29.1165195 C60.9406684,29.5755877 60.5763664,29.9398245 60.1172161,29.9931446 L60.0005776,29.9998721 L50.4141483,30.0000891 L51.7065679,31.2928205 L51.7897678,31.3870318 C52.0948343,31.7793397 52.067101,32.346595 51.7065679,32.7070943 C51.3460349,33.0675936 50.7787266,33.0953243 50.3863819,32.7902864 L50.2921618,32.7070943 L47.291757,29.7069876 L47.1889115,29.5865239 L47.1349297,29.5039755 L47.1349297,29.5039755 L47.0761457,29.3861169 L47.0761457,29.3861169 L47.0408596,29.2874363 L47.0408596,29.2874363 L47.0098411,29.1488586 L47,29.0536421 L47.000279,28.9456662 L47.000279,28.9456662 L47.0098394,28.8513563 L47.0409452,28.711953 L47.0409452,28.711953 L47.0884942,28.585317 L47.0884942,28.585317 L47.1442122,28.4802548 L47.1442122,28.4802548 L47.1999718,28.3981123 L47.2524018,28.334327 L47.2524018,28.334327 L47.291757,28.2926714 L50.2921618,25.2925647 L50.3863819,25.2093726 L50.2921618,25.2925647 Z M59.6138971,17.2097136 L59.7081172,17.2929057 L62.708522,20.2930124 L62.7848174,20.3785241 L62.7848174,20.3785241 L62.835945,20.4489047 L62.835945,20.4489047 L62.8926443,20.5460168 L62.8926443,20.5460168 L62.9261999,20.6188969 L62.9512553,20.6863968 L62.9512553,20.6863968 L62.9666274,20.7378993 L62.9904396,20.8516973 L62.9904396,20.8516973 L63,20.9460072 L63,20.9460072 L62.9983852,21.074879 L62.9904379,21.1491996 L62.9594194,21.2877773 L62.9594194,21.2877773 L62.912433,21.4132812 L62.912433,21.4132812 L62.8653493,21.5043165 L62.8653493,21.5043165 L62.8113674,21.5868649 L62.8113674,21.5868649 L62.7773523,21.6298625 L62.7085258,21.7073074 L59.7081172,24.7074353 C59.3175398,25.0979762 58.6842886,25.0979762 58.2937111,24.7074353 C57.933178,24.3469359 57.9054447,23.7796807 58.2105111,23.3873728 L58.2937111,23.2931614 L59.5861307,22.0004301 L49.9997014,22.0002131 C49.4867891,22.0002131 49.0640548,21.6141844 49.006281,21.1168605 L48.9995523,21.0000982 C48.9995523,20.4478298 49.4473343,20.0001279 49.9997014,20.0001279 L59.5861307,20.0004895 L58.2937111,18.7071795 C57.933178,18.3466802 57.9054447,17.779425 58.2105111,17.3871171 L58.2937111,17.2929057 C58.6241997,16.962448 59.128437,16.9116083 59.5123867,17.1403868 L59.6138971,17.2097136 Z" id="Icon-Color" fill="#FC9100"></path>
                <g id="01-Components-/-04-Tables-/-02-Compact-Rows-/-02-Action-/-01-Text-Button-/-01-Normal±±EACF7998-AEA3-4F94-9A66-777C819D4FC6±±B52F7FF1-1C15-451E-9C89-337CCAB86C9C-Copy-2" transform="translate(75.000000, 15.000000)" fill="#3989C9" font-family="Helvetica" font-size="22" font-weight="normal" line-spacing="20">
                    <g id="Type-of-Button±±±±21DF7CC1-7651-43E6-A464-A7F0619A626E">
                        <text id="Button-Text" transform="translate(239.500000, 10.000000) rotate(360.000000) translate(-239.500000, -10.000000) ">
                            <tspan x="0" y="21">Prise de contacts auprès des clientèles vulnérables</tspan>
                        </text>
                    </g>
                </g>
                <text id="Input-Text" font-family="Helvetica" font-size="12" font-weight="normal" line-spacing="16" letter-spacing="0.4" fill="#3D5056">
                    <tspan x="82.4367187" y="58">Version actuelle</tspan>
                </text>
                <text id="Label-Text" font-family="Helvetica" font-size="12" font-weight="normal" line-spacing="16" letter-spacing="0.4" fill="#3D5056">
                    <tspan x="225" y="58">Dernière mise à jour : </tspan>
                    <tspan x="225" y="74">2020/09/10</tspan>
                </text>
                <g id="01-Components-/-09-Users-/-02-Avatar-+-Name-/-02-Status-/-09-Extra-Small-Initials±±±±4C927F46-E79F-46ED-A2F0-3AF6D50937B3-Copy" transform="translate(465.000000, 45.000000)" fill="#3D5056" font-family="Helvetica" font-size="12" font-weight="normal" line-spacing="20">
                    <text id="User-Name-Text">
                        <tspan x="0" y="11">Nom de l’utilisateur</tspan>
                    </text>
                </g>
                <text id="Par" font-family="Helvetica" font-size="12" font-weight="normal" line-spacing="20" fill="#3D5056">
                    <tspan x="441" y="50">Par</tspan>
                </text>
                <mask id="mask-7" fill="white">
                    <use xlink:href="#path-5"></use>
                </mask>
                <g id="Style" stroke="#DCDCDC" mask="url(#mask-6)" stroke-width="2" stroke-dasharray="2">
                    <use mask="url(#mask-8)" xlink:href="#path-5"></use>
                </g>
                <polygon id="Icon-color" fill="#3D5056" mask="url(#mask-7)" transform="translate(201.000000, 55.000000) scale(1, -1) translate(-201.000000, -55.000000) " points="201 52 205 58 197 58"></polygon>
            </g>
            <rect id="Rectangle" x="1391" y="261" width="22" height="22"></rect>
        </g>
    </g>
</svg>